NimbusMonL-Regu.ufo
<glyph name="exclam" format="1">
  <advance width="600"/>
  <unicode hex="0021"/>
  <outline>
    <contour>
      <point x="338" y="563" type="curve" smooth="yes"/>
      <point x="320" y="237" type="line" smooth="yes"/>
      <point x="319" y="217"/>
      <point x="313" y="209"/>
      <point x="299" y="209" type="curve" smooth="yes"/>
      <point x="286" y="209"/>
      <point x="280" y="218"/>
      <point x="279" y="237" type="curve" smooth="yes"/>
      <point x="261" y="563" type="line" smooth="yes"/>
      <point x="260" y="570"/>
      <point x="260" y="575"/>
      <point x="260" y="579" type="curve" smooth="yes"/>
      <point x="260" y="601"/>
      <point x="277" y="618"/>
      <point x="300" y="618" type="curve" smooth="yes"/>
      <point x="322" y="618"/>
      <point x="339" y="601"/>
      <point x="339" y="579" type="curve" smooth="yes"/>
      <point x="339" y="577"/>
      <point x="339" y="571"/>
    </contour>
    <contour>
      <point x="293" y="85" type="curve" smooth="yes"/>
      <point x="306" y="85" type="line" smooth="yes"/>
      <point x="336" y="85"/>
      <point x="360" y="63"/>
      <point x="360" y="35" type="curve" smooth="yes"/>
      <point x="360" y="7"/>
      <point x="336" y="-15"/>
      <point x="306" y="-15" type="curve" smooth="yes"/>
      <point x="293" y="-15" type="line" smooth="yes"/>
      <point x="263" y="-15"/>
      <point x="240" y="7"/>
      <point x="240" y="35" type="curve" smooth="yes"/>
      <point x="240" y="63"/>
      <point x="263" y="85"/>
    </contour>
  </outline>
</glyph>
<glyph name="quotedbl" format="1">
  <advance width="600"/>
  <unicode hex="0022"/>
  <outline>
    <contour>
      <point x="146" y="604" type="line"/>
      <point x="274" y="604" type="line"/>
      <point x="240" y="351" type="line" smooth="yes"/>
      <point x="237" y="326"/>
      <point x="228" y="315"/>
      <point x="210" y="315" type="curve" smooth="yes"/>
      <point x="192" y="315"/>
      <point x="183" y="326"/>
      <point x="180" y="351" type="curve" smooth="yes"/>
    </contour>
    <contour>
      <point x="326" y="604" type="line"/>
      <point x="454" y="604" type="line"/>
      <point x="420" y="351" type="line" smooth="yes"/>
      <point x="417" y="326"/>
      <point x="408" y="315"/>
      <point x="390" y="315" type="curve" smooth="yes"/>
      <point x="372" y="315"/>
      <point x="363" y="326"/>
      <point x="360" y="351" type="curve" smooth="yes"/>
    </contour>
  </outline>
</glyph>
<glyph name="numbersign" format="1">
  <advance width="600"/>
  <unicode hex="0023"/>
  <outline>
    <contour>
      <point x="390" y="356" type="line"/>
      <point x="381" y="230" type="line"/>
      <point x="461" y="230" type="line" smooth="yes"/>
      <point x="479" y="230"/>
      <point x="488" y="223"/>
      <point x="488" y="210" type="curve" smooth="yes"/>
      <point x="488" y="196"/>
      <point x="479" y="189"/>
      <point x="461" y="189" type="curve" smooth="yes"/>
      <point x="378" y="189" type="line"/>
      <point x="362" y="-36" type="line" smooth="yes"/>
      <point x="361" y="-54"/>
      <point x="354" y="-62"/>
      <point x="341" y="-62" type="curve" smooth="yes"/>
      <point x="330" y="-62"/>
      <point x="320" y="-51"/>
      <point x="321" y="-41" type="curve" smooth="yes"/>
      <point x="322" y="-33" type="line"/>
      <point x="337" y="189" type="line"/>
      <point x="246" y="189" type="line"/>
      <point x="231" y="-36" type="line" smooth="yes"/>
      <point x="229" y="-54"/>
      <point x="223" y="-62"/>
      <point x="210" y="-62" type="curve" smooth="yes"/>
      <point x="199" y="-62"/>
      <point x="190" y="-53"/>
      <point x="190" y="-41" type="curve" smooth="yes"/>
      <point x="190" y="-33" type="line"/>
      <point x="206" y="189" type="line"/>
      <point x="119" y="189" type="line" smooth="yes"/>
      <point x="101" y="189"/>
      <point x="92" y="196"/>
      <point x="92" y="210" type="curve" smooth="yes"/>
      <point x="92" y="223"/>
      <point x="101" y="230"/>
      <point x="119" y="230" type="curve" smooth="yes"/>
      <point x="208" y="230" type="line"/>
      <point x="217" y="356" type="line"/>
      <point x="139" y="356" type="line" smooth="yes"/>
      <point x="121" y="356"/>
      <point x="112" y="363"/>
      <point x="112" y="377" type="curve" smooth="yes"/>
      <point x="112" y="390"/>
      <point x="121" y="397"/>
      <point x="139" y="397" type="curve" smooth="yes"/>
      <point x="220" y="397" type="line"/>
      <point x="236" y="622" type="line" smooth="yes"/>
      <point x="237" y="639"/>
      <point x="244" y="647"/>
      <point x="257" y="647" type="curve" smooth="yes"/>
      <point x="268" y="647"/>
      <point x="278" y="637"/>
      <point x="277" y="626" type="curve" smooth="yes"/>
      <point x="276" y="619" type="line"/>
      <point x="261" y="397" type="line"/>
      <point x="352" y="397" type="line"/>
      <point x="368" y="622" type="line" smooth="yes"/>
      <point x="369" y="639"/>
      <point x="375" y="647"/>
      <point x="388" y="647" type="curve" smooth="yes"/>
      <point x="402" y="647"/>
      <point x="409" y="636"/>
      <point x="408" y="619" type="curve" smooth="yes"/>
      <point x="392" y="397" type="line"/>
      <point x="481" y="397" type="line" smooth="yes"/>
      <point x="499" y="397"/>
      <point x="508" y="390"/>
      <point x="508" y="377" type="curve" smooth="yes"/>
      <point x="508" y="363"/>
      <point x="499" y="356"/>
      <point x="481" y="356" type="curve" smooth="yes"/>
    </contour>
    <contour>
      <point x="349" y="356" type="line"/>
      <point x="258" y="356" type="line"/>
      <point x="249" y="230" type="line"/>
      <point x="340" y="230" type="line"/>
    </contour>
  </outline>
</glyph>
<glyph name="dollar" format="1">
  <advance width="600"/>
  <unicode hex="0024"/>
  <outline>
    <contour>
      <point x="280" y="576" type="curve"/>
      <point x="280" y="628" type="line" smooth="yes"/>
      <point x="280" y="646"/>
      <point x="287" y="655"/>
      <point x="301" y="655" type="curve" smooth="yes"/>
      <point x="314" y="655"/>
      <point x="321" y="646"/>
      <point x="321" y="628" type="curve" smooth="yes"/>
      <point x="321" y="576" type="line"/>
      <point x="366" y="572"/>
      <point x="389" y="562"/>
      <point x="425" y="534" type="curve"/>
      <point x="426" y="553"/>
      <point x="433" y="563"/>
      <point x="446" y="563" type="curve" smooth="yes"/>
      <point x="460" y="563"/>
      <point x="466" y="554"/>
      <point x="466" y="536" type="curve" smooth="yes"/>
      <point x="466" y="476" type="line" smooth="yes"/>
      <point x="466" y="458"/>
      <point x="459" y="449"/>
      <point x="446" y="449" type="curve" smooth="yes"/>
      <point x="433" y="449"/>
      <point x="427" y="455"/>
      <point x="425" y="471" type="curve" smooth="yes"/>
      <point x="420" y="507"/>
      <point x="363" y="538"/>
      <point x="302" y="538" type="curve" smooth="yes"/>
      <point x="233" y="538"/>
      <point x="177" y="491"/>
      <point x="177" y="434" type="curve" smooth="yes"/>
      <point x="177" y="408"/>
      <point x="191" y="384"/>
      <point x="212" y="371" type="curve" smooth="yes"/>
      <point x="232" y="359"/>
      <point x="253" y="353"/>
      <point x="312" y="342" type="curve" smooth="yes"/>
      <point x="384" y="328"/>
      <point x="410" y="320"/>
      <point x="438" y="301" type="curve" smooth="yes"/>
      <point x="469" y="280"/>
      <point x="487" y="244"/>
      <point x="487" y="201" type="curve" smooth="yes"/>
      <point x="487" y="122"/>
      <point x="423" y="65"/>
      <point x="321" y="54" type="curve"/>
      <point x="321" y="-65" type="line" smooth="yes"/>
      <point x="321" y="-83"/>
      <point x="314" y="-92"/>
      <point x="301" y="-92" type="curve" smooth="yes"/>
      <point x="287" y="-92"/>
      <point x="280" y="-83"/>
      <point x="280" y="-65" type="curve" smooth="yes"/>
      <point x="280" y="54" type="line"/>
      <point x="234" y="56"/>
      <point x="180" y="79"/>
      <point x="154" y="108" type="curve"/>
      <point x="154" y="92" type="line" smooth="yes"/>
      <point x="154" y="74"/>
      <point x="147" y="65"/>
      <point x="134" y="65" type="curve" smooth="yes"/>
      <point x="120" y="65"/>
      <point x="113" y="74"/>
      <point x="113" y="92" type="curve" smooth="yes"/>
      <point x="113" y="171" type="line" smooth="yes"/>
      <point x="113" y="189"/>
      <point x="120" y="198"/>
      <point x="134" y="198" type="curve" smooth="yes"/>
      <point x="147" y="198"/>
      <point x="152" y="191"/>
      <point x="154" y="173" type="curve" smooth="yes"/>
      <point x="158" y="130"/>
      <point x="225" y="93"/>
      <point x="299" y="93" type="curve" smooth="yes"/>
      <point x="384" y="93"/>
      <point x="446" y="138"/>
      <point x="446" y="201" type="curve" smooth="yes"/>
      <point x="446" y="231"/>
      <point x="432" y="257"/>
      <point x="408" y="272" type="curve"/>
      <point x="385" y="285"/>
      <point x="369" y="290"/>
      <point x="302" y="303" type="curve" smooth="yes"/>
      <point x="238" y="315"/>
      <point x="209" y="325"/>
      <point x="183" y="341" type="curve"/>
      <point x="154" y="361"/>
      <point x="136" y="397"/>
      <point x="136" y="435" type="curve" smooth="yes"/>
      <point x="136" y="507"/>
      <point x="196" y="566"/>
    </contour>
  </outline>
</glyph>
<glyph name="percent" format="1">
  <advance width="600"/>
  <unicode hex="0025"/>
  <outline>
    <contour>
      <point x="361" y="236" type="curve" smooth="yes"/>
      <point x="430" y="236"/>
      <point x="484" y="181"/>
      <point x="484" y="110" type="curve" smooth="yes"/>
      <point x="484" y="44"/>
      <point x="428" y="-12"/>
      <point x="362" y="-12" type="curve" smooth="yes"/>
      <point x="294" y="-12"/>
      <point x="239" y="44"/>
      <point x="239" y="112" type="curve" smooth="yes"/>
      <point x="239" y="180"/>
      <point x="294" y="236"/>
    </contour>
    <contour>
      <point x="361" y="198" type="curve" smooth="yes"/>
      <point x="315" y="198"/>
      <point x="277" y="160"/>
      <point x="277" y="112" type="curve" smooth="yes"/>
      <point x="277" y="65"/>
      <point x="315" y="26"/>
      <point x="362" y="26" type="curve" smooth="yes"/>
      <point x="408" y="26"/>
      <point x="446" y="65"/>
      <point x="446" y="111" type="curve" smooth="yes"/>
      <point x="446" y="160"/>
      <point x="409" y="198"/>
    </contour>
    <contour>
      <point x="237" y="611" type="curve" smooth="yes"/>
      <point x="306" y="611"/>
      <point x="360" y="556"/>
      <point x="360" y="486" type="curve" smooth="yes"/>
      <point x="360" y="419"/>
      <point x="304" y="363"/>
      <point x="238" y="363" type="curve" smooth="yes"/>
      <point x="170" y="363"/>
      <point x="115" y="419"/>
      <point x="115" y="487" type="curve" smooth="yes"/>
      <point x="115" y="555"/>
      <point x="170" y="611"/>
    </contour>
    <contour>
      <point x="237" y="573" type="curve" smooth="yes"/>
      <point x="191" y="573"/>
      <point x="153" y="534"/>
      <point x="153" y="487" type="curve" smooth="yes"/>
      <point x="153" y="440"/>
      <point x="191" y="401"/>
      <point x="238" y="401" type="curve" smooth="yes"/>
      <point x="283" y="401"/>
      <point x="322" y="440"/>
      <point x="322" y="486" type="curve" smooth="yes"/>
      <point x="322" y="535"/>
      <point x="285" y="573"/>
    </contour>
    <contour>
      <point x="495" y="344" type="curve" smooth="yes"/>
      <point x="116" y="222" type="line" smooth="yes"/>
      <point x="111" y="220"/>
      <point x="106" y="219"/>
      <point x="104" y="219" type="curve" smooth="yes"/>
      <point x="96" y="219"/>
      <point x="87" y="228"/>
      <point x="87" y="238" type="curve" smooth="yes"/>
      <point x="87" y="248"/>
      <point x="92" y="254"/>
      <point x="105" y="258" type="curve" smooth="yes"/>
      <point x="484" y="380" type="line" smooth="yes"/>
      <point x="488" y="381"/>
      <point x="492" y="382"/>
      <point x="496" y="382" type="curve" smooth="yes"/>
      <point x="505" y="382"/>
      <point x="513" y="373"/>
      <point x="513" y="363" type="curve" smooth="yes"/>
      <point x="513" y="354"/>
      <point x="508" y="348"/>
    </contour>
  </outline>
</glyph>
<glyph name="ampersand" format="1">
  <advance width="600"/>
  <unicode hex="0026"/>
  <outline>
    <contour>
      <point x="393" y="0" type="line"/>
      <point x="362" y="48" type="line"/>
      <point x="332" y="5"/>
      <point x="296" y="-16"/>
      <point x="250" y="-16" type="curve" smooth="yes"/>
      <point x="172" y="-16"/>
      <point x="105" y="57"/>
      <point x="105" y="142" type="curve" smooth="yes"/>
      <point x="105" y="211"/>
      <point x="147" y="266"/>
      <point x="216" y="287" type="curve"/>
      <point x="171" y="360"/>
      <point x="166" y="371"/>
      <point x="166" y="400" type="curve" smooth="yes"/>
      <point x="166" y="465"/>
      <point x="222" y="519"/>
      <point x="289" y="519" type="curve" smooth="yes"/>
      <point x="312" y="519"/>
      <point x="332" y="513"/>
      <point x="355" y="499" type="curve"/>
      <point x="365" y="505" type="line" smooth="yes"/>
      <point x="371" y="508"/>
      <point x="377" y="510"/>
      <point x="381" y="510" type="curve" smooth="yes"/>
      <point x="391" y="510"/>
      <point x="400" y="500"/>
      <point x="400" y="489" type="curve" smooth="yes"/>
      <point x="400" y="480"/>
      <point x="396" y="475"/>
      <point x="384" y="468" type="curve" smooth="yes"/>
      <point x="352" y="452" type="line"/>
      <point x="331" y="470"/>
      <point x="312" y="478"/>
      <point x="289" y="478" type="curve" smooth="yes"/>
      <point x="246" y="478"/>
      <point x="207" y="440"/>
      <point x="207" y="398" type="curve" smooth="yes"/>
      <point x="207" y="375"/>
      <point x="218" y="350"/>
      <point x="251" y="298" type="curve" smooth="yes"/>
      <point x="362" y="121" type="line"/>
      <point x="382" y="158"/>
      <point x="398" y="201"/>
      <point x="408" y="249" type="curve"/>
      <point x="451" y="249" type="line" smooth="yes"/>
      <point x="469" y="249"/>
      <point x="478" y="242"/>
      <point x="478" y="229" type="curve" smooth="yes"/>
      <point x="478" y="215"/>
      <point x="469" y="208"/>
      <point x="451" y="208" type="curve" smooth="yes"/>
      <point x="439" y="208" type="line"/>
      <point x="425" y="156"/>
      <point x="406" y="110"/>
      <point x="386" y="82" type="curve"/>
      <point x="413" y="41" type="line"/>
      <point x="451" y="41" type="line" smooth="yes"/>
      <point x="469" y="41"/>
      <point x="478" y="34"/>
      <point x="478" y="21" type="curve" smooth="yes"/>
      <point x="478" y="7"/>
      <point x="469" y="0"/>
      <point x="451" y="0" type="curve" smooth="yes"/>
    </contour>
    <contour>
      <point x="338" y="86" type="curve"/>
      <point x="233" y="251" type="line"/>
      <point x="180" y="239"/>
      <point x="146" y="197"/>
      <point x="146" y="142" type="curve" smooth="yes"/>
      <point x="146" y="79"/>
      <point x="194" y="25"/>
      <point x="249" y="25" type="curve" smooth="yes"/>
      <point x="284" y="25"/>
      <point x="316" y="47"/>
    </contour>
  </outline>
</glyph>
<glyph name="quotesingle" format="1">
  <advance width="600"/>
  <unicode hex="0027"/>
  <outline>
    <contour>
      <point x="236" y="604" type="line"/>
      <point x="364" y="604" type="line"/>
      <point x="330" y="351" type="line" smooth="yes"/>
      <point x="327" y="326"/>
      <point x="318" y="315"/>
      <point x="300" y="315" type="curve" smooth="yes"/>
      <point x="282" y="315"/>
      <point x="273" y="326"/>
      <point x="270" y="351" type="curve" smooth="yes"/>
    </contour>
  </outline>
</glyph>
<glyph name="parenleft" format="1">
  <advance width="600"/>
  <unicode hex="0028"/>
  <outline>
    <contour>
      <point x="438" y="604" type="curve" smooth="yes"/>
      <point x="449" y="604"/>
      <point x="458" y="595"/>
      <point x="458" y="584" type="curve" smooth="yes"/>
      <point x="458" y="580"/>
      <point x="457" y="578"/>
      <point x="455" y="573" type="curve" smooth="yes"/>
      <point x="386" y="451"/>
      <point x="355" y="347"/>
      <point x="355" y="240" type="curve" smooth="yes"/>
      <point x="355" y="133"/>
      <point x="386" y="31"/>
      <point x="455" y="-93" type="curve" smooth="yes"/>
      <point x="457" y="-98"/>
      <point x="458" y="-100"/>
      <point x="458" y="-104" type="curve" smooth="yes"/>
      <point x="458" y="-115"/>
      <point x="448" y="-124"/>
      <point x="437" y="-124" type="curve" smooth="yes"/>
      <point x="427" y="-124"/>
      <point x="418" y="-114"/>
      <point x="395" y="-77" type="curve" smooth="yes"/>
      <point x="327" y="36"/>
      <point x="294" y="140"/>
      <point x="294" y="243" type="curve" smooth="yes"/>
      <point x="294" y="343"/>
      <point x="333" y="460"/>
      <point x="404" y="570" type="curve" smooth="yes"/>
      <point x="421" y="597"/>
      <point x="428" y="604"/>
    </contour>
  </outline>
</glyph>
<glyph name="parenright" format="1">
  <advance width="600"/>
  <unicode hex="0029"/>
  <outline>
    <contour>
      <point x="168" y="604" type="curve" smooth="yes"/>
      <point x="178" y="604"/>
      <point x="187" y="595"/>
      <point x="210" y="557" type="curve" smooth="yes"/>
      <point x="278" y="445"/>
      <point x="311" y="340"/>
      <point x="311" y="237" type="curve" smooth="yes"/>
      <point x="311" y="137"/>
      <point x="272" y="20"/>
      <point x="201" y="-90" type="curve" smooth="yes"/>
      <point x="184" y="-117"/>
      <point x="177" y="-124"/>
      <point x="167" y="-124" type="curve" smooth="yes"/>
      <point x="156" y="-124"/>
      <point x="147" y="-115"/>
      <point x="147" y="-104" type="curve" smooth="yes"/>
      <point x="147" y="-100"/>
      <point x="148" y="-98"/>
      <point x="150" y="-93" type="curve" smooth="yes"/>
      <point x="219" y="29"/>
      <point x="250" y="133"/>
      <point x="250" y="240" type="curve" smooth="yes"/>
      <point x="250" y="348"/>
      <point x="220" y="448"/>
      <point x="150" y="573" type="curve" smooth="yes"/>
      <point x="148" y="578"/>
      <point x="147" y="580"/>
      <point x="147" y="584" type="curve" smooth="yes"/>
      <point x="147" y="595"/>
      <point x="157" y="604"/>
    </contour>
  </outline>
</glyph>
<glyph name="asterisk" format="1">
  <advance width="600"/>
  <unicode hex="002A"/>
  <outline>
    <contour>
      <point x="279" y="438" type="line"/>
      <point x="279" y="577" type="line" smooth="yes"/>
      <point x="279" y="595"/>
      <point x="286" y="604"/>
      <point x="300" y="604" type="curve" smooth="yes"/>
      <point x="313" y="604"/>
      <point x="320" y="595"/>
      <point x="320" y="577" type="curve" smooth="yes"/>
      <point x="320" y="438" type="line"/>
      <point x="453" y="481" type="line" smooth="yes"/>
      <point x="458" y="483"/>
      <point x="465" y="484"/>
      <point x="468" y="484" type="curve" smooth="yes"/>
      <point x="478" y="484"/>
      <point x="487" y="474"/>
      <point x="487" y="464" type="curve" smooth="yes"/>
      <point x="487" y="453"/>
      <point x="481" y="447"/>
      <point x="466" y="442" type="curve" smooth="yes"/>
      <point x="333" y="400" type="line"/>
      <point x="414" y="288" type="line" smooth="yes"/>
      <point x="418" y="281"/>
      <point x="421" y="275"/>
      <point x="421" y="270" type="curve" smooth="yes"/>
      <point x="421" y="259"/>
      <point x="412" y="250"/>
      <point x="401" y="250" type="curve" smooth="yes"/>
      <point x="393" y="250"/>
      <point x="389" y="253"/>
      <point x="381" y="264" type="curve" smooth="yes"/>
      <point x="299" y="376" type="line"/>
      <point x="218" y="264" type="line" smooth="yes"/>
      <point x="210" y="254"/>
      <point x="205" y="250"/>
      <point x="197" y="250" type="curve" smooth="yes"/>
      <point x="186" y="250"/>
      <point x="177" y="259"/>
      <point x="177" y="271" type="curve" smooth="yes"/>
      <point x="177" y="276"/>
      <point x="178" y="278"/>
      <point x="185" y="288" type="curve" smooth="yes"/>
      <point x="266" y="400" type="line"/>
      <point x="133" y="442" type="line"/>
      <point x="129" y="443" type="line" smooth="yes"/>
      <point x="121" y="444"/>
      <point x="113" y="453"/>
      <point x="113" y="463" type="curve" smooth="yes"/>
      <point x="113" y="474"/>
      <point x="122" y="483"/>
      <point x="133" y="483" type="curve" smooth="yes"/>
      <point x="137" y="483"/>
      <point x="139" y="482"/>
      <point x="146" y="480" type="curve" smooth="yes"/>
    </contour>
  </outline>
</glyph>
<glyph name="plus" format="1">
  <advance width="600"/>
  <unicode hex="002B"/>
  <outline>
    <contour>
      <point x="320" y="261" type="line"/>
      <point x="320" y="59" type="line" smooth="yes"/>
      <point x="320" y="41"/>
      <point x="313" y="32"/>
      <point x="300" y="32" type="curve" smooth="yes"/>
      <point x="286" y="32"/>
      <point x="279" y="41"/>
      <point x="279" y="59" type="curve" smooth="yes"/>
      <point x="279" y="261" type="line"/>
      <point x="99" y="261" type="line" smooth="yes"/>
      <point x="81" y="261"/>
      <point x="72" y="268"/>
      <point x="72" y="282" type="curve" smooth="yes"/>
      <point x="72" y="295"/>
      <point x="81" y="302"/>
      <point x="99" y="302" type="curve" smooth="yes"/>
      <point x="279" y="302" type="line"/>
      <point x="279" y="503" type="line" smooth="yes"/>
      <point x="279" y="521"/>
      <point x="286" y="530"/>
      <point x="300" y="530" type="curve" smooth="yes"/>
      <point x="313" y="530"/>
      <point x="320" y="521"/>
      <point x="320" y="503" type="curve" smooth="yes"/>
      <point x="320" y="302" type="line"/>
      <point x="500" y="302" type="line" smooth="yes"/>
      <point x="519" y="302"/>
      <point x="528" y="295"/>
      <point x="528" y="282" type="curve" smooth="yes"/>
      <point x="528" y="268"/>
      <point x="519" y="261"/>
      <point x="500" y="261" type="curve" smooth="yes"/>
    </contour>
  </outline>
</glyph>
<glyph name="comma" format="1">
  <advance width="600"/>
  <unicode hex="002C"/>
  <outline>
    <contour>
      <point x="207" y="145" type="line"/>
      <point x="340" y="145" type="line"/>
      <point x="195" y="-120" type="line" smooth="yes"/>
      <point x="185" y="-139"/>
      <point x="177" y="-145"/>
      <point x="164" y="-145" type="curve" smooth="yes"/>
      <point x="148" y="-145"/>
      <point x="135" y="-132"/>
      <point x="135" y="-116" type="curve" smooth="yes"/>
      <point x="135" y="-112"/>
      <point x="136" y="-109"/>
      <point x="137" y="-105" type="curve" smooth="yes"/>
    </contour>
  </outline>
</glyph>
<glyph name="hyphen" format="1">
  <advance width="600"/>
  <unicode hex="002D"/>
  <outline>
    <contour>
      <point x="501" y="258" type="curve" smooth="yes"/>
      <point x="99" y="258" type="line" smooth="yes"/>
      <point x="81" y="258"/>
      <point x="72" y="265"/>
      <point x="72" y="279" type="curve" smooth="yes"/>
      <point x="72" y="292"/>
      <point x="81" y="299"/>
      <point x="99" y="299" type="curve" smooth="yes"/>
      <point x="501" y="299" type="line" smooth="yes"/>
      <point x="519" y="299"/>
      <point x="528" y="292"/>
      <point x="528" y="279" type="curve" smooth="yes"/>
      <point x="528" y="265"/>
      <point x="519" y="258"/>
    </contour>
  </outline>
</glyph>
<glyph name="period" format="1">
  <advance width="600"/>
  <unicode hex="002E"/>
  <outline>
    <contour>
      <point x="295" y="116" type="curve" smooth="yes"/>
      <point x="305" y="116" type="line" smooth="yes"/>
      <point x="344" y="116"/>
      <point x="374" y="88"/>
      <point x="374" y="51" type="curve" smooth="yes"/>
      <point x="374" y="13"/>
      <point x="344" y="-15"/>
      <point x="305" y="-15" type="curve" smooth="yes"/>
      <point x="295" y="-15" type="line" smooth="yes"/>
      <point x="256" y="-15"/>
      <point x="226" y="14"/>
      <point x="226" y="51" type="curve" smooth="yes"/>
      <point x="226" y="88"/>
      <point x="256" y="116"/>
    </contour>
  </outline>
</glyph>
<glyph name="slash" format="1">
  <advance width="600"/>
  <unicode hex="002F"/>
  <outline>
    <contour>
      <point x="482" y="633" type="curve" smooth="yes"/>
      <point x="155" y="-63" type="line" smooth="yes"/>
      <point x="148" y="-77"/>
      <point x="143" y="-81"/>
      <point x="133" y="-81" type="curve" smooth="yes"/>
      <point x="123" y="-81"/>
      <point x="113" y="-72"/>
      <point x="113" y="-62" type="curve" smooth="yes"/>
      <point x="113" y="-58"/>
      <point x="114" y="-53"/>
      <point x="118" y="-46" type="curve" smooth="yes"/>
      <point x="445" y="650" type="line" smooth="yes"/>
      <point x="452" y="664"/>
      <point x="457" y="668"/>
      <point x="467" y="668" type="curve" smooth="yes"/>
      <point x="477" y="668"/>
      <point x="487" y="659"/>
      <point x="487" y="649" type="curve" smooth="yes"/>
      <point x="487" y="645"/>
      <point x="486" y="641"/>
    </contour>
  </outline>
</glyph>
<glyph name="zero" format="1">
  <advance width="600"/>
  <unicode hex="0030"/>
  <outline>
    <contour>
      <point x="487" y="351" type="curve" smooth="yes"/>
      <point x="487" y="251" type="line" smooth="yes"/>
      <point x="487" y="93"/>
      <point x="411" y="-15"/>
      <point x="300" y="-15" type="curve" smooth="yes"/>
      <point x="189" y="-15"/>
      <point x="113" y="93"/>
      <point x="113" y="251" type="curve" smooth="yes"/>
      <point x="113" y="351" type="line" smooth="yes"/>
      <point x="113" y="510"/>
      <point x="189" y="618"/>
      <point x="300" y="618" type="curve" smooth="yes"/>
      <point x="411" y="618"/>
      <point x="487" y="510"/>
    </contour>
    <contour>
      <point x="154" y="346" type="curve" smooth="yes"/>
      <point x="154" y="257" type="line" smooth="yes"/>
      <point x="154" y="193"/>
      <point x="172" y="125"/>
      <point x="202" y="79" type="curve" smooth="yes"/>
      <point x="224" y="45"/>
      <point x="258" y="26"/>
      <point x="300" y="26" type="curve" smooth="yes"/>
      <point x="342" y="26"/>
      <point x="376" y="45"/>
      <point x="398" y="79" type="curve" smooth="yes"/>
      <point x="428" y="125"/>
      <point x="446" y="193"/>
      <point x="446" y="257" type="curve" smooth="yes"/>
      <point x="446" y="346" type="line" smooth="yes"/>
      <point x="446" y="410"/>
      <point x="428" y="478"/>
      <point x="398" y="524" type="curve" smooth="yes"/>
      <point x="376" y="558"/>
      <point x="342" y="577"/>
      <point x="300" y="577" type="curve" smooth="yes"/>
      <point x="258" y="577"/>
      <point x="224" y="558"/>
      <point x="202" y="524" type="curve" smooth="yes"/>
      <point x="172" y="478"/>
      <point x="154" y="410"/>
    </contour>
  </outline>
</glyph>
<glyph name="one" format="1">
  <advance width="600"/>
  <unicode hex="0031"/>
  <outline>
    <contour>
      <point x="321" y="612" type="line"/>
      <point x="321" y="41" type="line"/>
      <point x="460" y="41" type="line" smooth="yes"/>
      <point x="478" y="41"/>
      <point x="487" y="34"/>
      <point x="487" y="21" type="curve" smooth="yes"/>
      <point x="487" y="7"/>
      <point x="478" y="0"/>
      <point x="460" y="0" type="curve" smooth="yes"/>
      <point x="141" y="0" type="line" smooth="yes"/>
      <point x="123" y="0"/>
      <point x="113" y="7"/>
      <point x="113" y="21" type="curve" smooth="yes"/>
      <point x="113" y="34"/>
      <point x="122" y="41"/>
      <point x="141" y="41" type="curve" smooth="yes"/>
      <point x="280" y="41" type="line"/>
      <point x="280" y="557" type="line"/>
      <point x="148" y="515" type="line" smooth="yes"/>
      <point x="144" y="514"/>
      <point x="136" y="512"/>
      <point x="134" y="512" type="curve" smooth="yes"/>
      <point x="125" y="512"/>
      <point x="115" y="522"/>
      <point x="115" y="532" type="curve" smooth="yes"/>
      <point x="115" y="543"/>
      <point x="120" y="549"/>
      <point x="136" y="554" type="curve" smooth="yes"/>
    </contour>
  </outline>
</glyph>
<glyph name="two" format="1">
  <advance width="600"/>
  <unicode hex="0032"/>
  <outline>
    <contour>
      <point x="123" y="41" type="line"/>
      <point x="437" y="41" type="line"/>
      <point x="437" y="77" type="line" smooth="yes"/>
      <point x="437" y="95"/>
      <point x="444" y="104"/>
      <point x="458" y="104" type="curve" smooth="yes"/>
      <point x="471" y="104"/>
      <point x="478" y="95"/>
      <point x="478" y="77" type="curve" smooth="yes"/>
      <point x="478" y="0" type="line"/>
      <point x="84" y="0" type="line"/>
      <point x="84" y="60" type="line"/>
      <point x="320" y="282" type="line"/>
      <point x="414" y="374"/>
      <point x="433" y="402"/>
      <point x="433" y="447" type="curve" smooth="yes"/>
      <point x="433" y="516"/>
      <point x="366" y="577"/>
      <point x="290" y="577" type="curve" smooth="yes"/>
      <point x="222" y="577"/>
      <point x="160" y="532"/>
      <point x="144" y="472" type="curve" smooth="yes"/>
      <point x="140" y="458"/>
      <point x="134" y="452"/>
      <point x="123" y="452" type="curve" smooth="yes"/>
      <point x="113" y="452"/>
      <point x="104" y="461"/>
      <point x="104" y="470" type="curve" smooth="yes"/>
      <point x="104" y="488"/>
      <point x="117" y="518"/>
      <point x="136" y="542" type="curve" smooth="yes"/>
      <point x="173" y="590"/>
      <point x="229" y="618"/>
      <point x="290" y="618" type="curve" smooth="yes"/>
      <point x="388" y="618"/>
      <point x="474" y="537"/>
      <point x="474" y="446" type="curve" smooth="yes"/>
      <point x="474" y="387"/>
      <point x="454" y="358"/>
      <point x="330" y="237" type="curve" smooth="yes"/>
      <point x="243" y="151"/>
      <point x="180" y="92"/>
      <point x="123" y="44" type="curve"/>
    </contour>
  </outline>
</glyph>
<glyph name="three" format="1">
  <advance width="600"/>
  <unicode hex="0033"/>
  <outline>
    <contour>
      <point x="374" y="328" type="curve"/>
      <point x="452" y="296"/>
      <point x="499" y="236"/>
      <point x="499" y="168" type="curve" smooth="yes"/>
      <point x="499" y="67"/>
      <point x="405" y="-15"/>
      <point x="290" y="-15" type="curve" smooth="yes"/>
      <point x="241" y="-15"/>
      <point x="194" y="-2"/>
      <point x="142" y="26" type="curve" smooth="yes"/>
      <point x="109" y="43"/>
      <point x="96" y="56"/>
      <point x="96" y="69" type="curve" smooth="yes"/>
      <point x="96" y="79"/>
      <point x="105" y="88"/>
      <point x="115" y="88" type="curve" smooth="yes"/>
      <point x="121" y="88"/>
      <point x="125" y="86"/>
      <point x="132" y="81" type="curve" smooth="yes"/>
      <point x="179" y="45"/>
      <point x="235" y="26"/>
      <point x="291" y="26" type="curve" smooth="yes"/>
      <point x="382" y="26"/>
      <point x="458" y="91"/>
      <point x="458" y="168" type="curve" smooth="yes"/>
      <point x="458" y="246"/>
      <point x="376" y="312"/>
      <point x="279" y="312" type="curve" smooth="yes"/>
      <point x="261" y="312"/>
      <point x="252" y="319"/>
      <point x="252" y="333" type="curve" smooth="yes"/>
      <point x="252" y="346"/>
      <point x="262" y="353"/>
      <point x="279" y="353" type="curve" smooth="yes"/>
      <point x="329" y="353"/>
      <point x="345" y="354"/>
      <point x="366" y="364" type="curve" smooth="yes"/>
      <point x="408" y="382"/>
      <point x="436" y="421"/>
      <point x="436" y="463" type="curve" smooth="yes"/>
      <point x="436" y="528"/>
      <point x="377" y="577"/>
      <point x="300" y="577" type="curve" smooth="yes"/>
      <point x="244" y="577"/>
      <point x="195" y="557"/>
      <point x="166" y="523" type="curve" smooth="yes"/>
      <point x="156" y="511"/>
      <point x="153" y="509"/>
      <point x="145" y="509" type="curve" smooth="yes"/>
      <point x="134" y="509"/>
      <point x="125" y="518"/>
      <point x="125" y="528" type="curve" smooth="yes"/>
      <point x="125" y="538"/>
      <point x="139" y="556"/>
      <point x="160" y="572" type="curve" smooth="yes"/>
      <point x="199" y="602"/>
      <point x="249" y="618"/>
      <point x="301" y="618" type="curve" smooth="yes"/>
      <point x="401" y="618"/>
      <point x="477" y="551"/>
      <point x="477" y="464" type="curve" smooth="yes"/>
      <point x="477" y="407"/>
      <point x="439" y="355"/>
      <point x="379" y="330" type="curve" smooth="yes"/>
      <point x="378" y="330"/>
      <point x="376" y="329"/>
    </contour>
  </outline>
</glyph>
<glyph name="four" format="1">
  <advance width="600"/>
  <unicode hex="0034"/>
  <outline>
    <contour>
      <point x="376" y="169" type="line"/>
      <point x="105" y="169" type="line"/>
      <point x="105" y="216" type="line"/>
      <point x="333" y="604" type="line"/>
      <point x="417" y="604" type="line"/>
      <point x="417" y="210" type="line"/>
      <point x="451" y="210" type="line" smooth="yes"/>
      <point x="469" y="210"/>
      <point x="478" y="203"/>
      <point x="478" y="189" type="curve" smooth="yes"/>
      <point x="478" y="176"/>
      <point x="469" y="169"/>
      <point x="451" y="169" type="curve" smooth="yes"/>
      <point x="417" y="169" type="line"/>
      <point x="417" y="41" type="line"/>
      <point x="451" y="41" type="line" smooth="yes"/>
      <point x="469" y="41"/>
      <point x="478" y="34"/>
      <point x="478" y="21" type="curve" smooth="yes"/>
      <point x="478" y="7"/>
      <point x="469" y="0"/>
      <point x="451" y="0" type="curve" smooth="yes"/>
      <point x="300" y="0" type="line" smooth="yes"/>
      <point x="282" y="0"/>
      <point x="273" y="7"/>
      <point x="273" y="21" type="curve" smooth="yes"/>
      <point x="273" y="34"/>
      <point x="282" y="41"/>
      <point x="300" y="41" type="curve" smooth="yes"/>
      <point x="376" y="41" type="line"/>
    </contour>
    <contour>
      <point x="376" y="210" type="line"/>
      <point x="376" y="563" type="line"/>
      <point x="352" y="563" type="line"/>
      <point x="144" y="210" type="line"/>
    </contour>
  </outline>
</glyph>
<glyph name="five" format="1">
  <advance width="600"/>
  <unicode hex="0035"/>
  <outline>
    <contour>
      <point x="190" y="563" type="line"/>
      <point x="190" y="365" type="line"/>
      <point x="241" y="386"/>
      <point x="278" y="395"/>
      <point x="322" y="395" type="curve" smooth="yes"/>
      <point x="424" y="395"/>
      <point x="499" y="313"/>
      <point x="499" y="201" type="curve" smooth="yes"/>
      <point x="499" y="75"/>
      <point x="414" y="-15"/>
      <point x="295" y="-15" type="curve" smooth="yes"/>
      <point x="242" y="-15"/>
      <point x="192" y="1"/>
      <point x="142" y="34" type="curve" smooth="yes"/>
      <point x="110" y="55"/>
      <point x="96" y="70"/>
      <point x="96" y="82" type="curve" smooth="yes"/>
      <point x="96" y="93"/>
      <point x="105" y="102"/>
      <point x="116" y="102" type="curve" smooth="yes"/>
      <point x="122" y="102"/>
      <point x="126" y="100"/>
      <point x="133" y="93" type="curve" smooth="yes"/>
      <point x="181" y="49"/>
      <point x="235" y="26"/>
      <point x="293" y="26" type="curve" smooth="yes"/>
      <point x="391" y="26"/>
      <point x="458" y="98"/>
      <point x="458" y="203" type="curve" smooth="yes"/>
      <point x="458" y="292"/>
      <point x="400" y="354"/>
      <point x="316" y="354" type="curve" smooth="yes"/>
      <point x="276" y="354"/>
      <point x="232" y="343"/>
      <point x="190" y="321" type="curve" smooth="yes"/>
      <point x="178" y="315"/>
      <point x="173" y="313"/>
      <point x="168" y="313" type="curve" smooth="yes"/>
      <point x="157" y="313"/>
      <point x="149" y="322"/>
      <point x="149" y="335" type="curve" smooth="yes"/>
      <point x="149" y="604" type="line"/>
      <point x="431" y="604" type="line" smooth="yes"/>
      <point x="450" y="604"/>
      <point x="459" y="597"/>
      <point x="459" y="584" type="curve" smooth="yes"/>
      <point x="459" y="570"/>
      <point x="450" y="563"/>
      <point x="431" y="563" type="curve" smooth="yes"/>
    </contour>
  </outline>
</glyph>
<glyph name="six" format="1">
  <advance width="600"/>
  <unicode hex="0036"/>
  <outline>
    <contour>
      <point x="177" y="242" type="curve"/>
      <point x="218" y="324"/>
      <point x="272" y="364"/>
      <point x="343" y="364" type="curve" smooth="yes"/>
      <point x="434" y="364"/>
      <point x="510" y="280"/>
      <point x="510" y="178" type="curve" smooth="yes"/>
      <point x="510" y="70"/>
      <point x="434" y="-15"/>
      <point x="337" y="-15" type="curve" smooth="yes"/>
      <point x="219" y="-15"/>
      <point x="136" y="107"/>
      <point x="136" y="282" type="curve" smooth="yes"/>
      <point x="136" y="398"/>
      <point x="171" y="484"/>
      <point x="245" y="547" type="curve" smooth="yes"/>
      <point x="298" y="593"/>
      <point x="363" y="618"/>
      <point x="428" y="618" type="curve" smooth="yes"/>
      <point x="471" y="618"/>
      <point x="507" y="602"/>
      <point x="507" y="583" type="curve" smooth="yes"/>
      <point x="507" y="572"/>
      <point x="499" y="563"/>
      <point x="488" y="563" type="curve" smooth="yes"/>
      <point x="483" y="563"/>
      <point x="479" y="564"/>
      <point x="471" y="569" type="curve" smooth="yes"/>
      <point x="461" y="574"/>
      <point x="443" y="577"/>
      <point x="424" y="577" type="curve" smooth="yes"/>
      <point x="348" y="577"/>
      <point x="269" y="530"/>
      <point x="220" y="455" type="curve" smooth="yes"/>
      <point x="192" y="411"/>
      <point x="175" y="349"/>
      <point x="175" y="285" type="curve" smooth="yes"/>
      <point x="175" y="276"/>
      <point x="176" y="261"/>
    </contour>
    <contour>
      <point x="183" y="188" type="curve"/>
      <point x="189" y="165"/>
      <point x="189" y="164"/>
      <point x="192" y="155" type="curve" smooth="yes"/>
      <point x="219" y="71"/>
      <point x="270" y="26"/>
      <point x="338" y="26" type="curve" smooth="yes"/>
      <point x="412" y="26"/>
      <point x="469" y="92"/>
      <point x="469" y="178" type="curve" smooth="yes"/>
      <point x="469" y="257"/>
      <point x="412" y="323"/>
      <point x="342" y="323" type="curve" smooth="yes"/>
      <point x="305" y="323"/>
      <point x="265" y="302"/>
      <point x="233" y="266" type="curve" smooth="yes"/>
      <point x="218" y="250"/>
      <point x="207" y="232"/>
    </contour>
  </outline>
</glyph>
<glyph name="seven" format="1">
  <advance width="600"/>
  <unicode hex="0037"/>
  <outline>
    <contour>
      <point x="437" y="545" type="line"/>
      <point x="437" y="563" type="line"/>
      <point x="146" y="563" type="line"/>
      <point x="146" y="528" type="line" smooth="yes"/>
      <point x="146" y="509"/>
      <point x="139" y="500"/>
      <point x="126" y="500" type="curve" smooth="yes"/>
      <point x="112" y="500"/>
      <point x="105" y="509"/>
      <point x="105" y="528" type="curve" smooth="yes"/>
      <point x="105" y="604" type="line"/>
      <point x="478" y="604" type="line"/>
      <point x="478" y="539" type="line"/>
      <point x="315" y="20" type="line" smooth="yes"/>
      <point x="310" y="4"/>
      <point x="305" y="-1"/>
      <point x="295" y="-1" type="curve" smooth="yes"/>
      <point x="284" y="-1"/>
      <point x="275" y="8"/>
      <point x="275" y="19" type="curve" smooth="yes"/>
      <point x="275" y="22"/>
      <point x="276" y="28"/>
      <point x="277" y="32" type="curve" smooth="yes"/>
    </contour>
  </outline>
</glyph>
<glyph name="eight" format="1">
  <advance width="600"/>
  <unicode hex="0038"/>
  <outline>
    <contour>
      <point x="375" y="313" type="curve"/>
      <point x="448" y="280"/>
      <point x="487" y="227"/>
      <point x="487" y="161" type="curve" smooth="yes"/>
      <point x="487" y="64"/>
      <point x="403" y="-15"/>
      <point x="300" y="-15" type="curve" smooth="yes"/>
      <point x="197" y="-15"/>
      <point x="113" y="64"/>
      <point x="113" y="161" type="curve" smooth="yes"/>
      <point x="113" y="227"/>
      <point x="152" y="279"/>
      <point x="225" y="313" type="curve"/>
      <point x="155" y="349"/>
      <point x="123" y="392"/>
      <point x="123" y="453" type="curve" smooth="yes"/>
      <point x="123" y="543"/>
      <point x="204" y="618"/>
      <point x="300" y="618" type="curve" smooth="yes"/>
      <point x="396" y="618"/>
      <point x="477" y="543"/>
      <point x="477" y="453" type="curve" smooth="yes"/>
      <point x="477" y="392"/>
      <point x="446" y="349"/>
    </contour>
    <contour>
      <point x="300" y="577" type="curve" smooth="yes"/>
      <point x="224" y="577"/>
      <point x="164" y="521"/>
      <point x="164" y="451" type="curve" smooth="yes"/>
      <point x="164" y="385"/>
      <point x="224" y="333"/>
      <point x="300" y="333" type="curve" smooth="yes"/>
      <point x="375" y="333"/>
      <point x="436" y="385"/>
      <point x="436" y="450" type="curve" smooth="yes"/>
      <point x="436" y="521"/>
      <point x="376" y="577"/>
    </contour>
    <contour>
      <point x="300" y="293" type="curve" smooth="yes"/>
      <point x="218" y="293"/>
      <point x="154" y="235"/>
      <point x="154" y="161" type="curve" smooth="yes"/>
      <point x="154" y="86"/>
      <point x="219" y="26"/>
      <point x="300" y="26" type="curve" smooth="yes"/>
      <point x="380" y="26"/>
      <point x="446" y="86"/>
      <point x="446" y="160" type="curve" smooth="yes"/>
      <point x="446" y="236"/>
      <point x="383" y="293"/>
    </contour>
  </outline>
</glyph>
<glyph name="nine" format="1">
  <advance width="600"/>
  <unicode hex="0039"/>
  <outline>
    <contour>
      <point x="469" y="361" type="curve"/>
      <point x="428" y="279"/>
      <point x="374" y="239"/>
      <point x="303" y="239" type="curve" smooth="yes"/>
      <point x="212" y="239"/>
      <point x="136" y="323"/>
      <point x="136" y="425" type="curve" smooth="yes"/>
      <point x="136" y="533"/>
      <point x="212" y="618"/>
      <point x="309" y="618" type="curve" smooth="yes"/>
      <point x="427" y="618"/>
      <point x="510" y="496"/>
      <point x="510" y="321" type="curve" smooth="yes"/>
      <point x="510" y="205"/>
      <point x="475" y="119"/>
      <point x="401" y="56" type="curve" smooth="yes"/>
      <point x="348" y="10"/>
      <point x="283" y="-15"/>
      <point x="218" y="-15" type="curve" smooth="yes"/>
      <point x="175" y="-15"/>
      <point x="139" y="1"/>
      <point x="139" y="20" type="curve" smooth="yes"/>
      <point x="139" y="31"/>
      <point x="147" y="40"/>
      <point x="158" y="40" type="curve" smooth="yes"/>
      <point x="163" y="40"/>
      <point x="167" y="39"/>
      <point x="175" y="34" type="curve" smooth="yes"/>
      <point x="185" y="29"/>
      <point x="203" y="26"/>
      <point x="222" y="26" type="curve" smooth="yes"/>
      <point x="298" y="26"/>
      <point x="377" y="73"/>
      <point x="426" y="148" type="curve" smooth="yes"/>
      <point x="454" y="192"/>
      <point x="471" y="254"/>
      <point x="471" y="318" type="curve" smooth="yes"/>
      <point x="471" y="327"/>
      <point x="470" y="342"/>
    </contour>
    <contour>
      <point x="463" y="415" type="curve"/>
      <point x="457" y="438"/>
      <point x="457" y="439"/>
      <point x="454" y="448" type="curve" smooth="yes"/>
      <point x="427" y="532"/>
      <point x="376" y="577"/>
      <point x="308" y="577" type="curve" smooth="yes"/>
      <point x="234" y="577"/>
      <point x="177" y="511"/>
      <point x="177" y="425" type="curve" smooth="yes"/>
      <point x="177" y="346"/>
      <point x="234" y="280"/>
      <point x="304" y="280" type="curve" smooth="yes"/>
      <point x="341" y="280"/>
      <point x="381" y="301"/>
      <point x="413" y="337" type="curve" smooth="yes"/>
      <point x="428" y="353"/>
      <point x="439" y="371"/>
    </contour>
  </outline>
</glyph>
<glyph name="colon" format="1">
  <advance width="600"/>
  <unicode hex="003A"/>
  <outline>
    <contour>
      <point x="295" y="116" type="curve" smooth="yes"/>
      <point x="305" y="116" type="line" smooth="yes"/>
      <point x="344" y="116"/>
      <point x="374" y="88"/>
      <point x="374" y="51" type="curve" smooth="yes"/>
      <point x="374" y="13"/>
      <point x="344" y="-15"/>
      <point x="305" y="-15" type="curve" smooth="yes"/>
      <point x="295" y="-15" type="line" smooth="yes"/>
      <point x="256" y="-15"/>
      <point x="226" y="14"/>
      <point x="226" y="51" type="curve" smooth="yes"/>
      <point x="226" y="88"/>
      <point x="256" y="116"/>
    </contour>
    <contour>
      <point x="295" y="417" type="curve" smooth="yes"/>
      <point x="305" y="417" type="line" smooth="yes"/>
      <point x="344" y="417"/>
      <point x="374" y="388"/>
      <point x="374" y="351" type="curve" smooth="yes"/>
      <point x="374" y="314"/>
      <point x="344" y="285"/>
      <point x="305" y="285" type="curve" smooth="yes"/>
      <point x="295" y="285" type="line" smooth="yes"/>
      <point x="256" y="285"/>
      <point x="226" y="314"/>
      <point x="226" y="351" type="curve" smooth="yes"/>
      <point x="226" y="388"/>
      <point x="256" y="417"/>
    </contour>
  </outline>
</glyph>
<glyph name="semicolon" format="1">
  <advance width="600"/>
  <unicode hex="003B"/>
  <outline>
    <contour>
      <point x="211" y="145" type="line"/>
      <point x="344" y="145" type="line"/>
      <point x="199" y="-120" type="line" smooth="yes"/>
      <point x="189" y="-139"/>
      <point x="181" y="-145"/>
      <point x="168" y="-145" type="curve" smooth="yes"/>
      <point x="152" y="-145"/>
      <point x="139" y="-132"/>
      <point x="139" y="-116" type="curve" smooth="yes"/>
      <point x="139" y="-112"/>
      <point x="140" y="-109"/>
      <point x="141" y="-105" type="curve" smooth="yes"/>
    </contour>
    <contour>
      <point x="271" y="417" type="curve" smooth="yes"/>
      <point x="281" y="417" type="line" smooth="yes"/>
      <point x="320" y="417"/>
      <point x="350" y="388"/>
      <point x="350" y="351" type="curve" smooth="yes"/>
      <point x="350" y="314"/>
      <point x="320" y="285"/>
      <point x="281" y="285" type="curve" smooth="yes"/>
      <point x="271" y="285" type="line" smooth="yes"/>
      <point x="232" y="285"/>
      <point x="202" y="314"/>
      <point x="202" y="351" type="curve" smooth="yes"/>
      <point x="202" y="388"/>
      <point x="232" y="417"/>
    </contour>
  </outline>
</glyph>
<glyph name="less" format="1">
  <advance width="600"/>
  <unicode hex="003C"/>
  <outline>
    <contour>
      <point x="72" y="281" type="line"/>
      <point x="490" y="513" type="line" smooth="yes"/>
      <point x="495" y="516"/>
      <point x="499" y="518"/>
      <point x="502" y="518" type="curve" smooth="yes"/>
      <point x="508" y="518"/>
      <point x="514" y="514"/>
      <point x="518" y="508" type="curve"/>
      <point x="519" y="505" type="line" smooth="yes"/>
      <point x="521" y="502"/>
      <point x="522" y="499"/>
      <point x="522" y="496" type="curve" smooth="yes"/>
      <point x="522" y="488"/>
      <point x="518" y="483"/>
      <point x="509" y="478" type="curve" smooth="yes"/>
      <point x="154" y="281" type="line"/>
      <point x="509" y="84" type="line" smooth="yes"/>
      <point x="518" y="79"/>
      <point x="522" y="73"/>
      <point x="522" y="67" type="curve" smooth="yes"/>
      <point x="522" y="64"/>
      <point x="521" y="60"/>
      <point x="519" y="57" type="curve" smooth="yes"/>
      <point x="517" y="54" type="line" smooth="yes"/>
      <point x="514" y="48"/>
      <point x="508" y="44"/>
      <point x="502" y="44" type="curve" smooth="yes"/>
      <point x="499" y="44"/>
      <point x="494" y="46"/>
      <point x="489" y="49" type="curve" smooth="yes"/>
    </contour>
  </outline>
</glyph>
<glyph name="equal" format="1">
  <advance width="600"/>
  <unicode hex="003D"/>
  <outline>
    <contour>
      <point x="522" y="334" type="curve" smooth="yes"/>
      <point x="78" y="334" type="line" smooth="yes"/>
      <point x="60" y="334"/>
      <point x="51" y="341"/>
      <point x="51" y="355" type="curve" smooth="yes"/>
      <point x="51" y="368"/>
      <point x="60" y="375"/>
      <point x="78" y="375" type="curve" smooth="yes"/>
      <point x="522" y="375" type="line" smooth="yes"/>
      <point x="540" y="375"/>
      <point x="549" y="368"/>
      <point x="549" y="355" type="curve" smooth="yes"/>
      <point x="549" y="341"/>
      <point x="540" y="334"/>
    </contour>
    <contour>
      <point x="522" y="190" type="curve" smooth="yes"/>
      <point x="78" y="190" type="line" smooth="yes"/>
      <point x="60" y="190"/>
      <point x="51" y="197"/>
      <point x="51" y="211" type="curve" smooth="yes"/>
      <point x="51" y="224"/>
      <point x="60" y="231"/>
      <point x="78" y="231" type="curve" smooth="yes"/>
      <point x="522" y="231" type="line" smooth="yes"/>
      <point x="540" y="231"/>
      <point x="549" y="224"/>
      <point x="549" y="211" type="curve" smooth="yes"/>
      <point x="549" y="197"/>
      <point x="540" y="190"/>
    </contour>
  </outline>
</glyph>
<glyph name="greater" format="1">
  <advance width="600"/>
  <unicode hex="003E"/>
  <outline>
    <contour>
      <point x="528" y="281" type="line"/>
      <point x="110" y="49" type="line" smooth="yes"/>
      <point x="105" y="46"/>
      <point x="101" y="44"/>
      <point x="98" y="44" type="curve" smooth="yes"/>
      <point x="92" y="44"/>
      <point x="85" y="48"/>
      <point x="82" y="54" type="curve" smooth="yes"/>
      <point x="81" y="57" type="line" smooth="yes"/>
      <point x="79" y="60"/>
      <point x="78" y="63"/>
      <point x="78" y="67" type="curve" smooth="yes"/>
      <point x="78" y="74"/>
      <point x="82" y="79"/>
      <point x="91" y="84" type="curve" smooth="yes"/>
      <point x="446" y="281" type="line"/>
      <point x="91" y="478" type="line" smooth="yes"/>
      <point x="82" y="483"/>
      <point x="78" y="489"/>
      <point x="78" y="496" type="curve" smooth="yes"/>
      <point x="78" y="499"/>
      <point x="79" y="502"/>
      <point x="81" y="505" type="curve" smooth="yes"/>
      <point x="83" y="508" type="line" smooth="yes"/>
      <point x="86" y="514"/>
      <point x="92" y="518"/>
      <point x="98" y="518" type="curve" smooth="yes"/>
      <point x="101" y="518"/>
      <point x="106" y="516"/>
      <point x="111" y="513" type="curve" smooth="yes"/>
    </contour>
  </outline>
</glyph>
<glyph name="question" format="1">
  <advance width="600"/>
  <unicode hex="003F"/>
  <outline>
    <contour>
      <point x="322" y="247" type="curve"/>
      <point x="322" y="206" type="line" smooth="yes"/>
      <point x="322" y="188"/>
      <point x="315" y="179"/>
      <point x="302" y="179" type="curve" smooth="yes"/>
      <point x="288" y="179"/>
      <point x="281" y="188"/>
      <point x="281" y="206" type="curve" smooth="yes"/>
      <point x="281" y="274" type="line"/>
      <point x="397" y="323"/>
      <point x="446" y="366"/>
      <point x="446" y="423" type="curve" smooth="yes"/>
      <point x="446" y="489"/>
      <point x="387" y="536"/>
      <point x="304" y="536" type="curve" smooth="yes"/>
      <point x="259" y="536"/>
      <point x="227" y="528"/>
      <point x="175" y="502" type="curve"/>
      <point x="175" y="461" type="line" smooth="yes"/>
      <point x="175" y="443"/>
      <point x="168" y="434"/>
      <point x="155" y="434" type="curve" smooth="yes"/>
      <point x="141" y="434"/>
      <point x="134" y="443"/>
      <point x="134" y="461" type="curve" smooth="yes"/>
      <point x="134" y="529" type="line"/>
      <point x="143" y="532"/>
      <point x="155" y="538"/>
      <point x="163" y="541" type="curve" smooth="yes"/>
      <point x="226" y="569"/>
      <point x="258" y="577"/>
      <point x="309" y="577" type="curve" smooth="yes"/>
      <point x="415" y="577"/>
      <point x="487" y="515"/>
      <point x="487" y="423" type="curve" smooth="yes"/>
      <point x="487" y="349"/>
      <point x="447" y="306"/>
    </contour>
    <contour>
      <point x="287" y="85" type="curve" smooth="yes"/>
      <point x="314" y="85" type="line" smooth="yes"/>
      <point x="348" y="85"/>
      <point x="371" y="65"/>
      <point x="371" y="35" type="curve" smooth="yes"/>
      <point x="371" y="6"/>
      <point x="348" y="-15"/>
      <point x="314" y="-15" type="curve" smooth="yes"/>
      <point x="287" y="-15" type="line" smooth="yes"/>
      <point x="253" y="-15"/>
      <point x="230" y="5"/>
      <point x="230" y="35" type="curve" smooth="yes"/>
      <point x="230" y="65"/>
      <point x="253" y="85"/>
    </contour>
  </outline>
</glyph>
<glyph name="at" format="1">
  <advance width="600"/>
  <unicode hex="0040"/>
  <outline>
    <contour>
      <point x="418" y="145" type="line"/>
      <point x="418" y="150" type="line"/>
      <point x="398" y="148"/>
      <point x="388" y="147"/>
      <point x="378" y="147" type="curve" smooth="yes"/>
      <point x="300" y="147"/>
      <point x="242" y="201"/>
      <point x="242" y="272" type="curve" smooth="yes"/>
      <point x="242" y="356"/>
      <point x="316" y="417"/>
      <point x="418" y="416" type="curve"/>
      <point x="418" y="463" type="line" smooth="yes"/>
      <point x="418" y="533"/>
      <point x="369" y="583"/>
      <point x="301" y="583" type="curve" smooth="yes"/>
      <point x="210" y="583"/>
      <point x="146" y="490"/>
      <point x="146" y="358" type="curve" smooth="yes"/>
      <point x="146" y="198" type="line" smooth="yes"/>
      <point x="146" y="138"/>
      <point x="163" y="81"/>
      <point x="193" y="36" type="curve" smooth="yes"/>
      <point x="220" y="-3"/>
      <point x="255" y="-21"/>
      <point x="305" y="-21" type="curve" smooth="yes"/>
      <point x="348" y="-21"/>
      <point x="389" y="-9"/>
      <point x="410" y="9" type="curve" smooth="yes"/>
      <point x="421" y="19"/>
      <point x="422" y="20"/>
      <point x="429" y="20" type="curve" smooth="yes"/>
      <point x="440" y="20"/>
      <point x="449" y="11"/>
      <point x="449" y="1" type="curve" smooth="yes"/>
      <point x="449" y="-30"/>
      <point x="373" y="-62"/>
      <point x="299" y="-62" type="curve" smooth="yes"/>
      <point x="239" y="-62"/>
      <point x="195" y="-38"/>
      <point x="159" y="13" type="curve" smooth="yes"/>
      <point x="123" y="65"/>
      <point x="105" y="127"/>
      <point x="105" y="198" type="curve" smooth="yes"/>
      <point x="105" y="361" type="line" smooth="yes"/>
      <point x="105" y="513"/>
      <point x="187" y="624"/>
      <point x="300" y="624" type="curve" smooth="yes"/>
      <point x="391" y="624"/>
      <point x="459" y="555"/>
      <point x="459" y="463" type="curve" smooth="yes"/>
      <point x="459" y="186" type="line"/>
      <point x="471" y="184"/>
      <point x="478" y="177"/>
      <point x="478" y="166" type="curve" smooth="yes"/>
      <point x="478" y="152"/>
      <point x="469" y="145"/>
      <point x="451" y="145" type="curve" smooth="yes"/>
    </contour>
    <contour>
      <point x="418" y="192" type="curve"/>
      <point x="418" y="376" type="line"/>
      <point x="340" y="376"/>
      <point x="283" y="333"/>
      <point x="283" y="273" type="curve" smooth="yes"/>
      <point x="283" y="223"/>
      <point x="323" y="188"/>
      <point x="381" y="188" type="curve" smooth="yes"/>
      <point x="392" y="188"/>
      <point x="406" y="189"/>
    </contour>
  </outline>
</glyph>
<glyph name="B" format="1">
  <advance width="600"/>
  <unicode hex="0042"/>
  <outline>
    <contour>
      <point x="124" y="41" type="line"/>
      <point x="124" y="522" type="line"/>
      <point x="70" y="522" type="line" smooth="yes"/>
      <point x="52" y="522"/>
      <point x="43" y="529"/>
      <point x="43" y="543" type="curve" smooth="yes"/>
      <point x="43" y="556"/>
      <point x="52" y="563"/>
      <point x="70" y="563" type="curve" smooth="yes"/>
      <point x="328" y="563" type="line" smooth="yes"/>
      <point x="425" y="563"/>
      <point x="499" y="500"/>
      <point x="499" y="418" type="curve" smooth="yes"/>
      <point x="499" y="367"/>
      <point x="473" y="330"/>
      <point x="414" y="298" type="curve"/>
      <point x="498" y="268"/>
      <point x="541" y="220"/>
      <point x="541" y="153" type="curve" smooth="yes"/>
      <point x="541" y="69"/>
      <point x="467" y="0"/>
      <point x="376" y="0" type="curve" smooth="yes"/>
      <point x="70" y="0" type="line" smooth="yes"/>
      <point x="52" y="0"/>
      <point x="43" y="7"/>
      <point x="43" y="21" type="curve" smooth="yes"/>
      <point x="43" y="34"/>
      <point x="52" y="41"/>
      <point x="70" y="41" type="curve" smooth="yes"/>
    </contour>
    <contour>
      <point x="165" y="313" type="line"/>
      <point x="312" y="313" type="line" smooth="yes"/>
      <point x="397" y="313"/>
      <point x="458" y="357"/>
      <point x="458" y="419" type="curve" smooth="yes"/>
      <point x="458" y="477"/>
      <point x="402" y="522"/>
      <point x="329" y="522" type="curve" smooth="yes"/>
      <point x="165" y="522" type="line"/>
    </contour>
    <contour>
      <point x="165" y="41" type="line"/>
      <point x="373" y="41" type="line" smooth="yes"/>
      <point x="444" y="41"/>
      <point x="500" y="91"/>
      <point x="500" y="153" type="curve" smooth="yes"/>
      <point x="500" y="189"/>
      <point x="478" y="224"/>
      <point x="441" y="246" type="curve" smooth="yes"/>
      <point x="409" y="265"/>
      <point x="375" y="272"/>
      <point x="314" y="272" type="curve" smooth="yes"/>
      <point x="165" y="272" type="line"/>
    </contour>
  </outline>
</glyph>
<glyph name="C" format="1">
  <advance width="600"/>
  <unicode hex="0043"/>
  <outline>
    <contour>
      <point x="478" y="507" type="curve"/>
      <point x="478" y="536" type="line" smooth="yes"/>
      <point x="478" y="554"/>
      <point x="485" y="563"/>
      <point x="499" y="563" type="curve" smooth="yes"/>
      <point x="512" y="563"/>
      <point x="519" y="554"/>
      <point x="519" y="536" type="curve" smooth="yes"/>
      <point x="519" y="424" type="line" smooth="yes"/>
      <point x="519" y="406"/>
      <point x="512" y="397"/>
      <point x="498" y="397" type="curve" smooth="yes"/>
      <point x="486" y="397"/>
      <point x="479" y="405"/>
      <point x="478" y="421" type="curve" smooth="yes"/>
      <point x="474" y="482"/>
      <point x="394" y="535"/>
      <point x="305" y="535" type="curve" smooth="yes"/>
      <point x="194" y="535"/>
      <point x="104" y="438"/>
      <point x="104" y="319" type="curve" smooth="yes"/>
      <point x="104" y="248" type="line" smooth="yes"/>
      <point x="104" y="128"/>
      <point x="204" y="25"/>
      <point x="322" y="25" type="curve" smooth="yes"/>
      <point x="391" y="25"/>
      <point x="442" y="51"/>
      <point x="496" y="115" type="curve" smooth="yes"/>
      <point x="503" y="123"/>
      <point x="507" y="125"/>
      <point x="514" y="125" type="curve" smooth="yes"/>
      <point x="526" y="125"/>
      <point x="534" y="117"/>
      <point x="534" y="106" type="curve" smooth="yes"/>
      <point x="534" y="96"/>
      <point x="522" y="79"/>
      <point x="496" y="55" type="curve" smooth="yes"/>
      <point x="447" y="9"/>
      <point x="386" y="-16"/>
      <point x="322" y="-16" type="curve" smooth="yes"/>
      <point x="186" y="-16"/>
      <point x="63" y="107"/>
      <point x="63" y="242" type="curve" smooth="yes"/>
      <point x="63" y="325" type="line" smooth="yes"/>
      <point x="63" y="386"/>
      <point x="91" y="456"/>
      <point x="134" y="502" type="curve" smooth="yes"/>
      <point x="179" y="550"/>
      <point x="238" y="576"/>
      <point x="305" y="576" type="curve" smooth="yes"/>
      <point x="371" y="576"/>
      <point x="431" y="552"/>
    </contour>
  </outline>
</glyph>
<glyph name="D" format="1">
  <advance width="600"/>
  <unicode hex="0044"/>
  <outline>
    <contour>
      <point x="104" y="41" type="line"/>
      <point x="104" y="522" type="line"/>
      <point x="70" y="522" type="line" smooth="yes"/>
      <point x="52" y="522"/>
      <point x="43" y="529"/>
      <point x="43" y="543" type="curve" smooth="yes"/>
      <point x="43" y="556"/>
      <point x="52" y="563"/>
      <point x="70" y="563" type="curve" smooth="yes"/>
      <point x="290" y="563" type="line" smooth="yes"/>
      <point x="419" y="563"/>
      <point x="520" y="451"/>
      <point x="520" y="310" type="curve" smooth="yes"/>
      <point x="520" y="254" type="line" smooth="yes"/>
      <point x="520" y="112"/>
      <point x="419" y="0"/>
      <point x="290" y="0" type="curve" smooth="yes"/>
      <point x="70" y="0" type="line" smooth="yes"/>
      <point x="52" y="0"/>
      <point x="43" y="7"/>
      <point x="43" y="21" type="curve" smooth="yes"/>
      <point x="43" y="34"/>
      <point x="52" y="41"/>
      <point x="70" y="41" type="curve" smooth="yes"/>
    </contour>
    <contour>
      <point x="145" y="41" type="line"/>
      <point x="295" y="41" type="line" smooth="yes"/>
      <point x="391" y="41"/>
      <point x="479" y="139"/>
      <point x="479" y="245" type="curve" smooth="yes"/>
      <point x="479" y="318" type="line" smooth="yes"/>
      <point x="479" y="371"/>
      <point x="454" y="431"/>
      <point x="414" y="472" type="curve" smooth="yes"/>
      <point x="379" y="507"/>
      <point x="342" y="522"/>
      <point x="288" y="522" type="curve" smooth="yes"/>
      <point x="145" y="522" type="line"/>
    </contour>
  </outline>
</glyph>
<glyph name="H" format="1">
  <advance width="600"/>
  <unicode hex="0048"/>
  <outline>
    <contour>
      <point x="437" y="272" type="line"/>
      <point x="167" y="272" type="line"/>
      <point x="167" y="41" type="line"/>
      <point x="221" y="41" type="line" smooth="yes"/>
      <point x="239" y="41"/>
      <point x="248" y="34"/>
      <point x="248" y="21" type="curve" smooth="yes"/>
      <point x="248" y="7"/>
      <point x="239" y="0"/>
      <point x="221" y="0" type="curve" smooth="yes"/>
      <point x="81" y="0" type="line" smooth="yes"/>
      <point x="63" y="0"/>
      <point x="53" y="7"/>
      <point x="53" y="21" type="curve" smooth="yes"/>
      <point x="53" y="34"/>
      <point x="62" y="41"/>
      <point x="81" y="41" type="curve" smooth="yes"/>
      <point x="126" y="41" type="line"/>
      <point x="126" y="522" type="line"/>
      <point x="101" y="522" type="line" smooth="yes"/>
      <point x="83" y="522"/>
      <point x="74" y="529"/>
      <point x="74" y="543" type="curve" smooth="yes"/>
      <point x="74" y="556"/>
      <point x="83" y="563"/>
      <point x="101" y="563" type="curve" smooth="yes"/>
      <point x="221" y="563" type="line" smooth="yes"/>
      <point x="239" y="563"/>
      <point x="248" y="556"/>
      <point x="248" y="543" type="curve" smooth="yes"/>
      <point x="248" y="529"/>
      <point x="239" y="522"/>
      <point x="221" y="522" type="curve" smooth="yes"/>
      <point x="167" y="522" type="line"/>
      <point x="167" y="313" type="line"/>
      <point x="437" y="313" type="line"/>
      <point x="437" y="522" type="line"/>
      <point x="383" y="522" type="line" smooth="yes"/>
      <point x="365" y="522"/>
      <point x="356" y="529"/>
      <point x="356" y="543" type="curve" smooth="yes"/>
      <point x="356" y="556"/>
      <point x="365" y="563"/>
      <point x="383" y="563" type="curve" smooth="yes"/>
      <point x="503" y="563" type="line" smooth="yes"/>
      <point x="521" y="563"/>
      <point x="530" y="556"/>
      <point x="530" y="543" type="curve" smooth="yes"/>
      <point x="530" y="529"/>
      <point x="521" y="522"/>
      <point x="503" y="522" type="curve" smooth="yes"/>
      <point x="478" y="522" type="line"/>
      <point x="478" y="41" type="line"/>
      <point x="524" y="41" type="line" smooth="yes"/>
      <point x="542" y="41"/>
      <point x="551" y="34"/>
      <point x="551" y="21" type="curve" smooth="yes"/>
      <point x="551" y="7"/>
      <point x="541" y="0"/>
      <point x="524" y="0" type="curve" smooth="yes"/>
      <point x="383" y="0" type="line" smooth="yes"/>
      <point x="365" y="0"/>
      <point x="356" y="7"/>
      <point x="356" y="21" type="curve" smooth="yes"/>
      <point x="356" y="34"/>
      <point x="365" y="41"/>
      <point x="383" y="41" type="curve" smooth="yes"/>
      <point x="437" y="41" type="line"/>
    </contour>
  </outline>
</glyph>
<glyph name="I" format="1">
  <advance width="600"/>
  <unicode hex="0049"/>
  <outline>
    <contour>
      <point x="320" y="522" type="line"/>
      <point x="320" y="41" type="line"/>
      <point x="459" y="41" type="line" smooth="yes"/>
      <point x="478" y="41"/>
      <point x="487" y="34"/>
      <point x="487" y="21" type="curve" smooth="yes"/>
      <point x="487" y="7"/>
      <point x="477" y="0"/>
      <point x="459" y="0" type="curve" smooth="yes"/>
      <point x="140" y="0" type="line" smooth="yes"/>
      <point x="122" y="0"/>
      <point x="113" y="7"/>
      <point x="113" y="21" type="curve" smooth="yes"/>
      <point x="113" y="34"/>
      <point x="122" y="41"/>
      <point x="140" y="41" type="curve" smooth="yes"/>
      <point x="279" y="41" type="line"/>
      <point x="279" y="522" type="line"/>
      <point x="140" y="522" type="line" smooth="yes"/>
      <point x="122" y="522"/>
      <point x="113" y="529"/>
      <point x="113" y="543" type="curve" smooth="yes"/>
      <point x="113" y="556"/>
      <point x="122" y="563"/>
      <point x="140" y="563" type="curve" smooth="yes"/>
      <point x="459" y="563" type="line" smooth="yes"/>
      <point x="478" y="563"/>
      <point x="487" y="556"/>
      <point x="487" y="543" type="curve" smooth="yes"/>
      <point x="487" y="529"/>
      <point x="478" y="522"/>
      <point x="459" y="522" type="curve" smooth="yes"/>
    </contour>
  </outline>
</glyph>
<glyph name="J" format="1">
  <advance width="600"/>
  <unicode hex="004A"/>
  <outline>
    <contour>
      <point x="460" y="522" type="line"/>
      <point x="460" y="165" type="line" smooth="yes"/>
      <point x="460" y="66"/>
      <point x="375" y="-16"/>
      <point x="272" y="-16" type="curve" smooth="yes"/>
      <point x="208" y="-16"/>
      <point x="156" y="9"/>
      <point x="84" y="74" type="curve"/>
      <point x="84" y="223" type="line" smooth="yes"/>
      <point x="84" y="241"/>
      <point x="91" y="250"/>
      <point x="105" y="250" type="curve" smooth="yes"/>
      <point x="118" y="250"/>
      <point x="125" y="241"/>
      <point x="125" y="223" type="curve" smooth="yes"/>
      <point x="125" y="93" type="line"/>
      <point x="176" y="47"/>
      <point x="223" y="25"/>
      <point x="273" y="25" type="curve" smooth="yes"/>
      <point x="354" y="25"/>
      <point x="419" y="87"/>
      <point x="419" y="165" type="curve" smooth="yes"/>
      <point x="419" y="522" type="line"/>
      <point x="260" y="522" type="line" smooth="yes"/>
      <point x="242" y="522"/>
      <point x="233" y="529"/>
      <point x="233" y="543" type="curve" smooth="yes"/>
      <point x="233" y="556"/>
      <point x="242" y="563"/>
      <point x="260" y="563" type="curve" smooth="yes"/>
      <point x="556" y="563" type="line" smooth="yes"/>
      <point x="574" y="563"/>
      <point x="583" y="556"/>
      <point x="583" y="543" type="curve" smooth="yes"/>
      <point x="583" y="529"/>
      <point x="574" y="522"/>
      <point x="556" y="522" type="curve" smooth="yes"/>
    </contour>
  </outline>
</glyph>
<glyph name="K" format="1">
  <advance width="600"/>
  <unicode hex="004B"/>
  <outline>
    <contour>
      <point x="165" y="221" type="line"/>
      <point x="165" y="41" type="line"/>
      <point x="240" y="41" type="line" smooth="yes"/>
      <point x="258" y="41"/>
      <point x="267" y="34"/>
      <point x="267" y="21" type="curve" smooth="yes"/>
      <point x="267" y="7"/>
      <point x="258" y="0"/>
      <point x="240" y="0" type="curve" smooth="yes"/>
      <point x="70" y="0" type="line" smooth="yes"/>
      <point x="52" y="0"/>
      <point x="43" y="7"/>
      <point x="43" y="21" type="curve" smooth="yes"/>
      <point x="43" y="34"/>
      <point x="52" y="41"/>
      <point x="70" y="41" type="curve" smooth="yes"/>
      <point x="124" y="41" type="line"/>
      <point x="124" y="522" type="line"/>
      <point x="70" y="522" type="line" smooth="yes"/>
      <point x="52" y="522"/>
      <point x="43" y="529"/>
      <point x="43" y="543" type="curve" smooth="yes"/>
      <point x="43" y="556"/>
      <point x="52" y="563"/>
      <point x="70" y="563" type="curve" smooth="yes"/>
      <point x="240" y="563" type="line" smooth="yes"/>
      <point x="258" y="563"/>
      <point x="267" y="556"/>
      <point x="267" y="543" type="curve" smooth="yes"/>
      <point x="267" y="529"/>
      <point x="258" y="522"/>
      <point x="240" y="522" type="curve" smooth="yes"/>
      <point x="165" y="522" type="line"/>
      <point x="165" y="273" type="line"/>
      <point x="445" y="522" type="line"/>
      <point x="400" y="522" type="line" smooth="yes"/>
      <point x="381" y="522"/>
      <point x="372" y="529"/>
      <point x="372" y="543" type="curve" smooth="yes"/>
      <point x="372" y="556"/>
      <point x="381" y="563"/>
      <point x="400" y="563" type="curve" smooth="yes"/>
      <point x="518" y="563" type="line" smooth="yes"/>
      <point x="537" y="563"/>
      <point x="546" y="556"/>
      <point x="546" y="543" type="curve" smooth="yes"/>
      <point x="546" y="529"/>
      <point x="537" y="522"/>
      <point x="518" y="522" type="curve" smooth="yes"/>
      <point x="502" y="522" type="line"/>
      <point x="280" y="324" type="line"/>
      <point x="377" y="284"/>
      <point x="414" y="233"/>
      <point x="489" y="41" type="curve"/>
      <point x="545" y="41" type="line" smooth="yes"/>
      <point x="563" y="41"/>
      <point x="572" y="34"/>
      <point x="572" y="21" type="curve" smooth="yes"/>
      <point x="572" y="7"/>
      <point x="563" y="0"/>
      <point x="545" y="0" type="curve" smooth="yes"/>
      <point x="458" y="0" type="line"/>
      <point x="385" y="203"/>
      <point x="341" y="263"/>
      <point x="246" y="294" type="curve"/>
    </contour>
  </outline>
</glyph>
<glyph name="L" format="1">
  <advance width="600"/>
  <unicode hex="004C"/>
  <outline>
    <contour>
      <point x="227" y="522" type="line"/>
      <point x="227" y="41" type="line"/>
      <point x="500" y="41" type="line"/>
      <point x="500" y="201" type="line" smooth="yes"/>
      <point x="500" y="219"/>
      <point x="507" y="228"/>
      <point x="521" y="228" type="curve" smooth="yes"/>
      <point x="534" y="228"/>
      <point x="541" y="219"/>
      <point x="541" y="201" type="curve" smooth="yes"/>
      <point x="541" y="0" type="line"/>
      <point x="90" y="0" type="line" smooth="yes"/>
      <point x="72" y="0"/>
      <point x="63" y="7"/>
      <point x="63" y="21" type="curve" smooth="yes"/>
      <point x="63" y="34"/>
      <point x="72" y="41"/>
      <point x="90" y="41" type="curve" smooth="yes"/>
      <point x="186" y="41" type="line"/>
      <point x="186" y="522" type="line"/>
      <point x="90" y="522" type="line" smooth="yes"/>
      <point x="72" y="522"/>
      <point x="63" y="529"/>
      <point x="63" y="543" type="curve" smooth="yes"/>
      <point x="63" y="556"/>
      <point x="72" y="563"/>
      <point x="90" y="563" type="curve" smooth="yes"/>
      <point x="323" y="563" type="line" smooth="yes"/>
      <point x="341" y="563"/>
      <point x="350" y="556"/>
      <point x="350" y="543" type="curve" smooth="yes"/>
      <point x="350" y="529"/>
      <point x="341" y="522"/>
      <point x="323" y="522" type="curve" smooth="yes"/>
    </contour>
  </outline>
</glyph>
<glyph name="M" format="1">
  <advance width="600"/>
  <unicode hex="004D"/>
  <outline>
    <contour>
      <point x="326" y="169" type="line"/>
      <point x="280" y="169" type="line"/>
      <point x="121" y="522" type="line"/>
      <point x="113" y="522" type="line"/>
      <point x="113" y="41" type="line"/>
      <point x="187" y="41" type="line" smooth="yes"/>
      <point x="206" y="41"/>
      <point x="215" y="34"/>
      <point x="215" y="21" type="curve" smooth="yes"/>
      <point x="215" y="7"/>
      <point x="205" y="0"/>
      <point x="187" y="0" type="curve" smooth="yes"/>
      <point x="38" y="0" type="line" smooth="yes"/>
      <point x="20" y="0"/>
      <point x="11" y="7"/>
      <point x="11" y="21" type="curve" smooth="yes"/>
      <point x="11" y="34"/>
      <point x="20" y="41"/>
      <point x="38" y="41" type="curve" smooth="yes"/>
      <point x="72" y="41" type="line"/>
      <point x="72" y="522" type="line"/>
      <point x="47" y="522" type="line" smooth="yes"/>
      <point x="29" y="522"/>
      <point x="20" y="529"/>
      <point x="20" y="543" type="curve" smooth="yes"/>
      <point x="20" y="556"/>
      <point x="29" y="563"/>
      <point x="47" y="563" type="curve" smooth="yes"/>
      <point x="146" y="563" type="line"/>
      <point x="303" y="215" type="line"/>
      <point x="457" y="563" type="line"/>
      <point x="557" y="563" type="line" smooth="yes"/>
      <point x="575" y="563"/>
      <point x="584" y="556"/>
      <point x="584" y="543" type="curve" smooth="yes"/>
      <point x="584" y="529"/>
      <point x="575" y="522"/>
      <point x="557" y="522" type="curve" smooth="yes"/>
      <point x="532" y="522" type="line"/>
      <point x="532" y="41" type="line"/>
      <point x="566" y="41" type="line" smooth="yes"/>
      <point x="584" y="41"/>
      <point x="593" y="34"/>
      <point x="593" y="21" type="curve" smooth="yes"/>
      <point x="593" y="7"/>
      <point x="584" y="0"/>
      <point x="566" y="0" type="curve" smooth="yes"/>
      <point x="417" y="0" type="line" smooth="yes"/>
      <point x="399" y="0"/>
      <point x="390" y="7"/>
      <point x="390" y="21" type="curve" smooth="yes"/>
      <point x="390" y="34"/>
      <point x="399" y="41"/>
      <point x="417" y="41" type="curve" smooth="yes"/>
      <point x="491" y="41" type="line"/>
      <point x="491" y="522" type="line"/>
      <point x="483" y="522" type="line"/>
    </contour>
  </outline>
</glyph>
<glyph name="O" format="1">
  <advance width="600"/>
  <unicode hex="004F"/>
  <outline>
    <contour>
      <point x="300" y="576" type="curve" smooth="yes"/>
      <point x="441" y="576"/>
      <point x="549" y="446"/>
      <point x="549" y="276" type="curve" smooth="yes"/>
      <point x="549" y="115"/>
      <point x="437" y="-16"/>
      <point x="300" y="-16" type="curve" smooth="yes"/>
      <point x="161" y="-16"/>
      <point x="51" y="115"/>
      <point x="51" y="280" type="curve" smooth="yes"/>
      <point x="51" y="445"/>
      <point x="161" y="576"/>
    </contour>
    <contour>
      <point x="300" y="535" type="curve" smooth="yes"/>
      <point x="185" y="535"/>
      <point x="92" y="420"/>
      <point x="92" y="280" type="curve" smooth="yes"/>
      <point x="92" y="140"/>
      <point x="186" y="25"/>
      <point x="300" y="25" type="curve" smooth="yes"/>
      <point x="413" y="25"/>
      <point x="508" y="140"/>
      <point x="508" y="277" type="curve" smooth="yes"/>
      <point x="508" y="421"/>
      <point x="416" y="535"/>
    </contour>
  </outline>
</glyph>
<glyph name="P" format="1">
  <advance width="600"/>
  <unicode hex="0050"/>
  <outline>
    <contour>
      <point x="165" y="231" type="line"/>
      <point x="165" y="41" type="line"/>
      <point x="303" y="41" type="line" smooth="yes"/>
      <point x="322" y="41"/>
      <point x="331" y="34"/>
      <point x="331" y="21" type="curve" smooth="yes"/>
      <point x="331" y="7"/>
      <point x="321" y="0"/>
      <point x="303" y="0" type="curve" smooth="yes"/>
      <point x="70" y="0" type="line" smooth="yes"/>
      <point x="52" y="0"/>
      <point x="43" y="7"/>
      <point x="43" y="21" type="curve" smooth="yes"/>
      <point x="43" y="34"/>
      <point x="52" y="41"/>
      <point x="70" y="41" type="curve" smooth="yes"/>
      <point x="124" y="41" type="line"/>
      <point x="124" y="522" type="line"/>
      <point x="70" y="522" type="line" smooth="yes"/>
      <point x="52" y="522"/>
      <point x="43" y="529"/>
      <point x="43" y="543" type="curve" smooth="yes"/>
      <point x="43" y="556"/>
      <point x="52" y="563"/>
      <point x="70" y="563" type="curve" smooth="yes"/>
      <point x="310" y="563" type="line" smooth="yes"/>
      <point x="416" y="563"/>
      <point x="499" y="491"/>
      <point x="499" y="398" type="curve" smooth="yes"/>
      <point x="499" y="305"/>
      <point x="410" y="231"/>
      <point x="296" y="231" type="curve" smooth="yes"/>
    </contour>
    <contour>
      <point x="165" y="272" type="line"/>
      <point x="299" y="272" type="line" smooth="yes"/>
      <point x="386" y="272"/>
      <point x="458" y="329"/>
      <point x="458" y="398" type="curve" smooth="yes"/>
      <point x="458" y="466"/>
      <point x="393" y="522"/>
      <point x="314" y="522" type="curve" smooth="yes"/>
      <point x="165" y="522" type="line"/>
    </contour>
  </outline>
</glyph>
<glyph name="Q" format="1">
  <advance width="600"/>
  <unicode hex="0051"/>
  <outline>
    <contour>
      <point x="305" y="-16" type="curve"/>
      <point x="251" y="-56" type="line"/>
      <point x="281" y="-50"/>
      <point x="297" y="-48"/>
      <point x="318" y="-48" type="curve" smooth="yes"/>
      <point x="347" y="-48"/>
      <point x="370" y="-52"/>
      <point x="400" y="-63" type="curve" smooth="yes"/>
      <point x="424" y="-72"/>
      <point x="432" y="-74"/>
      <point x="445" y="-74" type="curve" smooth="yes"/>
      <point x="466" y="-74"/>
      <point x="483" y="-67"/>
      <point x="514" y="-47" type="curve" smooth="yes"/>
      <point x="518" y="-44"/>
      <point x="522" y="-43"/>
      <point x="526" y="-43" type="curve" smooth="yes"/>
      <point x="537" y="-43"/>
      <point x="546" y="-52"/>
      <point x="546" y="-64" type="curve" smooth="yes"/>
      <point x="546" y="-84"/>
      <point x="484" y="-115"/>
      <point x="442" y="-115" type="curve" smooth="yes"/>
      <point x="426" y="-115"/>
      <point x="415" y="-112"/>
      <point x="386" y="-102" type="curve" smooth="yes"/>
      <point x="359" y="-92"/>
      <point x="343" y="-89"/>
      <point x="318" y="-89" type="curve" smooth="yes"/>
      <point x="288" y="-89"/>
      <point x="221" y="-100"/>
      <point x="178" y="-112" type="curve" smooth="yes"/>
      <point x="174" y="-113"/>
      <point x="171" y="-114"/>
      <point x="168" y="-114" type="curve" smooth="yes"/>
      <point x="157" y="-114"/>
      <point x="148" y="-105"/>
      <point x="148" y="-93" type="curve" smooth="yes"/>
      <point x="148" y="-86"/>
      <point x="152" y="-80"/>
      <point x="159" y="-75" type="curve" smooth="yes"/>
      <point x="249" y="-10" type="line"/>
      <point x="135" y="15"/>
      <point x="51" y="139"/>
      <point x="51" y="280" type="curve" smooth="yes"/>
      <point x="51" y="445"/>
      <point x="161" y="576"/>
      <point x="300" y="576" type="curve" smooth="yes"/>
      <point x="439" y="576"/>
      <point x="549" y="445"/>
      <point x="549" y="280" type="curve" smooth="yes"/>
      <point x="549" y="116"/>
      <point x="443" y="-12"/>
    </contour>
    <contour>
      <point x="300" y="535" type="curve" smooth="yes"/>
      <point x="185" y="535"/>
      <point x="92" y="420"/>
      <point x="92" y="280" type="curve" smooth="yes"/>
      <point x="92" y="140"/>
      <point x="186" y="25"/>
      <point x="300" y="25" type="curve" smooth="yes"/>
      <point x="413" y="25"/>
      <point x="508" y="140"/>
      <point x="508" y="277" type="curve" smooth="yes"/>
      <point x="508" y="421"/>
      <point x="416" y="535"/>
    </contour>
  </outline>
</glyph>
<glyph name="T" format="1">
  <advance width="600"/>
  <unicode hex="0054"/>
  <outline>
    <contour>
      <point x="321" y="41" type="line"/>
      <point x="426" y="41" type="line" smooth="yes"/>
      <point x="444" y="41"/>
      <point x="453" y="34"/>
      <point x="453" y="21" type="curve" smooth="yes"/>
      <point x="453" y="7"/>
      <point x="444" y="0"/>
      <point x="426" y="0" type="curve" smooth="yes"/>
      <point x="175" y="0" type="line" smooth="yes"/>
      <point x="157" y="0"/>
      <point x="148" y="7"/>
      <point x="148" y="21" type="curve" smooth="yes"/>
      <point x="148" y="34"/>
      <point x="157" y="41"/>
      <point x="175" y="41" type="curve" smooth="yes"/>
      <point x="280" y="41" type="line"/>
      <point x="280" y="522" type="line"/>
      <point x="113" y="522" type="line"/>
      <point x="113" y="449" type="line" smooth="yes"/>
      <point x="113" y="431"/>
      <point x="106" y="422"/>
      <point x="92" y="422" type="curve" smooth="yes"/>
      <point x="79" y="422"/>
      <point x="72" y="431"/>
      <point x="72" y="449" type="curve" smooth="yes"/>
      <point x="72" y="563" type="line"/>
      <point x="528" y="563" type="line"/>
      <point x="528" y="449" type="line" smooth="yes"/>
      <point x="528" y="430"/>
      <point x="522" y="422"/>
      <point x="508" y="422" type="curve" smooth="yes"/>
      <point x="496" y="422"/>
      <point x="487" y="433"/>
      <point x="487" y="449" type="curve" smooth="yes"/>
      <point x="487" y="522" type="line"/>
      <point x="321" y="522" type="line"/>
    </contour>
  </outline>
</glyph>
<glyph name="V" format="1">
  <advance width="600"/>
  <unicode hex="0056"/>
  <outline>
    <contour>
      <point x="267" y="0" type="line"/>
      <point x="67" y="522" type="line"/>
      <point x="36" y="522" type="line" smooth="yes"/>
      <point x="18" y="522"/>
      <point x="9" y="529"/>
      <point x="9" y="543" type="curve" smooth="yes"/>
      <point x="9" y="557"/>
      <point x="18" y="563"/>
      <point x="36" y="563" type="curve" smooth="yes"/>
      <point x="187" y="563" type="line" smooth="yes"/>
      <point x="205" y="563"/>
      <point x="214" y="557"/>
      <point x="214" y="543" type="curve" smooth="yes"/>
      <point x="214" y="529"/>
      <point x="205" y="522"/>
      <point x="187" y="522" type="curve" smooth="yes"/>
      <point x="110" y="522" type="line"/>
      <point x="296" y="41" type="line"/>
      <point x="299" y="41" type="line"/>
      <point x="492" y="522" type="line"/>
      <point x="414" y="522" type="line" smooth="yes"/>
      <point x="396" y="522"/>
      <point x="387" y="529"/>
      <point x="387" y="543" type="curve" smooth="yes"/>
      <point x="387" y="556"/>
      <point x="395" y="563"/>
      <point x="414" y="563" type="curve" smooth="yes"/>
      <point x="564" y="563" type="line" smooth="yes"/>
      <point x="582" y="563"/>
      <point x="591" y="557"/>
      <point x="591" y="543" type="curve" smooth="yes"/>
      <point x="591" y="529"/>
      <point x="582" y="522"/>
      <point x="564" y="522" type="curve" smooth="yes"/>
      <point x="533" y="522" type="line"/>
      <point x="324" y="0" type="line"/>
    </contour>
  </outline>
</glyph>
<glyph name="W" format="1">
  <advance width="600"/>
  <unicode hex="0057"/>
  <outline>
    <contour>
      <point x="122" y="0" type="line"/>
      <point x="62" y="522" type="line"/>
      <point x="47" y="522" type="line" smooth="yes"/>
      <point x="29" y="522"/>
      <point x="20" y="529"/>
      <point x="20" y="543" type="curve" smooth="yes"/>
      <point x="20" y="556"/>
      <point x="29" y="563"/>
      <point x="47" y="563" type="curve" smooth="yes"/>
      <point x="196" y="563" type="line" smooth="yes"/>
      <point x="215" y="563"/>
      <point x="224" y="556"/>
      <point x="224" y="543" type="curve" smooth="yes"/>
      <point x="224" y="529"/>
      <point x="215" y="522"/>
      <point x="196" y="522" type="curve" smooth="yes"/>
      <point x="103" y="522" type="line"/>
      <point x="159" y="46" type="line"/>
      <point x="271" y="438" type="line"/>
      <point x="333" y="438" type="line"/>
      <point x="442" y="46" type="line"/>
      <point x="499" y="522" type="line"/>
      <point x="403" y="522" type="line" smooth="yes"/>
      <point x="385" y="522"/>
      <point x="376" y="529"/>
      <point x="376" y="543" type="curve" smooth="yes"/>
      <point x="376" y="556"/>
      <point x="385" y="563"/>
      <point x="403" y="563" type="curve" smooth="yes"/>
      <point x="553" y="563" type="line" smooth="yes"/>
      <point x="571" y="563"/>
      <point x="580" y="556"/>
      <point x="580" y="543" type="curve" smooth="yes"/>
      <point x="580" y="529"/>
      <point x="571" y="522"/>
      <point x="553" y="522" type="curve" smooth="yes"/>
      <point x="538" y="522" type="line"/>
      <point x="476" y="0" type="line"/>
      <point x="412" y="0" type="line"/>
      <point x="300" y="400" type="line"/>
      <point x="185" y="0" type="line"/>
    </contour>
  </outline>
</glyph>
<glyph name="X" format="1">
  <advance width="600"/>
  <unicode hex="0058"/>
  <outline>
    <contour>
      <point x="325" y="288" type="line"/>
      <point x="516" y="41" type="line"/>
      <point x="533" y="41" type="line" smooth="yes"/>
      <point x="551" y="41"/>
      <point x="560" y="34"/>
      <point x="560" y="21" type="curve" smooth="yes"/>
      <point x="560" y="7"/>
      <point x="551" y="0"/>
      <point x="533" y="0" type="curve" smooth="yes"/>
      <point x="401" y="0" type="line" smooth="yes"/>
      <point x="383" y="0"/>
      <point x="374" y="7"/>
      <point x="374" y="21" type="curve" smooth="yes"/>
      <point x="374" y="34"/>
      <point x="383" y="41"/>
      <point x="401" y="41" type="curve" smooth="yes"/>
      <point x="463" y="41" type="line"/>
      <point x="298" y="255" type="line"/>
      <point x="134" y="41" type="line"/>
      <point x="198" y="41" type="line" smooth="yes"/>
      <point x="216" y="41"/>
      <point x="225" y="34"/>
      <point x="225" y="21" type="curve" smooth="yes"/>
      <point x="225" y="7"/>
      <point x="216" y="0"/>
      <point x="198" y="0" type="curve" smooth="yes"/>
      <point x="67" y="0" type="line" smooth="yes"/>
      <point x="49" y="0"/>
      <point x="40" y="7"/>
      <point x="40" y="21" type="curve" smooth="yes"/>
      <point x="40" y="34"/>
      <point x="49" y="41"/>
      <point x="67" y="41" type="curve" smooth="yes"/>
      <point x="84" y="41" type="line"/>
      <point x="272" y="288" type="line"/>
      <point x="93" y="522" type="line"/>
      <point x="78" y="522" type="line" smooth="yes"/>
      <point x="60" y="522"/>
      <point x="51" y="529"/>
      <point x="51" y="543" type="curve" smooth="yes"/>
      <point x="51" y="556"/>
      <point x="60" y="563"/>
      <point x="78" y="563" type="curve" smooth="yes"/>
      <point x="188" y="563" type="line" smooth="yes"/>
      <point x="206" y="563"/>
      <point x="215" y="556"/>
      <point x="215" y="543" type="curve" smooth="yes"/>
      <point x="215" y="529"/>
      <point x="206" y="522"/>
      <point x="188" y="522" type="curve" smooth="yes"/>
      <point x="145" y="522" type="line"/>
      <point x="300" y="321" type="line"/>
      <point x="453" y="522" type="line"/>
      <point x="408" y="522" type="line" smooth="yes"/>
      <point x="390" y="522"/>
      <point x="381" y="529"/>
      <point x="381" y="543" type="curve" smooth="yes"/>
      <point x="381" y="556"/>
      <point x="390" y="563"/>
      <point x="408" y="563" type="curve" smooth="yes"/>
      <point x="519" y="563" type="line" smooth="yes"/>
      <point x="537" y="563"/>
      <point x="546" y="557"/>
      <point x="546" y="543" type="curve" smooth="yes"/>
      <point x="546" y="529"/>
      <point x="537" y="522"/>
      <point x="519" y="522" type="curve" smooth="yes"/>
      <point x="504" y="522" type="line"/>
    </contour>
  </outline>
</glyph>
<glyph name="Y" format="1">
  <advance width="600"/>
  <unicode hex="0059"/>
  <outline>
    <contour>
      <point x="322" y="254" type="line"/>
      <point x="322" y="41" type="line"/>
      <point x="427" y="41" type="line" smooth="yes"/>
      <point x="445" y="41"/>
      <point x="454" y="34"/>
      <point x="454" y="21" type="curve" smooth="yes"/>
      <point x="454" y="7"/>
      <point x="445" y="0"/>
      <point x="427" y="0" type="curve" smooth="yes"/>
      <point x="176" y="0" type="line" smooth="yes"/>
      <point x="158" y="0"/>
      <point x="149" y="7"/>
      <point x="149" y="21" type="curve" smooth="yes"/>
      <point x="149" y="34"/>
      <point x="158" y="41"/>
      <point x="176" y="41" type="curve" smooth="yes"/>
      <point x="281" y="41" type="line"/>
      <point x="281" y="254" type="line"/>
      <point x="102" y="522" type="line"/>
      <point x="78" y="522" type="line" smooth="yes"/>
      <point x="60" y="522"/>
      <point x="51" y="529"/>
      <point x="51" y="543" type="curve" smooth="yes"/>
      <point x="51" y="556"/>
      <point x="60" y="563"/>
      <point x="78" y="563" type="curve" smooth="yes"/>
      <point x="189" y="563" type="line" smooth="yes"/>
      <point x="207" y="563"/>
      <point x="216" y="556"/>
      <point x="216" y="543" type="curve" smooth="yes"/>
      <point x="216" y="529"/>
      <point x="207" y="522"/>
      <point x="189" y="522" type="curve" smooth="yes"/>
      <point x="151" y="522" type="line"/>
      <point x="303" y="295" type="line"/>
      <point x="452" y="522" type="line"/>
      <point x="412" y="522" type="line" smooth="yes"/>
      <point x="393" y="522"/>
      <point x="384" y="529"/>
      <point x="384" y="543" type="curve" smooth="yes"/>
      <point x="384" y="556"/>
      <point x="393" y="563"/>
      <point x="412" y="563" type="curve" smooth="yes"/>
      <point x="522" y="563" type="line" smooth="yes"/>
      <point x="539" y="563"/>
      <point x="549" y="555"/>
      <point x="549" y="543" type="curve" smooth="yes"/>
      <point x="549" y="530"/>
      <point x="538" y="522"/>
      <point x="522" y="522" type="curve" smooth="yes"/>
      <point x="498" y="522" type="line"/>
    </contour>
  </outline>
</glyph>
<glyph name="bracketleft" format="1">
  <advance width="600"/>
  <unicode hex="005B"/>
  <outline>
    <contour>
      <point x="321" y="563" type="line"/>
      <point x="321" y="-83" type="line"/>
      <point x="418" y="-83" type="line" smooth="yes"/>
      <point x="436" y="-83"/>
      <point x="445" y="-90"/>
      <point x="445" y="-103" type="curve" smooth="yes"/>
      <point x="445" y="-117"/>
      <point x="436" y="-124"/>
      <point x="418" y="-124" type="curve" smooth="yes"/>
      <point x="280" y="-124" type="line"/>
      <point x="280" y="604" type="line"/>
      <point x="418" y="604" type="line" smooth="yes"/>
      <point x="436" y="604"/>
      <point x="445" y="597"/>
      <point x="445" y="584" type="curve" smooth="yes"/>
      <point x="445" y="570"/>
      <point x="436" y="563"/>
      <point x="418" y="563" type="curve" smooth="yes"/>
    </contour>
  </outline>
</glyph>
<glyph name="backslash" format="1">
  <advance width="600"/>
  <unicode hex="005C"/>
  <outline>
    <contour>
      <point x="155" y="650" type="curve" smooth="yes"/>
      <point x="482" y="-46" type="line" smooth="yes"/>
      <point x="486" y="-53"/>
      <point x="487" y="-58"/>
      <point x="487" y="-62" type="curve" smooth="yes"/>
      <point x="487" y="-72"/>
      <point x="477" y="-81"/>
      <point x="467" y="-81" type="curve" smooth="yes"/>
      <point x="457" y="-81"/>
      <point x="452" y="-77"/>
      <point x="445" y="-63" type="curve" smooth="yes"/>
      <point x="118" y="633" type="line" smooth="yes"/>
      <point x="114" y="641"/>
      <point x="113" y="645"/>
      <point x="113" y="649" type="curve" smooth="yes"/>
      <point x="113" y="659"/>
      <point x="123" y="668"/>
      <point x="134" y="668" type="curve" smooth="yes"/>
      <point x="143" y="668"/>
      <point x="148" y="664"/>
    </contour>
  </outline>
</glyph>
<glyph name="bracketright" format="1">
  <advance width="600"/>
  <unicode hex="005D"/>
  <outline>
    <contour>
      <point x="279" y="-83" type="line"/>
      <point x="279" y="563" type="line"/>
      <point x="182" y="563" type="line" smooth="yes"/>
      <point x="164" y="563"/>
      <point x="155" y="570"/>
      <point x="155" y="583" type="curve" smooth="yes"/>
      <point x="155" y="597"/>
      <point x="164" y="604"/>
      <point x="182" y="604" type="curve" smooth="yes"/>
      <point x="320" y="604" type="line"/>
      <point x="320" y="-124" type="line"/>
      <point x="182" y="-124" type="line" smooth="yes"/>
      <point x="164" y="-124"/>
      <point x="155" y="-117"/>
      <point x="155" y="-104" type="curve" smooth="yes"/>
      <point x="155" y="-90"/>
      <point x="164" y="-83"/>
      <point x="182" y="-83" type="curve" smooth="yes"/>
    </contour>
  </outline>
</glyph>
<glyph name="asciicircum" format="1">
  <advance width="600"/>
  <unicode hex="005E"/>
  <outline>
    <contour>
      <point x="300" y="615" type="line"/>
      <point x="478" y="392" type="line" smooth="yes"/>
      <point x="484" y="385"/>
      <point x="487" y="379"/>
      <point x="487" y="374" type="curve" smooth="yes"/>
      <point x="487" y="363"/>
      <point x="478" y="354"/>
      <point x="467" y="354" type="curve" smooth="yes"/>
      <point x="459" y="354"/>
      <point x="454" y="357"/>
      <point x="447" y="367" type="curve" smooth="yes"/>
      <point x="300" y="552" type="line"/>
      <point x="153" y="367" type="line" smooth="yes"/>
      <point x="146" y="357"/>
      <point x="141" y="354"/>
      <point x="133" y="354" type="curve" smooth="yes"/>
      <point x="122" y="354"/>
      <point x="113" y="363"/>
      <point x="113" y="374" type="curve" smooth="yes"/>
      <point x="113" y="380"/>
      <point x="115" y="384"/>
      <point x="122" y="392" type="curve" smooth="yes"/>
    </contour>
  </outline>
</glyph>
<glyph name="grave" format="1">
  <advance width="600"/>
  <unicode hex="0060"/>
  <outline>
    <contour>
      <point x="194" y="630" type="curve" smooth="yes"/>
      <point x="308" y="530" type="line"/>
      <point x="315" y="522" type="line" smooth="yes"/>
      <point x="320" y="517"/>
      <point x="320" y="517"/>
      <point x="320" y="511" type="curve" smooth="yes"/>
      <point x="320" y="499"/>
      <point x="311" y="490"/>
      <point x="299" y="490" type="curve" smooth="yes"/>
      <point x="294" y="490"/>
      <point x="288" y="493"/>
      <point x="281" y="499" type="curve" smooth="yes"/>
      <point x="167" y="599" type="line" smooth="yes"/>
      <point x="158" y="607"/>
      <point x="155" y="611"/>
      <point x="155" y="619" type="curve" smooth="yes"/>
      <point x="155" y="630"/>
      <point x="164" y="639"/>
      <point x="175" y="639" type="curve" smooth="yes"/>
      <point x="181" y="639"/>
      <point x="186" y="636"/>
    </contour>
  </outline>
</glyph>
<glyph name="a" format="1">
  <advance width="600"/>
  <unicode hex="0061"/>
  <outline>
    <contour>
      <point x="419" y="0" type="line"/>
      <point x="419" y="67" type="line"/>
      <point x="358" y="10"/>
      <point x="298" y="-16"/>
      <point x="228" y="-16" type="curve" smooth="yes"/>
      <point x="135" y="-16"/>
      <point x="72" y="36"/>
      <point x="72" y="112" type="curve" smooth="yes"/>
      <point x="72" y="199"/>
      <point x="158" y="258"/>
      <point x="283" y="258" type="curve" smooth="yes"/>
      <point x="329" y="258"/>
      <point x="360" y="253"/>
      <point x="419" y="237" type="curve"/>
      <point x="419" y="308" type="line" smooth="yes"/>
      <point x="419" y="357"/>
      <point x="369" y="390"/>
      <point x="296" y="390" type="curve" smooth="yes"/>
      <point x="260" y="390"/>
      <point x="232" y="384"/>
      <point x="154" y="360" type="curve" smooth="yes"/>
      <point x="150" y="359"/>
      <point x="146" y="358"/>
      <point x="144" y="358" type="curve" smooth="yes"/>
      <point x="134" y="358"/>
      <point x="125" y="367"/>
      <point x="125" y="378" type="curve" smooth="yes"/>
      <point x="125" y="388"/>
      <point x="131" y="395"/>
      <point x="142" y="399" type="curve" smooth="yes"/>
      <point x="197" y="418"/>
      <point x="262" y="431"/>
      <point x="299" y="431" type="curve" smooth="yes"/>
      <point x="392" y="431"/>
      <point x="460" y="379"/>
      <point x="460" y="308" type="curve" smooth="yes"/>
      <point x="460" y="41" type="line"/>
      <point x="514" y="41" type="line" smooth="yes"/>
      <point x="532" y="41"/>
      <point x="541" y="34"/>
      <point x="541" y="21" type="curve" smooth="yes"/>
      <point x="541" y="7"/>
      <point x="532" y="0"/>
      <point x="514" y="0" type="curve" smooth="yes"/>
    </contour>
    <contour>
      <point x="419" y="112" type="curve"/>
      <point x="419" y="202" type="line"/>
      <point x="383" y="211"/>
      <point x="335" y="217"/>
      <point x="291" y="217" type="curve" smooth="yes"/>
      <point x="185" y="217"/>
      <point x="113" y="174"/>
      <point x="113" y="111" type="curve" smooth="yes"/>
      <point x="113" y="59"/>
      <point x="158" y="25"/>
      <point x="227" y="25" type="curve" smooth="yes"/>
      <point x="298" y="25"/>
      <point x="352" y="49"/>
    </contour>
  </outline>
</glyph>
<glyph name="b" format="1">
  <advance width="600"/>
  <unicode hex="0062"/>
  <outline>
    <contour>
      <point x="144" y="604" type="line"/>
      <point x="144" y="328" type="line"/>
      <point x="194" y="399"/>
      <point x="250" y="431"/>
      <point x="324" y="431" type="curve" smooth="yes"/>
      <point x="446" y="431"/>
      <point x="541" y="334"/>
      <point x="541" y="210" type="curve" smooth="yes"/>
      <point x="541" y="85"/>
      <point x="444" y="-16"/>
      <point x="324" y="-16" type="curve" smooth="yes"/>
      <point x="251" y="-16"/>
      <point x="191" y="18"/>
      <point x="144" y="88" type="curve"/>
      <point x="144" y="0" type="line"/>
      <point x="49" y="0" type="line" smooth="yes"/>
      <point x="31" y="0"/>
      <point x="22" y="7"/>
      <point x="22" y="21" type="curve" smooth="yes"/>
      <point x="22" y="34"/>
      <point x="31" y="41"/>
      <point x="49" y="41" type="curve" smooth="yes"/>
      <point x="103" y="41" type="line"/>
      <point x="103" y="563" type="line"/>
      <point x="49" y="563" type="line" smooth="yes"/>
      <point x="31" y="563"/>
      <point x="22" y="570"/>
      <point x="22" y="584" type="curve" smooth="yes"/>
      <point x="22" y="597"/>
      <point x="31" y="604"/>
      <point x="49" y="604" type="curve" smooth="yes"/>
    </contour>
    <contour>
      <point x="322" y="390" type="curve" smooth="yes"/>
      <point x="223" y="390"/>
      <point x="144" y="309"/>
      <point x="144" y="208" type="curve" smooth="yes"/>
      <point x="144" y="107"/>
      <point x="223" y="25"/>
      <point x="322" y="25" type="curve" smooth="yes"/>
      <point x="419" y="25"/>
      <point x="500" y="107"/>
      <point x="500" y="205" type="curve" smooth="yes"/>
      <point x="500" y="309"/>
      <point x="422" y="390"/>
    </contour>
  </outline>
</glyph>
<glyph name="f" format="1">
  <advance width="600"/>
  <unicode hex="0066"/>
  <outline>
    <contour>
      <point x="271" y="376" type="line"/>
      <point x="271" y="41" type="line"/>
      <point x="449" y="41" type="line" smooth="yes"/>
      <point x="467" y="41"/>
      <point x="476" y="34"/>
      <point x="476" y="21" type="curve" smooth="yes"/>
      <point x="476" y="7"/>
      <point x="466" y="0"/>
      <point x="449" y="0" type="curve" smooth="yes"/>
      <point x="132" y="0" type="line" smooth="yes"/>
      <point x="114" y="0"/>
      <point x="105" y="7"/>
      <point x="105" y="21" type="curve" smooth="yes"/>
      <point x="105" y="34"/>
      <point x="114" y="41"/>
      <point x="132" y="41" type="curve" smooth="yes"/>
      <point x="230" y="41" type="line"/>
      <point x="230" y="376" type="line"/>
      <point x="142" y="376" type="line" smooth="yes"/>
      <point x="124" y="376"/>
      <point x="115" y="383"/>
      <point x="115" y="397" type="curve" smooth="yes"/>
      <point x="115" y="410"/>
      <point x="124" y="417"/>
      <point x="142" y="417" type="curve" smooth="yes"/>
      <point x="230" y="417" type="line"/>
      <point x="230" y="478" type="line" smooth="yes"/>
      <point x="230" y="551"/>
      <point x="294" y="604"/>
      <point x="384" y="604" type="curve" smooth="yes"/>
      <point x="422" y="604"/>
      <point x="491" y="597"/>
      <point x="523" y="591" type="curve" smooth="yes"/>
      <point x="535" y="588"/>
      <point x="541" y="581"/>
      <point x="541" y="571" type="curve" smooth="yes"/>
      <point x="541" y="559"/>
      <point x="532" y="551"/>
      <point x="520" y="551" type="curve" smooth="yes"/>
      <point x="518" y="551"/>
      <point x="518" y="551"/>
      <point x="470" y="557" type="curve" smooth="yes"/>
      <point x="443" y="560"/>
      <point x="404" y="563"/>
      <point x="382" y="563" type="curve" smooth="yes"/>
      <point x="316" y="563"/>
      <point x="271" y="528"/>
      <point x="271" y="478" type="curve" smooth="yes"/>
      <point x="271" y="417" type="line"/>
      <point x="460" y="417" type="line" smooth="yes"/>
      <point x="478" y="417"/>
      <point x="487" y="410"/>
      <point x="487" y="397" type="curve" smooth="yes"/>
      <point x="487" y="383"/>
      <point x="478" y="376"/>
      <point x="460" y="376" type="curve" smooth="yes"/>
    </contour>
  </outline>
</glyph>
<glyph name="h" format="1">
  <advance width="600"/>
  <unicode hex="0068"/>
  <outline>
    <contour>
      <point x="165" y="604" type="line"/>
      <point x="165" y="347" type="line"/>
      <point x="216" y="408"/>
      <point x="258" y="431"/>
      <point x="319" y="431" type="curve" smooth="yes"/>
      <point x="412" y="431"/>
      <point x="478" y="372"/>
      <point x="478" y="291" type="curve" smooth="yes"/>
      <point x="478" y="41" type="line"/>
      <point x="523" y="41" type="line" smooth="yes"/>
      <point x="542" y="41"/>
      <point x="551" y="34"/>
      <point x="551" y="21" type="curve" smooth="yes"/>
      <point x="551" y="7"/>
      <point x="542" y="0"/>
      <point x="523" y="0" type="curve" smooth="yes"/>
      <point x="392" y="0" type="line" smooth="yes"/>
      <point x="374" y="0"/>
      <point x="365" y="7"/>
      <point x="365" y="21" type="curve" smooth="yes"/>
      <point x="365" y="34"/>
      <point x="374" y="41"/>
      <point x="392" y="41" type="curve" smooth="yes"/>
      <point x="437" y="41" type="line"/>
      <point x="437" y="288" type="line" smooth="yes"/>
      <point x="437" y="318"/>
      <point x="424" y="344"/>
      <point x="399" y="364" type="curve" smooth="yes"/>
      <point x="376" y="383"/>
      <point x="354" y="390"/>
      <point x="314" y="390" type="curve" smooth="yes"/>
      <point x="258" y="390"/>
      <point x="230" y="373"/>
      <point x="176" y="309" type="curve" smooth="yes"/>
      <point x="165" y="296" type="line"/>
      <point x="165" y="41" type="line"/>
      <point x="210" y="41" type="line" smooth="yes"/>
      <point x="229" y="41"/>
      <point x="238" y="34"/>
      <point x="238" y="21" type="curve" smooth="yes"/>
      <point x="238" y="7"/>
      <point x="228" y="0"/>
      <point x="210" y="0" type="curve" smooth="yes"/>
      <point x="78" y="0" type="line" smooth="yes"/>
      <point x="61" y="0"/>
      <point x="51" y="7"/>
      <point x="51" y="21" type="curve" smooth="yes"/>
      <point x="51" y="34"/>
      <point x="60" y="41"/>
      <point x="78" y="41" type="curve" smooth="yes"/>
      <point x="124" y="41" type="line"/>
      <point x="124" y="563" type="line"/>
      <point x="70" y="563" type="line" smooth="yes"/>
      <point x="52" y="563"/>
      <point x="43" y="570"/>
      <point x="43" y="584" type="curve" smooth="yes"/>
      <point x="43" y="597"/>
      <point x="52" y="604"/>
      <point x="70" y="604" type="curve" smooth="yes"/>
    </contour>
  </outline>
</glyph>
<glyph name="i" format="1">
  <advance width="600"/>
  <unicode hex="0069"/>
  <outline>
    <contour>
      <point x="320" y="417" type="line"/>
      <point x="320" y="41" type="line"/>
      <point x="480" y="41" type="line" smooth="yes"/>
      <point x="499" y="41"/>
      <point x="508" y="34"/>
      <point x="508" y="21" type="curve" smooth="yes"/>
      <point x="508" y="7"/>
      <point x="498" y="0"/>
      <point x="480" y="0" type="curve" smooth="yes"/>
      <point x="119" y="0" type="line" smooth="yes"/>
      <point x="101" y="0"/>
      <point x="92" y="7"/>
      <point x="92" y="21" type="curve" smooth="yes"/>
      <point x="92" y="34"/>
      <point x="101" y="41"/>
      <point x="119" y="41" type="curve" smooth="yes"/>
      <point x="279" y="41" type="line"/>
      <point x="279" y="376" type="line"/>
      <point x="161" y="376" type="line" smooth="yes"/>
      <point x="143" y="376"/>
      <point x="134" y="383"/>
      <point x="134" y="397" type="curve" smooth="yes"/>
      <point x="134" y="410"/>
      <point x="143" y="417"/>
      <point x="161" y="417" type="curve" smooth="yes"/>
    </contour>
    <contour>
      <point x="318" y="624" type="line"/>
      <point x="318" y="520" type="line"/>
      <point x="259" y="520" type="line"/>
      <point x="259" y="624" type="line"/>
    </contour>
  </outline>
</glyph>
<glyph name="j" format="1">
  <advance width="600"/>
  <unicode hex="006A"/>
  <outline>
    <contour>
      <point x="417" y="376" type="line"/>
      <point x="176" y="376" type="line" smooth="yes"/>
      <point x="158" y="376"/>
      <point x="149" y="383"/>
      <point x="149" y="397" type="curve" smooth="yes"/>
      <point x="149" y="410"/>
      <point x="158" y="417"/>
      <point x="176" y="417" type="curve" smooth="yes"/>
      <point x="458" y="417" type="line"/>
      <point x="458" y="-28" type="line" smooth="yes"/>
      <point x="458" y="-121"/>
      <point x="394" y="-186"/>
      <point x="303" y="-186" type="curve" smooth="yes"/>
      <point x="174" y="-186" type="line" smooth="yes"/>
      <point x="156" y="-186"/>
      <point x="147" y="-179"/>
      <point x="147" y="-165" type="curve" smooth="yes"/>
      <point x="147" y="-152"/>
      <point x="156" y="-145"/>
      <point x="174" y="-145" type="curve" smooth="yes"/>
      <point x="302" y="-145" type="line" smooth="yes"/>
      <point x="368" y="-145"/>
      <point x="417" y="-96"/>
      <point x="417" y="-28" type="curve" smooth="yes"/>
    </contour>
    <contour>
      <point x="414" y="624" type="line"/>
      <point x="414" y="520" type="line"/>
      <point x="355" y="520" type="line"/>
      <point x="355" y="624" type="line"/>
    </contour>
  </outline>
</glyph>
<glyph name="k" format="1">
  <advance width="600"/>
  <unicode hex="006B"/>
  <outline>
    <contour>
      <point x="185" y="180" type="line"/>
      <point x="185" y="0" type="line"/>
      <point x="90" y="0" type="line" smooth="yes"/>
      <point x="72" y="0"/>
      <point x="63" y="7"/>
      <point x="63" y="21" type="curve" smooth="yes"/>
      <point x="63" y="34"/>
      <point x="72" y="41"/>
      <point x="90" y="41" type="curve" smooth="yes"/>
      <point x="144" y="41" type="line"/>
      <point x="144" y="563" type="line"/>
      <point x="90" y="563" type="line" smooth="yes"/>
      <point x="72" y="563"/>
      <point x="63" y="570"/>
      <point x="63" y="584" type="curve" smooth="yes"/>
      <point x="63" y="597"/>
      <point x="72" y="604"/>
      <point x="90" y="604" type="curve" smooth="yes"/>
      <point x="185" y="604" type="line"/>
      <point x="185" y="229" type="line"/>
      <point x="358" y="376" type="line"/>
      <point x="336" y="376" type="line" smooth="yes"/>
      <point x="318" y="376"/>
      <point x="309" y="383"/>
      <point x="309" y="397" type="curve" smooth="yes"/>
      <point x="309" y="410"/>
      <point x="318" y="417"/>
      <point x="336" y="417" type="curve" smooth="yes"/>
      <point x="466" y="417" type="line" smooth="yes"/>
      <point x="484" y="417"/>
      <point x="493" y="410"/>
      <point x="493" y="397" type="curve" smooth="yes"/>
      <point x="493" y="383"/>
      <point x="484" y="376"/>
      <point x="466" y="376" type="curve" smooth="yes"/>
      <point x="419" y="376" type="line"/>
      <point x="262" y="245" type="line"/>
      <point x="469" y="41" type="line"/>
      <point x="514" y="41" type="line" smooth="yes"/>
      <point x="532" y="41"/>
      <point x="541" y="34"/>
      <point x="541" y="21" type="curve" smooth="yes"/>
      <point x="541" y="7"/>
      <point x="532" y="0"/>
      <point x="514" y="0" type="curve" smooth="yes"/>
      <point x="383" y="0" type="line" smooth="yes"/>
      <point x="365" y="0"/>
      <point x="356" y="7"/>
      <point x="356" y="21" type="curve" smooth="yes"/>
      <point x="356" y="34"/>
      <point x="365" y="41"/>
      <point x="383" y="41" type="curve" smooth="yes"/>
      <point x="411" y="41" type="line"/>
      <point x="231" y="219" type="line"/>
    </contour>
  </outline>
</glyph>
<glyph name="l" format="1">
  <advance width="600"/>
  <unicode hex="006C"/>
  <outline>
    <contour>
      <point x="320" y="604" type="line"/>
      <point x="320" y="41" type="line"/>
      <point x="480" y="41" type="line" smooth="yes"/>
      <point x="499" y="41"/>
      <point x="508" y="34"/>
      <point x="508" y="21" type="curve" smooth="yes"/>
      <point x="508" y="7"/>
      <point x="498" y="0"/>
      <point x="480" y="0" type="curve" smooth="yes"/>
      <point x="119" y="0" type="line" smooth="yes"/>
      <point x="101" y="0"/>
      <point x="92" y="7"/>
      <point x="92" y="21" type="curve" smooth="yes"/>
      <point x="92" y="34"/>
      <point x="101" y="41"/>
      <point x="119" y="41" type="curve" smooth="yes"/>
      <point x="279" y="41" type="line"/>
      <point x="279" y="563" type="line"/>
      <point x="162" y="563" type="line" smooth="yes"/>
      <point x="144" y="563"/>
      <point x="135" y="570"/>
      <point x="135" y="584" type="curve" smooth="yes"/>
      <point x="135" y="597"/>
      <point x="144" y="604"/>
      <point x="162" y="604" type="curve" smooth="yes"/>
    </contour>
  </outline>
</glyph>
<glyph name="m" format="1">
  <advance width="600"/>
  <unicode hex="006D"/>
  <outline>
    <contour>
      <point x="112" y="417" type="line"/>
      <point x="112" y="365" type="line"/>
      <point x="146" y="413"/>
      <point x="175" y="431"/>
      <point x="217" y="431" type="curve" smooth="yes"/>
      <point x="260" y="431"/>
      <point x="292" y="408"/>
      <point x="314" y="360" type="curve"/>
      <point x="353" y="410"/>
      <point x="386" y="431"/>
      <point x="427" y="431" type="curve" smooth="yes"/>
      <point x="485" y="431"/>
      <point x="532" y="382"/>
      <point x="532" y="323" type="curve" smooth="yes"/>
      <point x="532" y="41" type="line"/>
      <point x="566" y="41" type="line" smooth="yes"/>
      <point x="584" y="41"/>
      <point x="593" y="34"/>
      <point x="593" y="21" type="curve" smooth="yes"/>
      <point x="593" y="7"/>
      <point x="584" y="0"/>
      <point x="566" y="0" type="curve" smooth="yes"/>
      <point x="492" y="0" type="line"/>
      <point x="492" y="319" type="line" smooth="yes"/>
      <point x="492" y="357"/>
      <point x="461" y="390"/>
      <point x="426" y="390" type="curve" smooth="yes"/>
      <point x="390" y="390"/>
      <point x="360" y="366"/>
      <point x="322" y="308" type="curve"/>
      <point x="322" y="41" type="line"/>
      <point x="356" y="41" type="line" smooth="yes"/>
      <point x="374" y="41"/>
      <point x="383" y="34"/>
      <point x="383" y="21" type="curve" smooth="yes"/>
      <point x="383" y="7"/>
      <point x="374" y="0"/>
      <point x="356" y="0" type="curve" smooth="yes"/>
      <point x="282" y="0" type="line"/>
      <point x="282" y="316" type="line" smooth="yes"/>
      <point x="282" y="355"/>
      <point x="251" y="390"/>
      <point x="217" y="390" type="curve" smooth="yes"/>
      <point x="182" y="390"/>
      <point x="150" y="365"/>
      <point x="112" y="308" type="curve"/>
      <point x="112" y="41" type="line"/>
      <point x="146" y="41" type="line" smooth="yes"/>
      <point x="164" y="41"/>
      <point x="173" y="34"/>
      <point x="173" y="21" type="curve" smooth="yes"/>
      <point x="173" y="7"/>
      <point x="163" y="0"/>
      <point x="146" y="0" type="curve" smooth="yes"/>
      <point x="37" y="0" type="line" smooth="yes"/>
      <point x="20" y="0"/>
      <point x="11" y="7"/>
      <point x="11" y="21" type="curve" smooth="yes"/>
      <point x="11" y="34"/>
      <point x="20" y="41"/>
      <point x="38" y="41" type="curve" smooth="yes"/>
      <point x="72" y="41" type="line"/>
      <point x="72" y="376" type="line"/>
      <point x="38" y="376" type="line" smooth="yes"/>
      <point x="20" y="376"/>
      <point x="11" y="383"/>
      <point x="11" y="397" type="curve" smooth="yes"/>
      <point x="11" y="410"/>
      <point x="20" y="417"/>
      <point x="38" y="417" type="curve" smooth="yes"/>
    </contour>
  </outline>
</glyph>
<glyph name="n" format="1">
  <advance width="600"/>
  <unicode hex="006E"/>
  <outline>
    <contour>
      <point x="167" y="417" type="line"/>
      <point x="167" y="348" type="line"/>
      <point x="225" y="412"/>
      <point x="261" y="431"/>
      <point x="323" y="431" type="curve" smooth="yes"/>
      <point x="412" y="431"/>
      <point x="480" y="372"/>
      <point x="480" y="295" type="curve" smooth="yes"/>
      <point x="480" y="41" type="line"/>
      <point x="514" y="41" type="line" smooth="yes"/>
      <point x="532" y="41"/>
      <point x="541" y="34"/>
      <point x="541" y="21" type="curve" smooth="yes"/>
      <point x="541" y="7"/>
      <point x="532" y="0"/>
      <point x="514" y="0" type="curve" smooth="yes"/>
      <point x="405" y="0" type="line" smooth="yes"/>
      <point x="387" y="0"/>
      <point x="378" y="7"/>
      <point x="378" y="21" type="curve" smooth="yes"/>
      <point x="378" y="34"/>
      <point x="387" y="41"/>
      <point x="405" y="41" type="curve" smooth="yes"/>
      <point x="439" y="41" type="line"/>
      <point x="439" y="288" type="line" smooth="yes"/>
      <point x="439" y="318"/>
      <point x="426" y="343"/>
      <point x="401" y="364" type="curve" smooth="yes"/>
      <point x="377" y="384"/>
      <point x="358" y="390"/>
      <point x="319" y="390" type="curve" smooth="yes"/>
      <point x="281" y="390"/>
      <point x="252" y="380"/>
      <point x="224" y="357" type="curve"/>
      <point x="209" y="346"/>
      <point x="199" y="335"/>
      <point x="167" y="294" type="curve"/>
      <point x="167" y="41" type="line"/>
      <point x="212" y="41" type="line" smooth="yes"/>
      <point x="230" y="41"/>
      <point x="239" y="34"/>
      <point x="239" y="21" type="curve" smooth="yes"/>
      <point x="239" y="7"/>
      <point x="230" y="0"/>
      <point x="212" y="0" type="curve" smooth="yes"/>
      <point x="81" y="0" type="line" smooth="yes"/>
      <point x="62" y="0"/>
      <point x="53" y="7"/>
      <point x="53" y="21" type="curve" smooth="yes"/>
      <point x="53" y="34"/>
      <point x="62" y="41"/>
      <point x="81" y="41" type="curve" smooth="yes"/>
      <point x="126" y="41" type="line"/>
      <point x="126" y="376" type="line"/>
      <point x="92" y="376" type="line" smooth="yes"/>
      <point x="74" y="376"/>
      <point x="65" y="383"/>
      <point x="65" y="397" type="curve" smooth="yes"/>
      <point x="65" y="410"/>
      <point x="74" y="417"/>
      <point x="92" y="417" type="curve" smooth="yes"/>
    </contour>
  </outline>
</glyph>
<glyph name="p" format="1">
  <advance width="600"/>
  <unicode hex="0070"/>
  <outline>
    <contour>
      <point x="144" y="417" type="line"/>
      <point x="144" y="335" type="line"/>
      <point x="197" y="404"/>
      <point x="247" y="431"/>
      <point x="323" y="431" type="curve" smooth="yes"/>
      <point x="447" y="431"/>
      <point x="541" y="340"/>
      <point x="541" y="221" type="curve" smooth="yes"/>
      <point x="541" y="102"/>
      <point x="446" y="10"/>
      <point x="323" y="10" type="curve" smooth="yes"/>
      <point x="246" y="10"/>
      <point x="190" y="40"/>
      <point x="144" y="106" type="curve"/>
      <point x="144" y="-145" type="line"/>
      <point x="242" y="-145" type="line" smooth="yes"/>
      <point x="260" y="-145"/>
      <point x="269" y="-152"/>
      <point x="269" y="-165" type="curve" smooth="yes"/>
      <point x="269" y="-179"/>
      <point x="260" y="-186"/>
      <point x="242" y="-186" type="curve" smooth="yes"/>
      <point x="49" y="-186" type="line" smooth="yes"/>
      <point x="31" y="-186"/>
      <point x="22" y="-179"/>
      <point x="22" y="-165" type="curve" smooth="yes"/>
      <point x="22" y="-152"/>
      <point x="31" y="-145"/>
      <point x="49" y="-145" type="curve" smooth="yes"/>
      <point x="103" y="-145" type="line"/>
      <point x="103" y="376" type="line"/>
      <point x="49" y="376" type="line" smooth="yes"/>
      <point x="31" y="376"/>
      <point x="22" y="383"/>
      <point x="22" y="397" type="curve" smooth="yes"/>
      <point x="22" y="410"/>
      <point x="31" y="417"/>
      <point x="49" y="417" type="curve" smooth="yes"/>
    </contour>
    <contour>
      <point x="322" y="390" type="curve" smooth="yes"/>
      <point x="223" y="390"/>
      <point x="144" y="315"/>
      <point x="144" y="221" type="curve" smooth="yes"/>
      <point x="144" y="126"/>
      <point x="223" y="51"/>
      <point x="322" y="51" type="curve" smooth="yes"/>
      <point x="420" y="51"/>
      <point x="500" y="126"/>
      <point x="500" y="219" type="curve" smooth="yes"/>
      <point x="500" y="316"/>
      <point x="423" y="390"/>
    </contour>
  </outline>
</glyph>
<glyph name="q" format="1">
  <advance width="600"/>
  <unicode hex="0071"/>
  <outline>
    <contour>
      <point x="461" y="335" type="curve"/>
      <point x="461" y="417" type="line"/>
      <point x="556" y="417" type="line" smooth="yes"/>
      <point x="574" y="417"/>
      <point x="583" y="410"/>
      <point x="583" y="397" type="curve" smooth="yes"/>
      <point x="583" y="383"/>
      <point x="574" y="376"/>
      <point x="556" y="376" type="curve" smooth="yes"/>
      <point x="502" y="376" type="line"/>
      <point x="502" y="-145" type="line"/>
      <point x="556" y="-145" type="line" smooth="yes"/>
      <point x="574" y="-145"/>
      <point x="583" y="-152"/>
      <point x="583" y="-165" type="curve" smooth="yes"/>
      <point x="583" y="-179"/>
      <point x="574" y="-186"/>
      <point x="556" y="-186" type="curve" smooth="yes"/>
      <point x="363" y="-186" type="line" smooth="yes"/>
      <point x="345" y="-186"/>
      <point x="336" y="-179"/>
      <point x="336" y="-165" type="curve" smooth="yes"/>
      <point x="336" y="-152"/>
      <point x="345" y="-145"/>
      <point x="363" y="-145" type="curve" smooth="yes"/>
      <point x="461" y="-145" type="line"/>
      <point x="461" y="106" type="line"/>
      <point x="415" y="40"/>
      <point x="359" y="10"/>
      <point x="281" y="10" type="curve" smooth="yes"/>
      <point x="158" y="10"/>
      <point x="63" y="102"/>
      <point x="63" y="221" type="curve" smooth="yes"/>
      <point x="63" y="340"/>
      <point x="158" y="431"/>
      <point x="282" y="431" type="curve" smooth="yes"/>
      <point x="359" y="431"/>
      <point x="414" y="401"/>
    </contour>
    <contour>
      <point x="282" y="390" type="curve" smooth="yes"/>
      <point x="182" y="390"/>
      <point x="104" y="316"/>
      <point x="104" y="221" type="curve" smooth="yes"/>
      <point x="104" y="126"/>
      <point x="182" y="51"/>
      <point x="282" y="51" type="curve" smooth="yes"/>
      <point x="381" y="51"/>
      <point x="461" y="126"/>
      <point x="461" y="219" type="curve" smooth="yes"/>
      <point x="461" y="316"/>
      <point x="383" y="390"/>
    </contour>
  </outline>
</glyph>
<glyph name="r" format="1">
  <advance width="600"/>
  <unicode hex="0072"/>
  <outline>
    <contour>
      <point x="248" y="417" type="line"/>
      <point x="248" y="315" type="line"/>
      <point x="341" y="399"/>
      <point x="390" y="427"/>
      <point x="441" y="427" type="curve" smooth="yes"/>
      <point x="470" y="427"/>
      <point x="492" y="418"/>
      <point x="518" y="396" type="curve" smooth="yes"/>
      <point x="535" y="382"/>
      <point x="541" y="374"/>
      <point x="541" y="365" type="curve" smooth="yes"/>
      <point x="541" y="353"/>
      <point x="532" y="344"/>
      <point x="520" y="344" type="curve" smooth="yes"/>
      <point x="513" y="344"/>
      <point x="511" y="345"/>
      <point x="504" y="352" type="curve" smooth="yes"/>
      <point x="480" y="375"/>
      <point x="460" y="386"/>
      <point x="438" y="386" type="curve" smooth="yes"/>
      <point x="393" y="386"/>
      <point x="358" y="363"/>
      <point x="248" y="262" type="curve"/>
      <point x="248" y="41" type="line"/>
      <point x="427" y="41" type="line" smooth="yes"/>
      <point x="444" y="41"/>
      <point x="454" y="33"/>
      <point x="454" y="20" type="curve" smooth="yes"/>
      <point x="454" y="8"/>
      <point x="444" y="0"/>
      <point x="427" y="0" type="curve" smooth="yes"/>
      <point x="111" y="0" type="line" smooth="yes"/>
      <point x="94" y="0"/>
      <point x="84" y="8"/>
      <point x="84" y="21" type="curve" smooth="yes"/>
      <point x="84" y="33"/>
      <point x="94" y="41"/>
      <point x="111" y="41" type="curve" smooth="yes"/>
      <point x="207" y="41" type="line"/>
      <point x="207" y="376" type="line"/>
      <point x="132" y="376" type="line" smooth="yes"/>
      <point x="115" y="376"/>
      <point x="105" y="384"/>
      <point x="105" y="397" type="curve" smooth="yes"/>
      <point x="105" y="409"/>
      <point x="115" y="417"/>
      <point x="132" y="417" type="curve" smooth="yes"/>
    </contour>
  </outline>
</glyph>
<glyph name="s" format="1">
  <advance width="600"/>
  <unicode hex="0073"/>
  <outline>
    <contour>
      <point x="432" y="385" type="curve"/>
      <point x="432" y="389" type="line" smooth="yes"/>
      <point x="432" y="406"/>
      <point x="440" y="417"/>
      <point x="453" y="417" type="curve" smooth="yes"/>
      <point x="466" y="417"/>
      <point x="473" y="408"/>
      <point x="473" y="389" type="curve" smooth="yes"/>
      <point x="473" y="320" type="line" smooth="yes"/>
      <point x="473" y="302"/>
      <point x="466" y="293"/>
      <point x="453" y="293" type="curve" smooth="yes"/>
      <point x="441" y="293"/>
      <point x="434" y="300"/>
      <point x="432" y="316" type="curve" smooth="yes"/>
      <point x="427" y="361"/>
      <point x="375" y="390"/>
      <point x="299" y="390" type="curve" smooth="yes"/>
      <point x="225" y="390"/>
      <point x="169" y="358"/>
      <point x="169" y="315" type="curve" smooth="yes"/>
      <point x="169" y="299"/>
      <point x="180" y="282"/>
      <point x="201" y="270" type="curve"/>
      <point x="223" y="256"/>
      <point x="229" y="254"/>
      <point x="317" y="245" type="curve" smooth="yes"/>
      <point x="378" y="238"/>
      <point x="415" y="227"/>
      <point x="447" y="206" type="curve" smooth="yes"/>
      <point x="478" y="185"/>
      <point x="497" y="151"/>
      <point x="497" y="116" type="curve" smooth="yes"/>
      <point x="497" y="40"/>
      <point x="414" y="-16"/>
      <point x="301" y="-16" type="curve" smooth="yes"/>
      <point x="236" y="-16"/>
      <point x="186" y="1"/>
      <point x="144" y="38" type="curve"/>
      <point x="144" y="27" type="line" smooth="yes"/>
      <point x="144" y="9"/>
      <point x="137" y="0"/>
      <point x="124" y="0" type="curve" smooth="yes"/>
      <point x="110" y="0"/>
      <point x="103" y="9"/>
      <point x="103" y="27" type="curve" smooth="yes"/>
      <point x="103" y="110" type="line" smooth="yes"/>
      <point x="103" y="128"/>
      <point x="110" y="137"/>
      <point x="124" y="137" type="curve" smooth="yes"/>
      <point x="136" y="137"/>
      <point x="144" y="128"/>
      <point x="144" y="115" type="curve" smooth="yes"/>
      <point x="144" y="108" type="line" smooth="yes"/>
      <point x="144" y="62"/>
      <point x="213" y="25"/>
      <point x="298" y="25" type="curve" smooth="yes"/>
      <point x="386" y="25"/>
      <point x="452" y="64"/>
      <point x="452" y="117" type="curve" smooth="yes"/>
      <point x="452" y="140"/>
      <point x="435" y="165"/>
      <point x="408" y="180" type="curve" smooth="yes"/>
      <point x="382" y="194"/>
      <point x="355" y="201"/>
      <point x="300" y="207" type="curve" smooth="yes"/>
      <point x="226" y="215"/>
      <point x="198" y="222"/>
      <point x="170" y="239" type="curve" smooth="yes"/>
      <point x="142" y="257"/>
      <point x="124" y="287"/>
      <point x="124" y="318" type="curve" smooth="yes"/>
      <point x="124" y="383"/>
      <point x="197" y="431"/>
      <point x="295" y="431" type="curve" smooth="yes"/>
      <point x="352" y="431"/>
      <point x="397" y="416"/>
    </contour>
  </outline>
</glyph>
<glyph name="t" format="1">
  <advance width="600"/>
  <unicode hex="0074"/>
  <outline>
    <contour>
      <point x="186" y="417" type="line"/>
      <point x="406" y="417" type="line" smooth="yes"/>
      <point x="424" y="417"/>
      <point x="433" y="410"/>
      <point x="433" y="397" type="curve" smooth="yes"/>
      <point x="433" y="383"/>
      <point x="424" y="376"/>
      <point x="406" y="376" type="curve" smooth="yes"/>
      <point x="186" y="376" type="line"/>
      <point x="186" y="109" type="line" smooth="yes"/>
      <point x="186" y="58"/>
      <point x="229" y="25"/>
      <point x="298" y="25" type="curve" smooth="yes"/>
      <point x="354" y="25"/>
      <point x="425" y="42"/>
      <point x="464" y="65" type="curve" smooth="yes"/>
      <point x="472" y="70"/>
      <point x="475" y="71"/>
      <point x="480" y="71" type="curve" smooth="yes"/>
      <point x="490" y="71"/>
      <point x="499" y="61"/>
      <point x="499" y="51" type="curve" smooth="yes"/>
      <point x="499" y="22"/>
      <point x="385" y="-16"/>
      <point x="300" y="-16" type="curve" smooth="yes"/>
      <point x="206" y="-16"/>
      <point x="145" y="32"/>
      <point x="145" y="107" type="curve" smooth="yes"/>
      <point x="145" y="376" type="line"/>
      <point x="71" y="376" type="line" smooth="yes"/>
      <point x="52" y="376"/>
      <point x="43" y="383"/>
      <point x="43" y="397" type="curve" smooth="yes"/>
      <point x="43" y="410"/>
      <point x="52" y="417"/>
      <point x="71" y="417" type="curve" smooth="yes"/>
      <point x="145" y="417" type="line"/>
      <point x="145" y="536" type="line" smooth="yes"/>
      <point x="145" y="554"/>
      <point x="152" y="563"/>
      <point x="166" y="563" type="curve" smooth="yes"/>
      <point x="180" y="563"/>
      <point x="186" y="555"/>
      <point x="186" y="536" type="curve" smooth="yes"/>
    </contour>
  </outline>
</glyph>
<glyph name="v" format="1">
  <advance width="600"/>
  <unicode hex="0076"/>
  <outline>
    <contour>
      <point x="336" y="0" type="line"/>
      <point x="266" y="0" type="line"/>
      <point x="98" y="376" type="line"/>
      <point x="57" y="376" type="line" smooth="yes"/>
      <point x="39" y="376"/>
      <point x="30" y="383"/>
      <point x="30" y="397" type="curve" smooth="yes"/>
      <point x="30" y="410"/>
      <point x="39" y="417"/>
      <point x="57" y="417" type="curve" smooth="yes"/>
      <point x="208" y="417" type="line" smooth="yes"/>
      <point x="227" y="417"/>
      <point x="236" y="410"/>
      <point x="236" y="397" type="curve" smooth="yes"/>
      <point x="236" y="383"/>
      <point x="227" y="376"/>
      <point x="208" y="376" type="curve" smooth="yes"/>
      <point x="143" y="376" type="line"/>
      <point x="293" y="41" type="line"/>
      <point x="312" y="41" type="line"/>
      <point x="459" y="376" type="line"/>
      <point x="391" y="376" type="line" smooth="yes"/>
      <point x="373" y="376"/>
      <point x="364" y="383"/>
      <point x="364" y="397" type="curve" smooth="yes"/>
      <point x="364" y="410"/>
      <point x="373" y="417"/>
      <point x="391" y="417" type="curve" smooth="yes"/>
      <point x="543" y="417" type="line" smooth="yes"/>
      <point x="561" y="417"/>
      <point x="570" y="410"/>
      <point x="570" y="397" type="curve" smooth="yes"/>
      <point x="570" y="383"/>
      <point x="561" y="376"/>
      <point x="543" y="376" type="curve" smooth="yes"/>
      <point x="502" y="376" type="line"/>
    </contour>
  </outline>
</glyph>
<glyph name="w" format="1">
  <advance width="600"/>
  <unicode hex="0077"/>
  <outline>
    <contour>
      <point x="441" y="0" type="line"/>
      <point x="391" y="0" type="line"/>
      <point x="300" y="259" type="line"/>
      <point x="211" y="0" type="line"/>
      <point x="160" y="0" type="line"/>
      <point x="76" y="376" type="line"/>
      <point x="57" y="376" type="line" smooth="yes"/>
      <point x="39" y="376"/>
      <point x="30" y="383"/>
      <point x="30" y="397" type="curve" smooth="yes"/>
      <point x="30" y="410"/>
      <point x="39" y="417"/>
      <point x="57" y="417" type="curve" smooth="yes"/>
      <point x="168" y="417" type="line" smooth="yes"/>
      <point x="186" y="417"/>
      <point x="195" y="410"/>
      <point x="195" y="397" type="curve" smooth="yes"/>
      <point x="195" y="383"/>
      <point x="186" y="376"/>
      <point x="168" y="376" type="curve" smooth="yes"/>
      <point x="115" y="376" type="line"/>
      <point x="187" y="56" type="line"/>
      <point x="273" y="311" type="line"/>
      <point x="324" y="311" type="line"/>
      <point x="413" y="56" type="line"/>
      <point x="482" y="376" type="line"/>
      <point x="432" y="376" type="line" smooth="yes"/>
      <point x="414" y="376"/>
      <point x="405" y="383"/>
      <point x="405" y="397" type="curve" smooth="yes"/>
      <point x="405" y="410"/>
      <point x="414" y="417"/>
      <point x="432" y="417" type="curve" smooth="yes"/>
      <point x="543" y="417" type="line" smooth="yes"/>
      <point x="561" y="417"/>
      <point x="570" y="410"/>
      <point x="570" y="397" type="curve" smooth="yes"/>
      <point x="570" y="383"/>
      <point x="561" y="376"/>
      <point x="543" y="376" type="curve" smooth="yes"/>
      <point x="524" y="376" type="line"/>
    </contour>
  </outline>
</glyph>
<glyph name="x" format="1">
  <advance width="600"/>
  <unicode hex="0078"/>
  <outline>
    <contour>
      <point x="329" y="219" type="line"/>
      <point x="513" y="41" type="line"/>
      <point x="522" y="41" type="line" smooth="yes"/>
      <point x="540" y="41"/>
      <point x="549" y="34"/>
      <point x="549" y="21" type="curve" smooth="yes"/>
      <point x="549" y="7"/>
      <point x="540" y="0"/>
      <point x="522" y="0" type="curve" smooth="yes"/>
      <point x="390" y="0" type="line" smooth="yes"/>
      <point x="372" y="0"/>
      <point x="363" y="7"/>
      <point x="363" y="21" type="curve" smooth="yes"/>
      <point x="363" y="34"/>
      <point x="372" y="41"/>
      <point x="390" y="41" type="curve" smooth="yes"/>
      <point x="455" y="41" type="line"/>
      <point x="300" y="190" type="line"/>
      <point x="143" y="41" type="line"/>
      <point x="211" y="41" type="line" smooth="yes"/>
      <point x="229" y="41"/>
      <point x="238" y="34"/>
      <point x="238" y="21" type="curve" smooth="yes"/>
      <point x="238" y="7"/>
      <point x="229" y="0"/>
      <point x="211" y="0" type="curve" smooth="yes"/>
      <point x="78" y="0" type="line" smooth="yes"/>
      <point x="60" y="0"/>
      <point x="51" y="7"/>
      <point x="51" y="21" type="curve" smooth="yes"/>
      <point x="51" y="34"/>
      <point x="60" y="41"/>
      <point x="78" y="41" type="curve" smooth="yes"/>
      <point x="87" y="41" type="line"/>
      <point x="271" y="219" type="line"/>
      <point x="108" y="376" type="line"/>
      <point x="101" y="376" type="line" smooth="yes"/>
      <point x="83" y="376"/>
      <point x="74" y="383"/>
      <point x="74" y="397" type="curve" smooth="yes"/>
      <point x="74" y="410"/>
      <point x="83" y="417"/>
      <point x="101" y="417" type="curve" smooth="yes"/>
      <point x="212" y="417" type="line" smooth="yes"/>
      <point x="230" y="417"/>
      <point x="239" y="411"/>
      <point x="239" y="397" type="curve" smooth="yes"/>
      <point x="239" y="383"/>
      <point x="230" y="376"/>
      <point x="212" y="376" type="curve" smooth="yes"/>
      <point x="166" y="376" type="line"/>
      <point x="300" y="246" type="line"/>
      <point x="437" y="376" type="line"/>
      <point x="389" y="376" type="line" smooth="yes"/>
      <point x="371" y="376"/>
      <point x="362" y="383"/>
      <point x="362" y="397" type="curve" smooth="yes"/>
      <point x="362" y="410"/>
      <point x="371" y="417"/>
      <point x="389" y="417" type="curve" smooth="yes"/>
      <point x="499" y="417" type="line" smooth="yes"/>
      <point x="517" y="417"/>
      <point x="526" y="410"/>
      <point x="526" y="397" type="curve" smooth="yes"/>
      <point x="526" y="383"/>
      <point x="517" y="376"/>
      <point x="499" y="376" type="curve" smooth="yes"/>
      <point x="492" y="376" type="line"/>
    </contour>
  </outline>
</glyph>
<glyph name="z" format="1">
  <advance width="600"/>
  <unicode hex="007A"/>
  <outline>
    <contour>
      <point x="474" y="417" type="line"/>
      <point x="474" y="381" type="line"/>
      <point x="171" y="41" type="line"/>
      <point x="448" y="41" type="line"/>
      <point x="448" y="97" type="line" smooth="yes"/>
      <point x="448" y="115"/>
      <point x="455" y="124"/>
      <point x="469" y="124" type="curve" smooth="yes"/>
      <point x="482" y="124"/>
      <point x="489" y="115"/>
      <point x="489" y="97" type="curve" smooth="yes"/>
      <point x="489" y="0" type="line"/>
      <point x="115" y="0" type="line"/>
      <point x="115" y="36" type="line"/>
      <point x="416" y="376" type="line"/>
      <point x="165" y="376" type="line"/>
      <point x="165" y="321" type="line" smooth="yes"/>
      <point x="165" y="303"/>
      <point x="158" y="294"/>
      <point x="145" y="294" type="curve" smooth="yes"/>
      <point x="131" y="294"/>
      <point x="124" y="303"/>
      <point x="124" y="321" type="curve" smooth="yes"/>
      <point x="124" y="417" type="line"/>
    </contour>
  </outline>
</glyph>
<glyph name="braceleft" format="1">
  <advance width="600"/>
  <unicode hex="007B"/>
  <outline>
    <contour>
      <point x="322" y="499" type="curve" smooth="yes"/>
      <point x="322" y="326" type="line" smooth="yes"/>
      <point x="322" y="285"/>
      <point x="311" y="264"/>
      <point x="278" y="240" type="curve"/>
      <point x="311" y="216"/>
      <point x="322" y="195"/>
      <point x="322" y="154" type="curve" smooth="yes"/>
      <point x="322" y="-19" type="line" smooth="yes"/>
      <point x="322" y="-53"/>
      <point x="345" y="-80"/>
      <point x="377" y="-83" type="curve" smooth="yes"/>
      <point x="396" y="-85"/>
      <point x="403" y="-90"/>
      <point x="403" y="-104" type="curve" smooth="yes"/>
      <point x="403" y="-116"/>
      <point x="394" y="-124"/>
      <point x="379" y="-124" type="curve" smooth="yes"/>
      <point x="324" y="-124"/>
      <point x="281" y="-78"/>
      <point x="281" y="-19" type="curve" smooth="yes"/>
      <point x="281" y="154" type="line" smooth="yes"/>
      <point x="281" y="190"/>
      <point x="257" y="216"/>
      <point x="221" y="219" type="curve" smooth="yes"/>
      <point x="205" y="220"/>
      <point x="197" y="226"/>
      <point x="197" y="240" type="curve" smooth="yes"/>
      <point x="197" y="253"/>
      <point x="205" y="260"/>
      <point x="221" y="261" type="curve" smooth="yes"/>
      <point x="257" y="264"/>
      <point x="281" y="289"/>
      <point x="281" y="326" type="curve" smooth="yes"/>
      <point x="281" y="499" type="line" smooth="yes"/>
      <point x="281" y="558"/>
      <point x="324" y="604"/>
      <point x="379" y="604" type="curve" smooth="yes"/>
      <point x="394" y="604"/>
      <point x="403" y="596"/>
      <point x="403" y="584" type="curve" smooth="yes"/>
      <point x="403" y="570"/>
      <point x="396" y="565"/>
      <point x="377" y="563" type="curve" smooth="yes"/>
      <point x="345" y="560"/>
      <point x="322" y="533"/>
    </contour>
  </outline>
</glyph>
<glyph name="bar" format="1">
  <advance width="600"/>
  <unicode hex="007C"/>
  <outline>
    <contour>
      <point x="320" y="577" type="curve" smooth="yes"/>
      <point x="320" y="-97" type="line" smooth="yes"/>
      <point x="320" y="-115"/>
      <point x="313" y="-124"/>
      <point x="300" y="-124" type="curve" smooth="yes"/>
      <point x="287" y="-124"/>
      <point x="280" y="-115"/>
      <point x="280" y="-97" type="curve" smooth="yes"/>
      <point x="280" y="577" type="line" smooth="yes"/>
      <point x="280" y="595"/>
      <point x="287" y="604"/>
      <point x="300" y="604" type="curve" smooth="yes"/>
      <point x="313" y="604"/>
      <point x="320" y="595"/>
    </contour>
  </outline>
</glyph>
<glyph name="asciitilde" format="1">
  <advance width="600"/>
  <unicode hex="007E"/>
  <outline>
    <contour>
      <point x="488" y="330" type="curve" smooth="yes"/>
      <point x="499" y="330"/>
      <point x="508" y="321"/>
      <point x="508" y="311" type="curve" smooth="yes"/>
      <point x="508" y="303"/>
      <point x="500" y="291"/>
      <point x="483" y="271" type="curve" smooth="yes"/>
      <point x="449" y="230"/>
      <point x="420" y="212"/>
      <point x="389" y="212" type="curve" smooth="yes"/>
      <point x="357" y="212"/>
      <point x="336" y="224"/>
      <point x="273" y="277" type="curve" smooth="yes"/>
      <point x="248" y="297"/>
      <point x="229" y="307"/>
      <point x="212" y="307" type="curve" smooth="yes"/>
      <point x="186" y="307"/>
      <point x="175" y="298"/>
      <point x="131" y="242" type="curve" smooth="yes"/>
      <point x="124" y="233"/>
      <point x="119" y="230"/>
      <point x="111" y="230" type="curve" smooth="yes"/>
      <point x="101" y="230"/>
      <point x="92" y="239"/>
      <point x="92" y="249" type="curve" smooth="yes"/>
      <point x="92" y="257"/>
      <point x="100" y="271"/>
      <point x="120" y="294" type="curve" smooth="yes"/>
      <point x="154" y="333"/>
      <point x="179" y="348"/>
      <point x="212" y="348" type="curve" smooth="yes"/>
      <point x="244" y="348"/>
      <point x="259" y="340"/>
      <point x="313" y="297" type="curve" smooth="yes"/>
      <point x="357" y="261"/>
      <point x="370" y="253"/>
      <point x="386" y="253" type="curve" smooth="yes"/>
      <point x="410" y="253"/>
      <point x="434" y="270"/>
      <point x="459" y="305" type="curve" smooth="yes"/>
      <point x="474" y="327"/>
      <point x="478" y="330"/>
    </contour>
  </outline>
</glyph>
<glyph name="exclamdown" format="1">
  <advance width="600"/>
  <unicode hex="00A1"/>
  <outline>
    <contour>
      <point x="262" y="-161" type="curve" smooth="yes"/>
      <point x="280" y="165" type="line" smooth="yes"/>
      <point x="281" y="185"/>
      <point x="287" y="193"/>
      <point x="301" y="193" type="curve" smooth="yes"/>
      <point x="314" y="193"/>
      <point x="320" y="184"/>
      <point x="321" y="165" type="curve" smooth="yes"/>
      <point x="339" y="-161" type="line" smooth="yes"/>
      <point x="340" y="-168"/>
      <point x="340" y="-173"/>
      <point x="340" y="-177" type="curve" smooth="yes"/>
      <point x="340" y="-199"/>
      <point x="323" y="-216"/>
      <point x="300" y="-216" type="curve" smooth="yes"/>
      <point x="278" y="-216"/>
      <point x="261" y="-199"/>
      <point x="261" y="-177" type="curve" smooth="yes"/>
      <point x="261" y="-175"/>
      <point x="261" y="-169"/>
    </contour>
    <contour>
      <point x="307" y="317" type="curve" smooth="yes"/>
      <point x="294" y="317" type="line" smooth="yes"/>
      <point x="264" y="317"/>
      <point x="240" y="339"/>
      <point x="240" y="367" type="curve" smooth="yes"/>
      <point x="240" y="395"/>
      <point x="264" y="417"/>
      <point x="294" y="417" type="curve" smooth="yes"/>
      <point x="307" y="417" type="line" smooth="yes"/>
      <point x="337" y="417"/>
      <point x="360" y="395"/>
      <point x="360" y="367" type="curve" smooth="yes"/>
      <point x="360" y="339"/>
      <point x="337" y="317"/>
    </contour>
  </outline>
</glyph>
<glyph name="cent" format="1">
  <advance width="600"/>
  <unicode hex="00A2"/>
  <outline>
    <contour>
      <point x="280" y="496" type="curve"/>
      <point x="280" y="603" type="line" smooth="yes"/>
      <point x="280" y="621"/>
      <point x="287" y="630"/>
      <point x="301" y="630" type="curve" smooth="yes"/>
      <point x="314" y="630"/>
      <point x="321" y="621"/>
      <point x="321" y="603" type="curve" smooth="yes"/>
      <point x="321" y="497" type="line"/>
      <point x="359" y="497"/>
      <point x="400" y="483"/>
      <point x="425" y="461" type="curve"/>
      <point x="428" y="472"/>
      <point x="435" y="478"/>
      <point x="445" y="478" type="curve" smooth="yes"/>
      <point x="458" y="478"/>
      <point x="466" y="469"/>
      <point x="466" y="453" type="curve" smooth="yes"/>
      <point x="466" y="392" type="line" smooth="yes"/>
      <point x="466" y="373"/>
      <point x="459" y="364"/>
      <point x="446" y="364" type="curve" smooth="yes"/>
      <point x="434" y="364"/>
      <point x="428" y="371"/>
      <point x="426" y="387" type="curve" smooth="yes"/>
      <point x="420" y="430"/>
      <point x="375" y="458"/>
      <point x="311" y="458" type="curve" smooth="yes"/>
      <point x="220" y="458"/>
      <point x="154" y="397"/>
      <point x="154" y="311" type="curve" smooth="yes"/>
      <point x="154" y="227"/>
      <point x="219" y="165"/>
      <point x="307" y="165" type="curve" smooth="yes"/>
      <point x="353" y="165"/>
      <point x="399" y="180"/>
      <point x="432" y="207" type="curve" smooth="yes"/>
      <point x="441" y="214"/>
      <point x="444" y="215"/>
      <point x="450" y="215" type="curve" smooth="yes"/>
      <point x="461" y="215"/>
      <point x="469" y="207"/>
      <point x="469" y="195" type="curve" smooth="yes"/>
      <point x="469" y="168"/>
      <point x="388" y="130"/>
      <point x="321" y="127" type="curve"/>
      <point x="321" y="14" type="line" smooth="yes"/>
      <point x="321" y="-4"/>
      <point x="314" y="-13"/>
      <point x="301" y="-13" type="curve" smooth="yes"/>
      <point x="287" y="-13"/>
      <point x="280" y="-4"/>
      <point x="280" y="14" type="curve" smooth="yes"/>
      <point x="280" y="127" type="line"/>
      <point x="183" y="138"/>
      <point x="113" y="216"/>
      <point x="113" y="311" type="curve" smooth="yes"/>
      <point x="113" y="373"/>
      <point x="143" y="429"/>
      <point x="194" y="463" type="curve" smooth="yes"/>
      <point x="217" y="478"/>
      <point x="238" y="487"/>
    </contour>
  </outline>
</glyph>
<glyph name="sterling" format="1">
  <advance width="600"/>
  <unicode hex="00A3"/>
  <outline>
    <contour>
      <point x="182" y="41" type="curve"/>
      <point x="434" y="41" type="line" smooth="yes"/>
      <point x="459" y="41"/>
      <point x="477" y="60"/>
      <point x="479" y="92" type="curve" smooth="yes"/>
      <point x="481" y="108"/>
      <point x="487" y="115"/>
      <point x="500" y="115" type="curve" smooth="yes"/>
      <point x="512" y="115"/>
      <point x="520" y="106"/>
      <point x="520" y="93" type="curve" smooth="yes"/>
      <point x="520" y="42"/>
      <point x="482" y="0"/>
      <point x="436" y="0" type="curve" smooth="yes"/>
      <point x="113" y="0" type="line" smooth="yes"/>
      <point x="95" y="0"/>
      <point x="86" y="7"/>
      <point x="86" y="21" type="curve" smooth="yes"/>
      <point x="86" y="32"/>
      <point x="94" y="40"/>
      <point x="108" y="40" type="curve" smooth="yes"/>
      <point x="155" y="42"/>
      <point x="198" y="128"/>
      <point x="198" y="220" type="curve" smooth="yes"/>
      <point x="198" y="237"/>
      <point x="196" y="260"/>
      <point x="194" y="273" type="curve"/>
      <point x="90" y="273" type="line" smooth="yes"/>
      <point x="72" y="273"/>
      <point x="63" y="280"/>
      <point x="63" y="294" type="curve" smooth="yes"/>
      <point x="63" y="307"/>
      <point x="72" y="314"/>
      <point x="90" y="314" type="curve" smooth="yes"/>
      <point x="184" y="314" type="line"/>
      <point x="163" y="380"/>
      <point x="157" y="409"/>
      <point x="157" y="435" type="curve" smooth="yes"/>
      <point x="157" y="514"/>
      <point x="220" y="578"/>
      <point x="298" y="578" type="curve" smooth="yes"/>
      <point x="334" y="578"/>
      <point x="367" y="565"/>
      <point x="396" y="539" type="curve" smooth="yes"/>
      <point x="415" y="522"/>
      <point x="427" y="505"/>
      <point x="427" y="495" type="curve" smooth="yes"/>
      <point x="427" y="486"/>
      <point x="416" y="476"/>
      <point x="407" y="476" type="curve" smooth="yes"/>
      <point x="401" y="476"/>
      <point x="396" y="479"/>
      <point x="389" y="488" type="curve" smooth="yes"/>
      <point x="361" y="522"/>
      <point x="334" y="537"/>
      <point x="299" y="537" type="curve" smooth="yes"/>
      <point x="245" y="537"/>
      <point x="198" y="490"/>
      <point x="198" y="435" type="curve" smooth="yes"/>
      <point x="198" y="412"/>
      <point x="201" y="397"/>
      <point x="221" y="328" type="curve" smooth="yes"/>
      <point x="222" y="327"/>
      <point x="223" y="321"/>
      <point x="225" y="314" type="curve"/>
      <point x="324" y="314" type="line" smooth="yes"/>
      <point x="342" y="314"/>
      <point x="351" y="307"/>
      <point x="351" y="293" type="curve" smooth="yes"/>
      <point x="351" y="280"/>
      <point x="342" y="273"/>
      <point x="324" y="273" type="curve" smooth="yes"/>
      <point x="234" y="273" type="line"/>
      <point x="237" y="252"/>
      <point x="239" y="234"/>
      <point x="239" y="216" type="curve" smooth="yes"/>
      <point x="239" y="148"/>
      <point x="219" y="87"/>
    </contour>
  </outline>
</glyph>
<glyph name="brokenbar" format="1">
  <advance width="600"/>
  <unicode hex="00A6"/>
  <outline>
    <contour>
      <point x="320" y="577" type="curve" smooth="yes"/>
      <point x="320" y="310" type="line" smooth="yes"/>
      <point x="320" y="292"/>
      <point x="313" y="283"/>
      <point x="300" y="283" type="curve" smooth="yes"/>
      <point x="287" y="283"/>
      <point x="280" y="292"/>
      <point x="280" y="310" type="curve" smooth="yes"/>
      <point x="280" y="577" type="line" smooth="yes"/>
      <point x="280" y="595"/>
      <point x="287" y="604"/>
      <point x="300" y="604" type="curve" smooth="yes"/>
      <point x="313" y="604"/>
      <point x="320" y="595"/>
    </contour>
    <contour>
      <point x="320" y="170" type="curve" smooth="yes"/>
      <point x="320" y="-97" type="line" smooth="yes"/>
      <point x="320" y="-115"/>
      <point x="313" y="-124"/>
      <point x="300" y="-124" type="curve" smooth="yes"/>
      <point x="287" y="-124"/>
      <point x="280" y="-115"/>
      <point x="280" y="-97" type="curve" smooth="yes"/>
      <point x="280" y="170" type="line" smooth="yes"/>
      <point x="280" y="188"/>
      <point x="287" y="197"/>
      <point x="300" y="197" type="curve" smooth="yes"/>
      <point x="313" y="197"/>
      <point x="320" y="188"/>
    </contour>
  </outline>
</glyph>
<glyph name="section" format="1">
  <advance width="600"/>
  <unicode hex="00A7"/>
  <outline>
    <contour>
      <point x="496" y="603" type="line"/>
      <point x="496" y="494" type="line" smooth="yes"/>
      <point x="496" y="479"/>
      <point x="489" y="470"/>
      <point x="476" y="470" type="curve" smooth="yes"/>
      <point x="463" y="470"/>
      <point x="455" y="479"/>
      <point x="455" y="494" type="curve" smooth="yes"/>
      <point x="455" y="563" type="line"/>
      <point x="287" y="563" type="line" smooth="yes"/>
      <point x="238" y="563"/>
      <point x="196" y="528"/>
      <point x="196" y="487" type="curve" smooth="yes"/>
      <point x="196" y="450"/>
      <point x="226" y="424"/>
      <point x="345" y="358" type="curve" smooth="yes"/>
      <point x="401" y="327" type="line" smooth="yes"/>
      <point x="495" y="276"/>
      <point x="534" y="234"/>
      <point x="534" y="185" type="curve" smooth="yes"/>
      <point x="534" y="159"/>
      <point x="521" y="137"/>
      <point x="498" y="121" type="curve" smooth="yes"/>
      <point x="481" y="110"/>
      <point x="466" y="105"/>
      <point x="432" y="101" type="curve"/>
      <point x="441" y="86"/>
      <point x="445" y="71"/>
      <point x="445" y="52" type="curve" smooth="yes"/>
      <point x="445" y="-13"/>
      <point x="388" y="-62"/>
      <point x="312" y="-62" type="curve" smooth="yes"/>
      <point x="105" y="-62" type="line"/>
      <point x="105" y="49" type="line" smooth="yes"/>
      <point x="105" y="64"/>
      <point x="112" y="73"/>
      <point x="126" y="73" type="curve" smooth="yes"/>
      <point x="139" y="73"/>
      <point x="146" y="64"/>
      <point x="146" y="49" type="curve" smooth="yes"/>
      <point x="146" y="-22" type="line"/>
      <point x="311" y="-22" type="line" smooth="yes"/>
      <point x="364" y="-22"/>
      <point x="404" y="11"/>
      <point x="404" y="53" type="curve" smooth="yes"/>
      <point x="404" y="88"/>
      <point x="369" y="121"/>
      <point x="273" y="175" type="curve" smooth="yes"/>
      <point x="208" y="211" type="line" smooth="yes"/>
      <point x="110" y="266"/>
      <point x="66" y="312"/>
      <point x="66" y="358" type="curve" smooth="yes"/>
      <point x="66" y="403"/>
      <point x="107" y="436"/>
      <point x="169" y="441" type="curve"/>
      <point x="160" y="456"/>
      <point x="156" y="469"/>
      <point x="156" y="487" type="curve" smooth="yes"/>
      <point x="156" y="550"/>
      <point x="215" y="603"/>
      <point x="284" y="603" type="curve" smooth="yes"/>
    </contour>
    <contour>
      <point x="384" y="290" type="curve"/>
      <point x="320" y="326" type="line" smooth="yes"/>
      <point x="256" y="361"/>
      <point x="228" y="379"/>
      <point x="201" y="403" type="curve"/>
      <point x="195" y="402"/>
      <point x="195" y="402"/>
      <point x="183" y="402" type="curve" smooth="yes"/>
      <point x="141" y="402"/>
      <point x="109" y="383"/>
      <point x="109" y="357" type="curve" smooth="yes"/>
      <point x="109" y="328"/>
      <point x="151" y="290"/>
      <point x="234" y="243" type="curve" smooth="yes"/>
      <point x="296" y="208" type="line" smooth="yes"/>
      <point x="351" y="177"/>
      <point x="382" y="157"/>
      <point x="400" y="139" type="curve"/>
      <point x="404" y="141"/>
      <point x="404" y="141"/>
      <point x="418" y="142" type="curve" smooth="yes"/>
      <point x="463" y="143"/>
      <point x="491" y="159"/>
      <point x="491" y="184" type="curve" smooth="yes"/>
      <point x="491" y="213"/>
      <point x="449" y="255"/>
    </contour>
  </outline>
</glyph>
<glyph name="dieresis" format="1">
  <advance width="600"/>
  <unicode hex="00A8"/>
  <outline>
    <contour>
      <point x="190" y="611" type="curve" smooth="yes"/>
      <point x="218" y="611"/>
      <point x="240" y="588"/>
      <point x="240" y="560" type="curve" smooth="yes"/>
      <point x="240" y="534"/>
      <point x="217" y="511"/>
      <point x="190" y="511" type="curve" smooth="yes"/>
      <point x="163" y="511"/>
      <point x="140" y="534"/>
      <point x="140" y="561" type="curve" smooth="yes"/>
      <point x="140" y="588"/>
      <point x="163" y="611"/>
    </contour>
    <contour>
      <point x="411" y="611" type="curve" smooth="yes"/>
      <point x="439" y="611"/>
      <point x="461" y="588"/>
      <point x="461" y="560" type="curve" smooth="yes"/>
      <point x="461" y="534"/>
      <point x="438" y="511"/>
      <point x="411" y="511" type="curve" smooth="yes"/>
      <point x="384" y="511"/>
      <point x="361" y="534"/>
      <point x="361" y="561" type="curve" smooth="yes"/>
      <point x="361" y="588"/>
      <point x="384" y="611"/>
    </contour>
  </outline>
</glyph>
<glyph name="copyright" format="1">
  <advance width="600"/>
  <unicode hex="00A9"/>
  <outline>
    <contour>
      <point x="153" y="260" type="curve" smooth="yes"/>
      <point x="153" y="305" type="line" smooth="yes"/>
      <point x="153" y="385"/>
      <point x="216" y="450"/>
      <point x="292" y="450" type="curve" smooth="yes"/>
      <point x="324" y="450"/>
      <point x="346" y="443"/>
      <point x="381" y="421" type="curve"/>
      <point x="381" y="435"/>
      <point x="388" y="443"/>
      <point x="399" y="443" type="curve" smooth="yes"/>
      <point x="410" y="443"/>
      <point x="417" y="435"/>
      <point x="417" y="423" type="curve" smooth="yes"/>
      <point x="417" y="358" type="line" smooth="yes"/>
      <point x="417" y="346"/>
      <point x="410" y="338"/>
      <point x="399" y="338" type="curve" smooth="yes"/>
      <point x="389" y="338"/>
      <point x="383" y="345"/>
      <point x="381" y="357" type="curve" smooth="yes"/>
      <point x="378" y="388"/>
      <point x="338" y="414"/>
      <point x="293" y="414" type="curve" smooth="yes"/>
      <point x="235" y="414"/>
      <point x="189" y="364"/>
      <point x="189" y="302" type="curve" smooth="yes"/>
      <point x="189" y="263" type="line" smooth="yes"/>
      <point x="189" y="200"/>
      <point x="240" y="147"/>
      <point x="302" y="147" type="curve" smooth="yes"/>
      <point x="338" y="147"/>
      <point x="363" y="160"/>
      <point x="392" y="194" type="curve" smooth="yes"/>
      <point x="397" y="200"/>
      <point x="401" y="202"/>
      <point x="408" y="202" type="curve" smooth="yes"/>
      <point x="417" y="202"/>
      <point x="425" y="194"/>
      <point x="425" y="185" type="curve" smooth="yes"/>
      <point x="425" y="177"/>
      <point x="418" y="166"/>
      <point x="402" y="152" type="curve" smooth="yes"/>
      <point x="373" y="125"/>
      <point x="338" y="111"/>
      <point x="302" y="111" type="curve" smooth="yes"/>
      <point x="223" y="111"/>
      <point x="153" y="181"/>
    </contour>
    <contour>
      <point x="300" y="578" type="curve" smooth="yes"/>
      <point x="463" y="578"/>
      <point x="596" y="445"/>
      <point x="596" y="282" type="curve" smooth="yes"/>
      <point x="596" y="116"/>
      <point x="464" y="-15"/>
      <point x="296" y="-15" type="curve" smooth="yes"/>
      <point x="136" y="-15"/>
      <point x="3" y="120"/>
      <point x="3" y="282" type="curve" smooth="yes"/>
      <point x="3" y="445"/>
      <point x="136" y="578"/>
    </contour>
    <contour>
      <point x="300" y="537" type="curve" smooth="yes"/>
      <point x="159" y="537"/>
      <point x="44" y="423"/>
      <point x="44" y="282" type="curve" smooth="yes"/>
      <point x="44" y="142"/>
      <point x="159" y="26"/>
      <point x="296" y="26" type="curve" smooth="yes"/>
      <point x="441" y="26"/>
      <point x="555" y="139"/>
      <point x="555" y="282" type="curve" smooth="yes"/>
      <point x="555" y="422"/>
      <point x="440" y="537"/>
    </contour>
  </outline>
</glyph>
<glyph name="ordfeminine" format="1">
  <advance width="600"/>
  <unicode hex="00AA"/>
  <outline>
    <contour>
      <point x="361" y="282" type="line"/>
      <point x="361" y="308" type="line"/>
      <point x="320" y="286"/>
      <point x="293" y="279"/>
      <point x="254" y="279" type="curve" smooth="yes"/>
      <point x="195" y="279"/>
      <point x="155" y="311"/>
      <point x="155" y="358" type="curve" smooth="yes"/>
      <point x="155" y="415"/>
      <point x="211" y="455"/>
      <point x="288" y="455" type="curve" smooth="yes"/>
      <point x="311" y="455"/>
      <point x="331" y="452"/>
      <point x="361" y="446" type="curve"/>
      <point x="361" y="490" type="line" smooth="yes"/>
      <point x="361" y="518"/>
      <point x="335" y="537"/>
      <point x="296" y="537" type="curve" smooth="yes"/>
      <point x="278" y="537"/>
      <point x="250" y="530"/>
      <point x="220" y="518" type="curve" smooth="yes"/>
      <point x="212" y="514"/>
      <point x="210" y="514"/>
      <point x="206" y="514" type="curve" smooth="yes"/>
      <point x="197" y="514"/>
      <point x="189" y="523"/>
      <point x="189" y="533" type="curve" smooth="yes"/>
      <point x="189" y="542"/>
      <point x="193" y="547"/>
      <point x="203" y="552" type="curve" smooth="yes"/>
      <point x="233" y="564"/>
      <point x="274" y="574"/>
      <point x="298" y="574" type="curve" smooth="yes"/>
      <point x="356" y="574"/>
      <point x="398" y="539"/>
      <point x="398" y="490" type="curve" smooth="yes"/>
      <point x="398" y="319" type="line"/>
      <point x="424" y="319" type="line" smooth="yes"/>
      <point x="439" y="319"/>
      <point x="447" y="312"/>
      <point x="447" y="300" type="curve" smooth="yes"/>
      <point x="447" y="289"/>
      <point x="438" y="282"/>
      <point x="424" y="282" type="curve" smooth="yes"/>
    </contour>
    <contour>
      <point x="361" y="350" type="curve"/>
      <point x="361" y="409" type="line"/>
      <point x="345" y="415"/>
      <point x="313" y="420"/>
      <point x="290" y="420" type="curve" smooth="yes"/>
      <point x="233" y="420"/>
      <point x="192" y="393"/>
      <point x="192" y="356" type="curve" smooth="yes"/>
      <point x="192" y="332"/>
      <point x="217" y="316"/>
      <point x="254" y="316" type="curve" smooth="yes"/>
      <point x="292" y="316"/>
      <point x="326" y="327"/>
    </contour>
  </outline>
</glyph>
<glyph name="guillemotleft" format="1">
  <advance width="600"/>
  <unicode hex="00AB"/>
  <outline>
    <contour>
      <point x="63" y="209" type="line"/>
      <point x="271" y="406" type="line" smooth="yes"/>
      <point x="279" y="414"/>
      <point x="285" y="417"/>
      <point x="292" y="417" type="curve" smooth="yes"/>
      <point x="303" y="417"/>
      <point x="312" y="408"/>
      <point x="312" y="397" type="curve" smooth="yes"/>
      <point x="312" y="390"/>
      <point x="311" y="388"/>
      <point x="301" y="377" type="curve" smooth="yes"/>
      <point x="158" y="209" type="line"/>
      <point x="301" y="40" type="line" smooth="yes"/>
      <point x="311" y="29"/>
      <point x="312" y="27"/>
      <point x="312" y="20" type="curve" smooth="yes"/>
      <point x="312" y="9"/>
      <point x="303" y="0"/>
      <point x="292" y="0" type="curve" smooth="yes"/>
      <point x="286" y="0"/>
      <point x="279" y="4"/>
      <point x="271" y="11" type="curve" smooth="yes"/>
    </contour>
    <contour>
      <point x="292" y="209" type="line"/>
      <point x="500" y="406" type="line" smooth="yes"/>
      <point x="508" y="414"/>
      <point x="514" y="417"/>
      <point x="521" y="417" type="curve" smooth="yes"/>
      <point x="532" y="417"/>
      <point x="541" y="408"/>
      <point x="541" y="397" type="curve" smooth="yes"/>
      <point x="541" y="390"/>
      <point x="540" y="388"/>
      <point x="530" y="377" type="curve" smooth="yes"/>
      <point x="387" y="209" type="line"/>
      <point x="530" y="40" type="line" smooth="yes"/>
      <point x="540" y="29"/>
      <point x="541" y="27"/>
      <point x="541" y="20" type="curve" smooth="yes"/>
      <point x="541" y="9"/>
      <point x="532" y="0"/>
      <point x="521" y="0" type="curve" smooth="yes"/>
      <point x="515" y="0"/>
      <point x="508" y="4"/>
      <point x="500" y="11" type="curve" smooth="yes"/>
    </contour>
  </outline>
</glyph>
<glyph name="logicalnot" format="1">
  <advance width="600"/>
  <unicode hex="00AC"/>
  <outline>
    <contour>
      <point x="487" y="397" type="line"/>
      <point x="99" y="397" type="line" smooth="yes"/>
      <point x="81" y="397"/>
      <point x="72" y="404"/>
      <point x="72" y="418" type="curve" smooth="yes"/>
      <point x="72" y="431"/>
      <point x="81" y="438"/>
      <point x="99" y="438" type="curve" smooth="yes"/>
      <point x="528" y="438" type="line"/>
      <point x="528" y="195" type="line" smooth="yes"/>
      <point x="528" y="177"/>
      <point x="521" y="168"/>
      <point x="507" y="168" type="curve" smooth="yes"/>
      <point x="494" y="168"/>
      <point x="487" y="177"/>
      <point x="487" y="195" type="curve" smooth="yes"/>
    </contour>
  </outline>
</glyph>
<glyph name="registered" format="1">
  <advance width="600"/>
  <unicode hex="00AE"/>
  <outline>
    <contour>
      <point x="233" y="258" type="line"/>
      <point x="233" y="156" type="line"/>
      <point x="269" y="156" type="line" smooth="yes"/>
      <point x="281" y="156"/>
      <point x="289" y="149"/>
      <point x="289" y="138" type="curve" smooth="yes"/>
      <point x="289" y="127"/>
      <point x="281" y="120"/>
      <point x="269" y="120" type="curve" smooth="yes"/>
      <point x="173" y="120" type="line" smooth="yes"/>
      <point x="160" y="120"/>
      <point x="152" y="127"/>
      <point x="152" y="138" type="curve" smooth="yes"/>
      <point x="152" y="149"/>
      <point x="160" y="156"/>
      <point x="173" y="156" type="curve" smooth="yes"/>
      <point x="197" y="156" type="line"/>
      <point x="197" y="407" type="line"/>
      <point x="173" y="407" type="line" smooth="yes"/>
      <point x="160" y="407"/>
      <point x="152" y="414"/>
      <point x="152" y="425" type="curve" smooth="yes"/>
      <point x="152" y="436"/>
      <point x="160" y="443"/>
      <point x="173" y="443" type="curve" smooth="yes"/>
      <point x="311" y="443" type="line" smooth="yes"/>
      <point x="372" y="443"/>
      <point x="416" y="404"/>
      <point x="416" y="350" type="curve" smooth="yes"/>
      <point x="416" y="312"/>
      <point x="389" y="281"/>
      <point x="346" y="269" type="curve"/>
      <point x="379" y="243"/>
      <point x="390" y="228"/>
      <point x="431" y="156" type="curve"/>
      <point x="446" y="156" type="line" smooth="yes"/>
      <point x="458" y="156"/>
      <point x="466" y="149"/>
      <point x="466" y="138" type="curve" smooth="yes"/>
      <point x="466" y="127"/>
      <point x="458" y="120"/>
      <point x="446" y="120" type="curve" smooth="yes"/>
      <point x="407" y="120" type="line"/>
      <point x="370" y="198"/>
      <point x="331" y="246"/>
      <point x="296" y="258" type="curve"/>
    </contour>
    <contour>
      <point x="233" y="294" type="line"/>
      <point x="289" y="294" type="line" smooth="yes"/>
      <point x="345" y="294"/>
      <point x="380" y="316"/>
      <point x="380" y="352" type="curve" smooth="yes"/>
      <point x="380" y="384"/>
      <point x="351" y="407"/>
      <point x="310" y="407" type="curve" smooth="yes"/>
      <point x="233" y="407" type="line"/>
    </contour>
    <contour>
      <point x="300" y="578" type="curve" smooth="yes"/>
      <point x="463" y="578"/>
      <point x="596" y="445"/>
      <point x="596" y="282" type="curve" smooth="yes"/>
      <point x="596" y="116"/>
      <point x="464" y="-15"/>
      <point x="296" y="-15" type="curve" smooth="yes"/>
      <point x="136" y="-15"/>
      <point x="3" y="120"/>
      <point x="3" y="282" type="curve" smooth="yes"/>
      <point x="3" y="445"/>
      <point x="136" y="578"/>
    </contour>
    <contour>
      <point x="300" y="537" type="curve" smooth="yes"/>
      <point x="159" y="537"/>
      <point x="44" y="423"/>
      <point x="44" y="282" type="curve" smooth="yes"/>
      <point x="44" y="142"/>
      <point x="159" y="26"/>
      <point x="296" y="26" type="curve" smooth="yes"/>
      <point x="441" y="26"/>
      <point x="555" y="139"/>
      <point x="555" y="282" type="curve" smooth="yes"/>
      <point x="555" y="422"/>
      <point x="440" y="537"/>
    </contour>
  </outline>
</glyph>
<glyph name="macron" format="1">
  <advance width="600"/>
  <unicode hex="00AF"/>
  <outline>
    <contour>
      <point x="418" y="536" type="curve" smooth="yes"/>
      <point x="182" y="536" type="line" smooth="yes"/>
      <point x="164" y="536"/>
      <point x="155" y="543"/>
      <point x="155" y="556" type="curve" smooth="yes"/>
      <point x="155" y="569"/>
      <point x="164" y="576"/>
      <point x="182" y="576" type="curve" smooth="yes"/>
      <point x="418" y="576" type="line" smooth="yes"/>
      <point x="436" y="576"/>
      <point x="445" y="569"/>
      <point x="445" y="556" type="curve" smooth="yes"/>
      <point x="445" y="543"/>
      <point x="436" y="536"/>
    </contour>
  </outline>
</glyph>
<glyph name="degree" format="1">
  <advance width="600"/>
  <unicode hex="00B0"/>
  <outline>
    <contour>
      <point x="300" y="636" type="curve" smooth="yes"/>
      <point x="380" y="636"/>
      <point x="445" y="571"/>
      <point x="445" y="491" type="curve" smooth="yes"/>
      <point x="445" y="411"/>
      <point x="380" y="346"/>
      <point x="300" y="346" type="curve" smooth="yes"/>
      <point x="219" y="346"/>
      <point x="155" y="411"/>
      <point x="155" y="493" type="curve" smooth="yes"/>
      <point x="155" y="571"/>
      <point x="221" y="636"/>
    </contour>
    <contour>
      <point x="300" y="595" type="curve" smooth="yes"/>
      <point x="243" y="595"/>
      <point x="196" y="548"/>
      <point x="196" y="492" type="curve" smooth="yes"/>
      <point x="196" y="434"/>
      <point x="242" y="387"/>
      <point x="300" y="387" type="curve" smooth="yes"/>
      <point x="357" y="387"/>
      <point x="404" y="434"/>
      <point x="404" y="491" type="curve" smooth="yes"/>
      <point x="404" y="548"/>
      <point x="357" y="595"/>
    </contour>
  </outline>
</glyph>
<glyph name="plusminus" format="1">
  <advance width="600"/>
  <unicode hex="00B1"/>
  <outline>
    <contour>
      <point x="320" y="301" type="line"/>
      <point x="320" y="139" type="line" smooth="yes"/>
      <point x="320" y="121"/>
      <point x="313" y="112"/>
      <point x="300" y="112" type="curve" smooth="yes"/>
      <point x="286" y="112"/>
      <point x="279" y="121"/>
      <point x="279" y="139" type="curve" smooth="yes"/>
      <point x="279" y="301" type="line"/>
      <point x="99" y="301" type="line" smooth="yes"/>
      <point x="81" y="301"/>
      <point x="72" y="308"/>
      <point x="72" y="321" type="curve" smooth="yes"/>
      <point x="72" y="334"/>
      <point x="81" y="341"/>
      <point x="99" y="341" type="curve" smooth="yes"/>
      <point x="279" y="341" type="line"/>
      <point x="279" y="502" type="line" smooth="yes"/>
      <point x="279" y="520"/>
      <point x="286" y="529"/>
      <point x="300" y="529" type="curve" smooth="yes"/>
      <point x="313" y="529"/>
      <point x="320" y="520"/>
      <point x="320" y="502" type="curve" smooth="yes"/>
      <point x="320" y="341" type="line"/>
      <point x="500" y="341" type="line" smooth="yes"/>
      <point x="519" y="341"/>
      <point x="528" y="335"/>
      <point x="528" y="321" type="curve" smooth="yes"/>
      <point x="528" y="308"/>
      <point x="519" y="301"/>
      <point x="500" y="301" type="curve" smooth="yes"/>
    </contour>
    <contour>
      <point x="99" y="40" type="curve" smooth="yes"/>
      <point x="501" y="40" type="line" smooth="yes"/>
      <point x="519" y="40"/>
      <point x="528" y="33"/>
      <point x="528" y="20" type="curve" smooth="yes"/>
      <point x="528" y="7"/>
      <point x="519" y="0"/>
      <point x="501" y="0" type="curve" smooth="yes"/>
      <point x="99" y="0" type="line" smooth="yes"/>
      <point x="81" y="0"/>
      <point x="72" y="7"/>
      <point x="72" y="20" type="curve" smooth="yes"/>
      <point x="72" y="33"/>
      <point x="81" y="40"/>
    </contour>
  </outline>
</glyph>
<glyph name="twosuperior" format="1">
  <advance width="600"/>
  <unicode hex="00B2"/>
  <outline>
    <contour>
      <point x="219" y="295" type="curve"/>
      <point x="369" y="295" type="line"/>
      <point x="369" y="298" type="line" smooth="yes"/>
      <point x="369" y="310"/>
      <point x="376" y="318"/>
      <point x="387" y="318" type="curve" smooth="yes"/>
      <point x="398" y="318"/>
      <point x="405" y="310"/>
      <point x="405" y="298" type="curve" smooth="yes"/>
      <point x="405" y="259" type="line"/>
      <point x="175" y="259" type="line"/>
      <point x="175" y="302" type="line"/>
      <point x="307" y="425" type="line"/>
      <point x="357" y="475"/>
      <point x="367" y="489"/>
      <point x="367" y="511" type="curve" smooth="yes"/>
      <point x="367" y="546"/>
      <point x="333" y="576"/>
      <point x="295" y="576" type="curve" smooth="yes"/>
      <point x="261" y="576"/>
      <point x="230" y="555"/>
      <point x="221" y="524" type="curve" smooth="yes"/>
      <point x="218" y="513"/>
      <point x="212" y="508"/>
      <point x="203" y="508" type="curve" smooth="yes"/>
      <point x="194" y="508"/>
      <point x="186" y="516"/>
      <point x="186" y="525" type="curve" smooth="yes"/>
      <point x="186" y="536"/>
      <point x="194" y="554"/>
      <point x="205" y="568" type="curve" smooth="yes"/>
      <point x="227" y="596"/>
      <point x="260" y="612"/>
      <point x="295" y="612" type="curve" smooth="yes"/>
      <point x="353" y="612"/>
      <point x="403" y="565"/>
      <point x="403" y="511" type="curve" smooth="yes"/>
      <point x="403" y="468"/>
      <point x="386" y="448"/>
    </contour>
  </outline>
</glyph>
<glyph name="threesuperior" format="1">
  <advance width="600"/>
  <unicode hex="00B3"/>
  <outline>
    <contour>
      <point x="358" y="446" type="curve"/>
      <point x="397" y="422"/>
      <point x="416" y="394"/>
      <point x="416" y="358" type="curve" smooth="yes"/>
      <point x="416" y="299"/>
      <point x="361" y="251"/>
      <point x="295" y="251" type="curve" smooth="yes"/>
      <point x="245" y="251"/>
      <point x="181" y="281"/>
      <point x="181" y="304" type="curve" smooth="yes"/>
      <point x="181" y="313"/>
      <point x="189" y="321"/>
      <point x="198" y="321" type="curve" smooth="yes"/>
      <point x="203" y="321"/>
      <point x="206" y="320"/>
      <point x="211" y="316" type="curve" smooth="yes"/>
      <point x="241" y="295"/>
      <point x="265" y="287"/>
      <point x="295" y="287" type="curve" smooth="yes"/>
      <point x="341" y="287"/>
      <point x="380" y="320"/>
      <point x="380" y="358" type="curve" smooth="yes"/>
      <point x="380" y="398"/>
      <point x="341" y="430"/>
      <point x="288" y="431" type="curve" smooth="yes"/>
      <point x="275" y="432"/>
      <point x="267" y="438"/>
      <point x="267" y="449" type="curve" smooth="yes"/>
      <point x="267" y="455"/>
      <point x="270" y="461"/>
      <point x="276" y="465" type="curve" smooth="yes"/>
      <point x="279" y="467"/>
      <point x="279" y="467"/>
      <point x="304" y="467" type="curve" smooth="yes"/>
      <point x="341" y="467"/>
      <point x="368" y="490"/>
      <point x="368" y="520" type="curve" smooth="yes"/>
      <point x="368" y="552"/>
      <point x="339" y="576"/>
      <point x="300" y="576" type="curve" smooth="yes"/>
      <point x="271" y="576"/>
      <point x="246" y="566"/>
      <point x="231" y="549" type="curve" smooth="yes"/>
      <point x="225" y="541"/>
      <point x="221" y="539"/>
      <point x="215" y="539" type="curve" smooth="yes"/>
      <point x="205" y="539"/>
      <point x="197" y="547"/>
      <point x="197" y="556" type="curve" smooth="yes"/>
      <point x="197" y="581"/>
      <point x="254" y="612"/>
      <point x="300" y="612" type="curve" smooth="yes"/>
      <point x="359" y="612"/>
      <point x="404" y="572"/>
      <point x="404" y="520" type="curve" smooth="yes"/>
      <point x="404" y="490"/>
      <point x="391" y="468"/>
    </contour>
  </outline>
</glyph>
<glyph name="acute" format="1">
  <advance width="600"/>
  <unicode hex="00B4"/>
  <outline>
    <contour>
      <point x="433" y="599" type="curve" smooth="yes"/>
      <point x="319" y="499" type="line" smooth="yes"/>
      <point x="310" y="492"/>
      <point x="306" y="490"/>
      <point x="300" y="490" type="curve" smooth="yes"/>
      <point x="289" y="490"/>
      <point x="280" y="499"/>
      <point x="280" y="511" type="curve" smooth="yes"/>
      <point x="280" y="518"/>
      <point x="282" y="521"/>
      <point x="292" y="530" type="curve" smooth="yes"/>
      <point x="406" y="630" type="line" smooth="yes"/>
      <point x="415" y="637"/>
      <point x="419" y="639"/>
      <point x="425" y="639" type="curve" smooth="yes"/>
      <point x="436" y="639"/>
      <point x="445" y="630"/>
      <point x="445" y="618" type="curve" smooth="yes"/>
      <point x="445" y="611"/>
      <point x="442" y="607"/>
    </contour>
  </outline>
</glyph>
<glyph name="paragraph" format="1">
  <advance width="600"/>
  <unicode hex="00B6"/>
  <outline>
    <contour>
      <point x="437" y="563" type="line"/>
      <point x="437" y="-21" type="line"/>
      <point x="499" y="-21" type="line" smooth="yes"/>
      <point x="516" y="-21"/>
      <point x="525" y="-28"/>
      <point x="525" y="-41" type="curve" smooth="yes"/>
      <point x="525" y="-55"/>
      <point x="516" y="-62"/>
      <point x="499" y="-62" type="curve" smooth="yes"/>
      <point x="401" y="-62" type="line" smooth="yes"/>
      <point x="386" y="-62"/>
      <point x="376" y="-54"/>
      <point x="376" y="-41" type="curve" smooth="yes"/>
      <point x="376" y="-30"/>
      <point x="384" y="-22"/>
      <point x="397" y="-21" type="curve"/>
      <point x="397" y="563" type="line"/>
      <point x="325" y="563" type="line"/>
      <point x="325" y="-21" type="line"/>
      <point x="338" y="-22"/>
      <point x="346" y="-30"/>
      <point x="346" y="-41" type="curve" smooth="yes"/>
      <point x="346" y="-55"/>
      <point x="337" y="-62"/>
      <point x="321" y="-62" type="curve" smooth="yes"/>
      <point x="187" y="-62" type="line" smooth="yes"/>
      <point x="171" y="-62"/>
      <point x="161" y="-54"/>
      <point x="161" y="-41" type="curve" smooth="yes"/>
      <point x="161" y="-28"/>
      <point x="170" y="-21"/>
      <point x="187" y="-21" type="curve" smooth="yes"/>
      <point x="284" y="-21" type="line"/>
      <point x="284" y="260" type="line"/>
      <point x="237" y="263"/>
      <point x="203" y="271"/>
      <point x="173" y="284" type="curve" smooth="yes"/>
      <point x="115" y="310"/>
      <point x="79" y="357"/>
      <point x="79" y="406" type="curve" smooth="yes"/>
      <point x="79" y="453" type="line" smooth="yes"/>
      <point x="79" y="543"/>
      <point x="168" y="604"/>
      <point x="298" y="604" type="curve" smooth="yes"/>
      <point x="498" y="604" type="line" smooth="yes"/>
      <point x="514" y="604"/>
      <point x="523" y="596"/>
      <point x="523" y="584" type="curve" smooth="yes"/>
      <point x="523" y="571"/>
      <point x="514" y="563"/>
      <point x="498" y="563" type="curve" smooth="yes"/>
    </contour>
    <contour>
      <point x="284" y="307" type="curve"/>
      <point x="284" y="558" type="line"/>
      <point x="207" y="550"/>
      <point x="149" y="504"/>
      <point x="149" y="451" type="curve" smooth="yes"/>
      <point x="149" y="414" type="line" smooth="yes"/>
      <point x="149" y="361"/>
      <point x="207" y="315"/>
    </contour>
  </outline>
</glyph>
<glyph name="periodcentered" format="1">
  <advance width="600"/>
  <unicode hex="00B7"/>
  <outline>
    <contour>
      <point x="295" y="348" type="curve" smooth="yes"/>
      <point x="305" y="348" type="line" smooth="yes"/>
      <point x="344" y="348"/>
      <point x="374" y="320"/>
      <point x="374" y="283" type="curve" smooth="yes"/>
      <point x="374" y="245"/>
      <point x="344" y="217"/>
      <point x="305" y="217" type="curve" smooth="yes"/>
      <point x="295" y="217" type="line" smooth="yes"/>
      <point x="256" y="217"/>
      <point x="226" y="246"/>
      <point x="226" y="283" type="curve" smooth="yes"/>
      <point x="226" y="320"/>
      <point x="256" y="348"/>
    </contour>
  </outline>
</glyph>
<glyph name="cedilla" format="1">
  <advance width="600"/>
  <unicode hex="00B8"/>
  <outline>
    <contour>
      <point x="274" y="0" type="line"/>
      <point x="312" y="0" type="line"/>
      <point x="312" y="-47" type="line"/>
      <point x="353" y="-48"/>
      <point x="377" y="-70"/>
      <point x="377" y="-108" type="curve" smooth="yes"/>
      <point x="377" y="-147"/>
      <point x="345" y="-173"/>
      <point x="298" y="-173" type="curve" smooth="yes"/>
      <point x="278" y="-173"/>
      <point x="247" y="-165"/>
      <point x="228" y="-155" type="curve" smooth="yes"/>
      <point x="214" y="-148"/>
      <point x="210" y="-143"/>
      <point x="210" y="-133" type="curve" smooth="yes"/>
      <point x="210" y="-122"/>
      <point x="219" y="-114"/>
      <point x="230" y="-114" type="curve" smooth="yes"/>
      <point x="234" y="-114"/>
      <point x="237" y="-115"/>
      <point x="245" y="-119" type="curve" smooth="yes"/>
      <point x="267" y="-131"/>
      <point x="281" y="-135"/>
      <point x="296" y="-135" type="curve" smooth="yes"/>
      <point x="322" y="-135"/>
      <point x="340" y="-123"/>
      <point x="340" y="-106" type="curve" smooth="yes"/>
      <point x="340" y="-89"/>
      <point x="325" y="-81"/>
      <point x="294" y="-81" type="curve" smooth="yes"/>
      <point x="274" y="-81" type="line"/>
    </contour>
  </outline>
</glyph>
<glyph name="onesuperior" format="1">
  <advance width="600"/>
  <unicode hex="00B9"/>
  <outline>
    <contour>
      <point x="319" y="612" type="curve"/>
      <point x="319" y="295" type="line"/>
      <point x="390" y="295" type="line" smooth="yes"/>
      <point x="402" y="295"/>
      <point x="410" y="288"/>
      <point x="410" y="277" type="curve" smooth="yes"/>
      <point x="410" y="266"/>
      <point x="402" y="259"/>
      <point x="390" y="259" type="curve" smooth="yes"/>
      <point x="212" y="259" type="line" smooth="yes"/>
      <point x="199" y="259"/>
      <point x="191" y="266"/>
      <point x="191" y="277" type="curve" smooth="yes"/>
      <point x="191" y="290"/>
      <point x="201" y="296"/>
      <point x="222" y="296" type="curve" smooth="yes"/>
      <point x="230" y="296"/>
      <point x="261" y="296"/>
      <point x="283" y="295" type="curve"/>
      <point x="283" y="563" type="line"/>
      <point x="218" y="542" type="line" smooth="yes"/>
      <point x="214" y="541"/>
      <point x="211" y="540"/>
      <point x="209" y="540" type="curve" smooth="yes"/>
      <point x="201" y="540"/>
      <point x="192" y="549"/>
      <point x="192" y="558" type="curve" smooth="yes"/>
      <point x="192" y="573"/>
      <point x="192" y="573"/>
    </contour>
  </outline>
</glyph>
<glyph name="ordmasculine" format="1">
  <advance width="600"/>
  <unicode hex="00BA"/>
  <outline>
    <contour>
      <point x="301" y="577" type="curve" smooth="yes"/>
      <point x="383" y="577"/>
      <point x="448" y="512"/>
      <point x="448" y="429" type="curve" smooth="yes"/>
      <point x="448" y="350"/>
      <point x="381" y="284"/>
      <point x="301" y="284" type="curve" smooth="yes"/>
      <point x="220" y="284"/>
      <point x="154" y="350"/>
      <point x="154" y="431" type="curve" smooth="yes"/>
      <point x="154" y="511"/>
      <point x="220" y="577"/>
    </contour>
    <contour>
      <point x="301" y="540" type="curve" smooth="yes"/>
      <point x="240" y="540"/>
      <point x="191" y="491"/>
      <point x="191" y="431" type="curve" smooth="yes"/>
      <point x="191" y="370"/>
      <point x="241" y="321"/>
      <point x="301" y="321" type="curve" smooth="yes"/>
      <point x="361" y="321"/>
      <point x="411" y="370"/>
      <point x="411" y="429" type="curve" smooth="yes"/>
      <point x="411" y="491"/>
      <point x="363" y="540"/>
    </contour>
  </outline>
</glyph>
<glyph name="guillemotright" format="1">
  <advance width="600"/>
  <unicode hex="00BB"/>
  <outline>
    <contour>
      <point x="311" y="208" type="line"/>
      <point x="104" y="11" type="line" smooth="yes"/>
      <point x="96" y="3"/>
      <point x="90" y="0"/>
      <point x="83" y="0" type="curve" smooth="yes"/>
      <point x="72" y="0"/>
      <point x="63" y="9"/>
      <point x="63" y="20" type="curve" smooth="yes"/>
      <point x="63" y="27"/>
      <point x="64" y="29"/>
      <point x="74" y="40" type="curve" smooth="yes"/>
      <point x="216" y="208" type="line"/>
      <point x="74" y="377" type="line" smooth="yes"/>
      <point x="64" y="388"/>
      <point x="63" y="390"/>
      <point x="63" y="397" type="curve" smooth="yes"/>
      <point x="63" y="408"/>
      <point x="72" y="417"/>
      <point x="83" y="417" type="curve" smooth="yes"/>
      <point x="89" y="417"/>
      <point x="96" y="413"/>
      <point x="104" y="406" type="curve" smooth="yes"/>
    </contour>
    <contour>
      <point x="541" y="208" type="line"/>
      <point x="334" y="11" type="line" smooth="yes"/>
      <point x="326" y="3"/>
      <point x="320" y="0"/>
      <point x="313" y="0" type="curve" smooth="yes"/>
      <point x="302" y="0"/>
      <point x="293" y="9"/>
      <point x="293" y="20" type="curve" smooth="yes"/>
      <point x="293" y="27"/>
      <point x="294" y="29"/>
      <point x="304" y="40" type="curve" smooth="yes"/>
      <point x="446" y="208" type="line"/>
      <point x="304" y="377" type="line" smooth="yes"/>
      <point x="294" y="388"/>
      <point x="293" y="390"/>
      <point x="293" y="397" type="curve" smooth="yes"/>
      <point x="293" y="408"/>
      <point x="302" y="417"/>
      <point x="313" y="417" type="curve" smooth="yes"/>
      <point x="319" y="417"/>
      <point x="326" y="413"/>
      <point x="334" y="406" type="curve" smooth="yes"/>
    </contour>
  </outline>
</glyph>
<glyph name="onequarter" format="1">
  <advance width="600"/>
  <unicode hex="00BC"/>
  <outline>
    <contour>
      <point x="144" y="612" type="curve"/>
      <point x="144" y="295" type="line"/>
      <point x="215" y="295" type="line" smooth="yes"/>
      <point x="228" y="295"/>
      <point x="236" y="288"/>
      <point x="236" y="277" type="curve" smooth="yes"/>
      <point x="236" y="266"/>
      <point x="227" y="259"/>
      <point x="215" y="259" type="curve" smooth="yes"/>
      <point x="37" y="259" type="line" smooth="yes"/>
      <point x="24" y="259"/>
      <point x="16" y="266"/>
      <point x="16" y="277" type="curve" smooth="yes"/>
      <point x="16" y="290"/>
      <point x="26" y="296"/>
      <point x="47" y="296" type="curve" smooth="yes"/>
      <point x="55" y="296"/>
      <point x="86" y="296"/>
      <point x="108" y="295" type="curve"/>
      <point x="108" y="563" type="line"/>
      <point x="43" y="542" type="line" smooth="yes"/>
      <point x="39" y="541"/>
      <point x="36" y="540"/>
      <point x="34" y="540" type="curve" smooth="yes"/>
      <point x="26" y="540"/>
      <point x="17" y="549"/>
      <point x="17" y="558" type="curve" smooth="yes"/>
      <point x="17" y="573"/>
      <point x="17" y="573"/>
    </contour>
    <contour>
      <point x="492" y="477" type="curve" smooth="yes"/>
      <point x="141" y="63" type="line" smooth="yes"/>
      <point x="133" y="53"/>
      <point x="129" y="51"/>
      <point x="123" y="51" type="curve" smooth="yes"/>
      <point x="112" y="51"/>
      <point x="103" y="60"/>
      <point x="103" y="71" type="curve" smooth="yes"/>
      <point x="103" y="75"/>
      <point x="106" y="81"/>
      <point x="112" y="88" type="curve" smooth="yes"/>
      <point x="462" y="502" type="line" smooth="yes"/>
      <point x="471" y="512"/>
      <point x="474" y="514"/>
      <point x="480" y="514" type="curve" smooth="yes"/>
      <point x="491" y="514"/>
      <point x="500" y="505"/>
      <point x="500" y="494" type="curve" smooth="yes"/>
      <point x="500" y="490"/>
      <point x="496" y="483"/>
    </contour>
    <contour>
      <point x="510" y="93" type="line"/>
      <point x="361" y="93" type="line"/>
      <point x="361" y="127" type="line"/>
      <point x="489" y="345" type="line"/>
      <point x="546" y="345" type="line"/>
      <point x="546" y="129" type="line"/>
      <point x="559" y="129" type="line" smooth="yes"/>
      <point x="572" y="129"/>
      <point x="580" y="122"/>
      <point x="580" y="111" type="curve" smooth="yes"/>
      <point x="580" y="99"/>
      <point x="571" y="93"/>
      <point x="555" y="93" type="curve" smooth="yes"/>
      <point x="546" y="93" type="line"/>
      <point x="546" y="36" type="line"/>
      <point x="559" y="36" type="line" smooth="yes"/>
      <point x="572" y="36"/>
      <point x="580" y="29"/>
      <point x="580" y="18" type="curve" smooth="yes"/>
      <point x="580" y="7"/>
      <point x="572" y="0"/>
      <point x="559" y="0" type="curve" smooth="yes"/>
      <point x="474" y="0" type="line" smooth="yes"/>
      <point x="461" y="0"/>
      <point x="453" y="7"/>
      <point x="453" y="18" type="curve" smooth="yes"/>
      <point x="453" y="25"/>
      <point x="458" y="32"/>
      <point x="464" y="35" type="curve"/>
      <point x="469" y="36"/>
      <point x="469" y="36"/>
      <point x="510" y="36" type="curve"/>
    </contour>
    <contour>
      <point x="510" y="129" type="line"/>
      <point x="510" y="309" type="line"/>
      <point x="508" y="309" type="line"/>
      <point x="401" y="129" type="line"/>
    </contour>
  </outline>
</glyph>
<glyph name="onehalf" format="1">
  <advance width="600"/>
  <unicode hex="00BD"/>
  <outline>
    <contour>
      <point x="485" y="477" type="curve" smooth="yes"/>
      <point x="134" y="63" type="line" smooth="yes"/>
      <point x="126" y="53"/>
      <point x="122" y="51"/>
      <point x="116" y="51" type="curve" smooth="yes"/>
      <point x="105" y="51"/>
      <point x="96" y="60"/>
      <point x="96" y="71" type="curve" smooth="yes"/>
      <point x="96" y="75"/>
      <point x="99" y="81"/>
      <point x="105" y="88" type="curve" smooth="yes"/>
      <point x="455" y="502" type="line" smooth="yes"/>
      <point x="464" y="512"/>
      <point x="467" y="514"/>
      <point x="473" y="514" type="curve" smooth="yes"/>
      <point x="484" y="514"/>
      <point x="493" y="505"/>
      <point x="493" y="494" type="curve" smooth="yes"/>
      <point x="493" y="490"/>
      <point x="489" y="483"/>
    </contour>
    <contour>
      <point x="151" y="612" type="curve"/>
      <point x="151" y="295" type="line"/>
      <point x="222" y="295" type="line" smooth="yes"/>
      <point x="234" y="295"/>
      <point x="242" y="288"/>
      <point x="242" y="277" type="curve" smooth="yes"/>
      <point x="242" y="266"/>
      <point x="234" y="259"/>
      <point x="222" y="259" type="curve" smooth="yes"/>
      <point x="44" y="259" type="line" smooth="yes"/>
      <point x="31" y="259"/>
      <point x="23" y="266"/>
      <point x="23" y="277" type="curve" smooth="yes"/>
      <point x="23" y="290"/>
      <point x="33" y="296"/>
      <point x="54" y="296" type="curve" smooth="yes"/>
      <point x="62" y="296"/>
      <point x="93" y="296"/>
      <point x="115" y="295" type="curve"/>
      <point x="115" y="563" type="line"/>
      <point x="50" y="542" type="line" smooth="yes"/>
      <point x="46" y="541"/>
      <point x="43" y="540"/>
      <point x="41" y="540" type="curve" smooth="yes"/>
      <point x="33" y="540"/>
      <point x="24" y="549"/>
      <point x="24" y="558" type="curve" smooth="yes"/>
      <point x="24" y="573"/>
      <point x="24" y="573"/>
    </contour>
    <contour>
      <point x="387" y="36" type="curve"/>
      <point x="537" y="36" type="line"/>
      <point x="537" y="39" type="line" smooth="yes"/>
      <point x="537" y="51"/>
      <point x="544" y="59"/>
      <point x="555" y="59" type="curve" smooth="yes"/>
      <point x="566" y="59"/>
      <point x="573" y="51"/>
      <point x="573" y="39" type="curve" smooth="yes"/>
      <point x="573" y="0" type="line"/>
      <point x="343" y="0" type="line"/>
      <point x="343" y="43" type="line"/>
      <point x="475" y="166" type="line"/>
      <point x="525" y="216"/>
      <point x="535" y="230"/>
      <point x="535" y="252" type="curve" smooth="yes"/>
      <point x="535" y="287"/>
      <point x="501" y="317"/>
      <point x="463" y="317" type="curve" smooth="yes"/>
      <point x="429" y="317"/>
      <point x="398" y="296"/>
      <point x="389" y="265" type="curve" smooth="yes"/>
      <point x="386" y="254"/>
      <point x="380" y="249"/>
      <point x="371" y="249" type="curve" smooth="yes"/>
      <point x="362" y="249"/>
      <point x="354" y="257"/>
      <point x="354" y="266" type="curve" smooth="yes"/>
      <point x="354" y="277"/>
      <point x="362" y="295"/>
      <point x="373" y="309" type="curve" smooth="yes"/>
      <point x="395" y="337"/>
      <point x="428" y="353"/>
      <point x="463" y="353" type="curve" smooth="yes"/>
      <point x="521" y="353"/>
      <point x="571" y="306"/>
      <point x="571" y="252" type="curve" smooth="yes"/>
      <point x="571" y="209"/>
      <point x="554" y="189"/>
    </contour>
  </outline>
</glyph>
<glyph name="threequarters" format="1">
  <advance width="600"/>
  <unicode hex="00BE"/>
  <outline>
    <contour>
      <point x="183" y="446" type="curve"/>
      <point x="222" y="422"/>
      <point x="241" y="394"/>
      <point x="241" y="358" type="curve" smooth="yes"/>
      <point x="241" y="299"/>
      <point x="186" y="251"/>
      <point x="120" y="251" type="curve" smooth="yes"/>
      <point x="70" y="251"/>
      <point x="6" y="281"/>
      <point x="6" y="304" type="curve" smooth="yes"/>
      <point x="6" y="313"/>
      <point x="14" y="321"/>
      <point x="23" y="321" type="curve" smooth="yes"/>
      <point x="28" y="321"/>
      <point x="31" y="320"/>
      <point x="36" y="316" type="curve" smooth="yes"/>
      <point x="66" y="295"/>
      <point x="90" y="287"/>
      <point x="120" y="287" type="curve" smooth="yes"/>
      <point x="166" y="287"/>
      <point x="205" y="320"/>
      <point x="205" y="358" type="curve" smooth="yes"/>
      <point x="205" y="398"/>
      <point x="166" y="430"/>
      <point x="113" y="431" type="curve" smooth="yes"/>
      <point x="100" y="432"/>
      <point x="92" y="438"/>
      <point x="92" y="449" type="curve" smooth="yes"/>
      <point x="92" y="455"/>
      <point x="95" y="461"/>
      <point x="101" y="465" type="curve" smooth="yes"/>
      <point x="104" y="467"/>
      <point x="104" y="467"/>
      <point x="129" y="467" type="curve" smooth="yes"/>
      <point x="166" y="467"/>
      <point x="193" y="490"/>
      <point x="193" y="520" type="curve" smooth="yes"/>
      <point x="193" y="552"/>
      <point x="164" y="576"/>
      <point x="125" y="576" type="curve" smooth="yes"/>
      <point x="96" y="576"/>
      <point x="71" y="566"/>
      <point x="56" y="549" type="curve" smooth="yes"/>
      <point x="50" y="541"/>
      <point x="46" y="539"/>
      <point x="40" y="539" type="curve" smooth="yes"/>
      <point x="30" y="539"/>
      <point x="22" y="547"/>
      <point x="22" y="556" type="curve" smooth="yes"/>
      <point x="22" y="581"/>
      <point x="79" y="612"/>
      <point x="125" y="612" type="curve" smooth="yes"/>
      <point x="184" y="612"/>
      <point x="229" y="572"/>
      <point x="229" y="520" type="curve" smooth="yes"/>
      <point x="229" y="490"/>
      <point x="216" y="468"/>
    </contour>
    <contour>
      <point x="491" y="477" type="curve" smooth="yes"/>
      <point x="140" y="63" type="line" smooth="yes"/>
      <point x="132" y="53"/>
      <point x="128" y="51"/>
      <point x="122" y="51" type="curve" smooth="yes"/>
      <point x="111" y="51"/>
      <point x="102" y="60"/>
      <point x="102" y="71" type="curve" smooth="yes"/>
      <point x="102" y="76"/>
      <point x="104" y="80"/>
      <point x="111" y="88" type="curve" smooth="yes"/>
      <point x="461" y="502" type="line" smooth="yes"/>
      <point x="470" y="512"/>
      <point x="473" y="514"/>
      <point x="479" y="514" type="curve" smooth="yes"/>
      <point x="490" y="514"/>
      <point x="499" y="505"/>
      <point x="499" y="494" type="curve" smooth="yes"/>
      <point x="499" y="490"/>
      <point x="495" y="483"/>
    </contour>
    <contour>
      <point x="510" y="93" type="line"/>
      <point x="361" y="93" type="line"/>
      <point x="361" y="127" type="line"/>
      <point x="489" y="345" type="line"/>
      <point x="546" y="345" type="line"/>
      <point x="546" y="129" type="line"/>
      <point x="559" y="129" type="line" smooth="yes"/>
      <point x="572" y="129"/>
      <point x="580" y="122"/>
      <point x="580" y="111" type="curve" smooth="yes"/>
      <point x="580" y="99"/>
      <point x="571" y="93"/>
      <point x="555" y="93" type="curve" smooth="yes"/>
      <point x="546" y="93" type="line"/>
      <point x="546" y="36" type="line"/>
      <point x="559" y="36" type="line" smooth="yes"/>
      <point x="572" y="36"/>
      <point x="580" y="29"/>
      <point x="580" y="18" type="curve" smooth="yes"/>
      <point x="580" y="7"/>
      <point x="572" y="0"/>
      <point x="559" y="0" type="curve" smooth="yes"/>
      <point x="474" y="0" type="line" smooth="yes"/>
      <point x="461" y="0"/>
      <point x="453" y="7"/>
      <point x="453" y="18" type="curve" smooth="yes"/>
      <point x="453" y="25"/>
      <point x="458" y="32"/>
      <point x="464" y="35" type="curve"/>
      <point x="469" y="36"/>
      <point x="469" y="36"/>
      <point x="510" y="36" type="curve"/>
    </contour>
    <contour>
      <point x="510" y="129" type="line"/>
      <point x="510" y="309" type="line"/>
      <point x="508" y="309" type="line"/>
      <point x="401" y="129" type="line"/>
    </contour>
  </outline>
</glyph>
<glyph name="questiondown" format="1">
  <advance width="600"/>
  <unicode hex="00BF"/>
  <outline>
    <contour>
      <point x="278" y="155" type="curve"/>
      <point x="278" y="196" type="line" smooth="yes"/>
      <point x="278" y="214"/>
      <point x="285" y="223"/>
      <point x="298" y="223" type="curve" smooth="yes"/>
      <point x="312" y="223"/>
      <point x="319" y="214"/>
      <point x="319" y="196" type="curve" smooth="yes"/>
      <point x="319" y="128" type="line"/>
      <point x="203" y="80"/>
      <point x="154" y="36"/>
      <point x="154" y="-21" type="curve" smooth="yes"/>
      <point x="154" y="-87"/>
      <point x="213" y="-134"/>
      <point x="296" y="-134" type="curve" smooth="yes"/>
      <point x="341" y="-134"/>
      <point x="372" y="-126"/>
      <point x="425" y="-100" type="curve"/>
      <point x="425" y="-59" type="line" smooth="yes"/>
      <point x="425" y="-41"/>
      <point x="432" y="-32"/>
      <point x="445" y="-32" type="curve" smooth="yes"/>
      <point x="459" y="-32"/>
      <point x="466" y="-41"/>
      <point x="466" y="-59" type="curve" smooth="yes"/>
      <point x="466" y="-126" type="line"/>
      <point x="456" y="-131"/>
      <point x="448" y="-134"/>
      <point x="437" y="-139" type="curve" smooth="yes"/>
      <point x="374" y="-167"/>
      <point x="342" y="-175"/>
      <point x="291" y="-175" type="curve" smooth="yes"/>
      <point x="185" y="-175"/>
      <point x="113" y="-113"/>
      <point x="113" y="-21" type="curve" smooth="yes"/>
      <point x="113" y="53"/>
      <point x="153" y="96"/>
    </contour>
    <contour>
      <point x="313" y="317" type="curve" smooth="yes"/>
      <point x="286" y="317" type="line" smooth="yes"/>
      <point x="252" y="317"/>
      <point x="229" y="338"/>
      <point x="229" y="367" type="curve" smooth="yes"/>
      <point x="229" y="396"/>
      <point x="252" y="417"/>
      <point x="286" y="417" type="curve" smooth="yes"/>
      <point x="313" y="417" type="line" smooth="yes"/>
      <point x="347" y="417"/>
      <point x="370" y="397"/>
      <point x="370" y="367" type="curve" smooth="yes"/>
      <point x="370" y="337"/>
      <point x="347" y="317"/>
    </contour>
  </outline>
</glyph>
